G75*
G70*
%OFA0B0*%
%FSLAX24Y24*%
%IPPOS*%
%LPD*%
%AMOC8*
5,1,8,0,0,1.08239X$1,22.5*
%
%ADD10R,0.0472X0.0315*%
D10*
X001107Y006300D03*
X002107Y006300D03*
X004107Y006300D03*
X005107Y006300D03*
X007107Y006300D03*
X008107Y006300D03*
X010107Y006300D03*
X011107Y006300D03*
X011107Y007008D03*
X010107Y007008D03*
X008107Y007008D03*
X007107Y007008D03*
X005107Y007008D03*
X004107Y007008D03*
X002107Y007008D03*
X001107Y007008D03*
X013707Y007008D03*
X014707Y007008D03*
X014707Y006300D03*
X013707Y006300D03*
X016703Y006300D03*
X017703Y006300D03*
X019703Y006300D03*
X020707Y006300D03*
X022707Y006300D03*
X023703Y006300D03*
X023703Y007008D03*
X022707Y007008D03*
X020707Y007008D03*
X019703Y007008D03*
X017703Y007008D03*
X016703Y007008D03*
X026309Y007008D03*
X027309Y007008D03*
X027309Y006300D03*
X026309Y006300D03*
X029309Y006300D03*
X030309Y006300D03*
X030309Y007008D03*
X029309Y007008D03*
X032309Y007008D03*
X033309Y007008D03*
X033309Y006300D03*
X032309Y006300D03*
X035309Y006300D03*
X036309Y006300D03*
X036309Y007008D03*
X035309Y007008D03*
X038912Y007008D03*
X039908Y007008D03*
X041904Y007008D03*
X042900Y007008D03*
X044880Y007008D03*
X045904Y007008D03*
X047908Y007008D03*
X048896Y007008D03*
X051500Y007008D03*
X052500Y007008D03*
X054500Y007008D03*
X055500Y007008D03*
X057500Y007008D03*
X058500Y007008D03*
X060500Y007008D03*
X061500Y007008D03*
X061500Y006300D03*
X060500Y006300D03*
X058500Y006300D03*
X057500Y006300D03*
X055500Y006300D03*
X054500Y006300D03*
X052500Y006300D03*
X051500Y006300D03*
X048896Y006300D03*
X047908Y006300D03*
X045904Y006300D03*
X044880Y006300D03*
X042900Y006300D03*
X041904Y006300D03*
X039908Y006300D03*
X038912Y006300D03*
X064099Y006300D03*
X065099Y006300D03*
X065099Y007008D03*
X064099Y007008D03*
X067099Y007008D03*
X068099Y007008D03*
X068099Y006300D03*
X067099Y006300D03*
X070099Y006300D03*
X071099Y006300D03*
X071099Y007008D03*
X070099Y007008D03*
X073099Y007008D03*
X074099Y007008D03*
X074099Y006300D03*
X073099Y006300D03*
X076809Y006300D03*
X077809Y006300D03*
X079809Y006300D03*
X080809Y006300D03*
X082309Y006300D03*
X083309Y006300D03*
X083309Y007008D03*
X082309Y007008D03*
X080809Y007008D03*
X079809Y007008D03*
X077809Y007008D03*
X076809Y007008D03*
X085697Y007008D03*
X086697Y007008D03*
X089309Y007008D03*
X090309Y007008D03*
X092309Y007008D03*
X093309Y007008D03*
X095309Y007008D03*
X096309Y007008D03*
X098296Y007008D03*
X099296Y007008D03*
X099296Y006300D03*
X098296Y006300D03*
X096309Y006300D03*
X095309Y006300D03*
X093309Y006300D03*
X092309Y006300D03*
X090309Y006300D03*
X089309Y006300D03*
X086697Y006300D03*
X085697Y006300D03*
X101908Y006300D03*
X102869Y006300D03*
X102869Y007008D03*
X101908Y007008D03*
X104869Y007008D03*
X105896Y007008D03*
X105896Y006300D03*
X104869Y006300D03*
X107809Y006300D03*
X108888Y006300D03*
X108888Y007008D03*
X107809Y007008D03*
X110894Y007008D03*
X111894Y007008D03*
X111894Y006300D03*
X110894Y006300D03*
X114506Y006300D03*
X115493Y006300D03*
X117494Y006300D03*
X118494Y006300D03*
X120447Y006300D03*
X121526Y006300D03*
X123493Y006300D03*
X124493Y006300D03*
X127105Y006300D03*
X128091Y006300D03*
X130093Y006300D03*
X131093Y006300D03*
X133065Y006300D03*
X134105Y006300D03*
X136091Y006300D03*
X137091Y006300D03*
X137091Y007008D03*
X136091Y007008D03*
X134105Y007008D03*
X133065Y007008D03*
X131093Y007008D03*
X130093Y007008D03*
X128091Y007008D03*
X127105Y007008D03*
X124493Y007008D03*
X123493Y007008D03*
X121526Y007008D03*
X120447Y007008D03*
X118494Y007008D03*
X117494Y007008D03*
X115493Y007008D03*
X114506Y007008D03*
X139809Y007008D03*
X140689Y007008D03*
X142689Y007008D03*
X143689Y007008D03*
X145689Y007008D03*
X146689Y007008D03*
X148689Y007008D03*
X149689Y007008D03*
X149689Y006300D03*
X148689Y006300D03*
X146689Y006300D03*
X145689Y006300D03*
X143689Y006300D03*
X142689Y006300D03*
X140689Y006300D03*
X139809Y006300D03*
X139691Y012800D03*
X140689Y012800D03*
X142689Y012800D03*
X143689Y012800D03*
X145689Y012800D03*
X146689Y012800D03*
X148689Y012800D03*
X149672Y012800D03*
X149672Y013508D03*
X148689Y013508D03*
X146689Y013508D03*
X145689Y013508D03*
X143689Y013508D03*
X142689Y013508D03*
X140689Y013508D03*
X139691Y013508D03*
X137091Y013508D03*
X136091Y013508D03*
X134093Y013489D03*
X133065Y013508D03*
X131093Y013508D03*
X130093Y013508D03*
X128091Y013508D03*
X127105Y013508D03*
X124493Y013508D03*
X123493Y013508D03*
X121514Y013508D03*
X120487Y013508D03*
X118506Y013508D03*
X117487Y013508D03*
X115493Y013508D03*
X114506Y013508D03*
X114506Y012800D03*
X115493Y012800D03*
X117487Y012800D03*
X118506Y012800D03*
X120487Y012800D03*
X121514Y012800D03*
X123493Y012800D03*
X124493Y012800D03*
X127105Y012800D03*
X128091Y012800D03*
X130093Y012800D03*
X131093Y012800D03*
X133065Y012800D03*
X134093Y012780D03*
X136091Y012800D03*
X137091Y012800D03*
X111894Y012800D03*
X110894Y012800D03*
X110894Y013508D03*
X111894Y013508D03*
X108909Y013508D03*
X107908Y013508D03*
X107908Y012800D03*
X108909Y012800D03*
X105896Y012800D03*
X104869Y012800D03*
X104869Y013508D03*
X105896Y013508D03*
X102869Y013508D03*
X101908Y013508D03*
X101908Y012800D03*
X102869Y012800D03*
X099296Y012800D03*
X098296Y012800D03*
X096309Y012800D03*
X095309Y012800D03*
X093309Y012800D03*
X092309Y012800D03*
X090309Y012800D03*
X089309Y012800D03*
X086697Y012800D03*
X085697Y012800D03*
X083809Y012800D03*
X082809Y012800D03*
X080809Y012800D03*
X079809Y012800D03*
X077809Y012800D03*
X076809Y012800D03*
X076809Y013508D03*
X077809Y013508D03*
X079809Y013508D03*
X080809Y013508D03*
X082809Y013508D03*
X083809Y013508D03*
X085697Y013508D03*
X086697Y013508D03*
X089309Y013508D03*
X090309Y013508D03*
X092309Y013508D03*
X093309Y013508D03*
X095309Y013508D03*
X096309Y013508D03*
X098296Y013508D03*
X099296Y013508D03*
X099296Y018800D03*
X098296Y018800D03*
X096309Y018800D03*
X095309Y018800D03*
X093309Y018800D03*
X092302Y018800D03*
X090309Y018800D03*
X089309Y018800D03*
X086697Y018800D03*
X085697Y018800D03*
X083809Y018800D03*
X082809Y018800D03*
X080809Y018800D03*
X079809Y018800D03*
X079809Y019508D03*
X080809Y019508D03*
X082809Y019508D03*
X083809Y019508D03*
X085697Y019508D03*
X086697Y019508D03*
X089309Y019508D03*
X090309Y019508D03*
X092302Y019508D03*
X093309Y019508D03*
X095309Y019508D03*
X096309Y019508D03*
X098296Y019508D03*
X099296Y019508D03*
X101908Y019508D03*
X102919Y019508D03*
X102919Y018800D03*
X101908Y018800D03*
X104869Y018800D03*
X105896Y018800D03*
X105896Y019508D03*
X104869Y019508D03*
X107908Y019508D03*
X108919Y019508D03*
X108919Y018800D03*
X107908Y018800D03*
X110894Y018800D03*
X111894Y018800D03*
X111894Y019508D03*
X110894Y019508D03*
X114509Y019508D03*
X115493Y019508D03*
X117506Y019548D03*
X118506Y019508D03*
X120487Y019508D03*
X121526Y019508D03*
X123493Y019508D03*
X124493Y019508D03*
X127105Y019508D03*
X128091Y019508D03*
X130093Y019508D03*
X131093Y019508D03*
X133065Y019508D03*
X134085Y019508D03*
X136091Y019508D03*
X137091Y019508D03*
X137091Y018800D03*
X136091Y018800D03*
X134085Y018800D03*
X133065Y018800D03*
X131093Y018800D03*
X130093Y018800D03*
X128091Y018800D03*
X127105Y018800D03*
X124493Y018800D03*
X123493Y018800D03*
X121526Y018800D03*
X120487Y018800D03*
X118506Y018800D03*
X117506Y018839D03*
X115493Y018800D03*
X114509Y018800D03*
X139691Y018800D03*
X140689Y018800D03*
X142689Y018800D03*
X143689Y018800D03*
X145689Y018800D03*
X146689Y018800D03*
X148689Y018800D03*
X149689Y018800D03*
X149689Y019508D03*
X148689Y019508D03*
X146689Y019508D03*
X145689Y019508D03*
X143689Y019508D03*
X142689Y019508D03*
X140689Y019508D03*
X139691Y019508D03*
X139711Y025300D03*
X140689Y025300D03*
X142689Y025300D03*
X143689Y025300D03*
X145689Y025300D03*
X146689Y025300D03*
X148689Y025300D03*
X149689Y025300D03*
X149689Y026008D03*
X148689Y026008D03*
X146689Y026008D03*
X145689Y026008D03*
X143689Y026008D03*
X142689Y026008D03*
X140689Y026008D03*
X139711Y026008D03*
X137091Y026008D03*
X136091Y026008D03*
X134105Y026008D03*
X133065Y026008D03*
X131065Y026008D03*
X130085Y026008D03*
X128091Y026008D03*
X127105Y026008D03*
X124493Y026008D03*
X123493Y026008D03*
X121506Y026008D03*
X120487Y026008D03*
X118487Y026008D03*
X117506Y026008D03*
X115493Y026008D03*
X114506Y026008D03*
X114506Y025300D03*
X115493Y025300D03*
X117506Y025300D03*
X118487Y025300D03*
X120487Y025300D03*
X121506Y025300D03*
X123493Y025300D03*
X124493Y025300D03*
X127105Y025300D03*
X128091Y025300D03*
X130085Y025300D03*
X131065Y025300D03*
X133065Y025300D03*
X134105Y025300D03*
X136091Y025300D03*
X137091Y025300D03*
X111894Y025300D03*
X110894Y025300D03*
X110894Y026008D03*
X111894Y026008D03*
X108892Y026008D03*
X107908Y026008D03*
X107908Y025300D03*
X108892Y025300D03*
X105896Y025300D03*
X104869Y025300D03*
X104869Y026008D03*
X105896Y026008D03*
X102869Y026008D03*
X101908Y026008D03*
X101908Y025300D03*
X102869Y025300D03*
X099296Y025300D03*
X098296Y025300D03*
X096309Y025300D03*
X095309Y025300D03*
X093309Y025300D03*
X092309Y025300D03*
X090309Y025300D03*
X089309Y025300D03*
X086697Y025300D03*
X085697Y025300D03*
X083809Y025300D03*
X082697Y025300D03*
X080809Y025300D03*
X079809Y025300D03*
X077809Y025300D03*
X076809Y025300D03*
X076809Y026008D03*
X077809Y026008D03*
X079809Y026008D03*
X080809Y026008D03*
X082697Y026008D03*
X083809Y026008D03*
X085697Y026008D03*
X086697Y026008D03*
X089309Y026008D03*
X090309Y026008D03*
X092309Y026008D03*
X093309Y026008D03*
X095309Y026008D03*
X096309Y026008D03*
X098296Y026008D03*
X099296Y026008D03*
X074099Y026008D03*
X073099Y026008D03*
X073099Y025300D03*
X074099Y025300D03*
X071099Y025300D03*
X070099Y025300D03*
X070099Y026008D03*
X071099Y026008D03*
X068099Y026008D03*
X067099Y026008D03*
X067099Y025300D03*
X068099Y025300D03*
X065099Y025300D03*
X064099Y025300D03*
X064099Y026008D03*
X065099Y026008D03*
X061500Y026008D03*
X060500Y026008D03*
X058500Y026008D03*
X057500Y026008D03*
X055500Y026008D03*
X054500Y026008D03*
X052500Y026008D03*
X051500Y026008D03*
X048902Y026008D03*
X047902Y026008D03*
X045902Y026008D03*
X044902Y026008D03*
X042902Y026008D03*
X041902Y026008D03*
X039902Y026008D03*
X038902Y026008D03*
X038902Y025300D03*
X039902Y025300D03*
X041902Y025300D03*
X042902Y025300D03*
X044902Y025300D03*
X045902Y025300D03*
X047902Y025300D03*
X048902Y025300D03*
X051500Y025300D03*
X052500Y025300D03*
X054500Y025300D03*
X055500Y025300D03*
X057500Y025300D03*
X058500Y025300D03*
X060500Y025300D03*
X061500Y025300D03*
X036304Y025300D03*
X035304Y025300D03*
X035304Y026008D03*
X036304Y026008D03*
X033304Y026008D03*
X032304Y026008D03*
X032304Y025300D03*
X033304Y025300D03*
X030304Y025300D03*
X029304Y025300D03*
X029304Y026008D03*
X030304Y026008D03*
X027304Y026008D03*
X026304Y026008D03*
X026304Y025300D03*
X027304Y025300D03*
X023705Y025550D03*
X022705Y025550D03*
X020705Y025550D03*
X019705Y025550D03*
X017705Y025550D03*
X016705Y025550D03*
X016705Y026258D03*
X017705Y026258D03*
X019705Y026258D03*
X020705Y026258D03*
X022705Y026258D03*
X023705Y026258D03*
X014705Y026258D03*
X013705Y026258D03*
X013705Y025550D03*
X014705Y025550D03*
X011107Y025550D03*
X010107Y025550D03*
X008107Y025550D03*
X007107Y025550D03*
X005107Y025550D03*
X004107Y025550D03*
X002107Y025550D03*
X001107Y025550D03*
X001107Y026258D03*
X002107Y026258D03*
X004107Y026258D03*
X005107Y026258D03*
X007107Y026258D03*
X008107Y026258D03*
X010107Y026258D03*
X011107Y026258D03*
X011107Y019508D03*
X010107Y019508D03*
X008107Y019508D03*
X007107Y019508D03*
X005107Y019508D03*
X004107Y019508D03*
X002107Y019508D03*
X001107Y019508D03*
X001107Y018800D03*
X002107Y018800D03*
X004107Y018800D03*
X005107Y018800D03*
X007107Y018800D03*
X008107Y018800D03*
X010107Y018800D03*
X011107Y018800D03*
X013707Y018800D03*
X014707Y018800D03*
X014707Y019508D03*
X013707Y019508D03*
X016703Y019508D03*
X017703Y019508D03*
X019703Y019508D03*
X020707Y019508D03*
X022707Y019508D03*
X023703Y019508D03*
X023703Y018800D03*
X022707Y018800D03*
X020707Y018800D03*
X019703Y018800D03*
X017703Y018800D03*
X016703Y018800D03*
X026309Y018800D03*
X027309Y018800D03*
X027309Y019508D03*
X026309Y019508D03*
X029309Y019508D03*
X030309Y019508D03*
X030309Y018800D03*
X029309Y018800D03*
X032309Y018800D03*
X033309Y018800D03*
X033309Y019508D03*
X032309Y019508D03*
X035309Y019508D03*
X036309Y019508D03*
X036309Y018800D03*
X035309Y018800D03*
X038912Y018800D03*
X039908Y018800D03*
X041904Y018800D03*
X042900Y018800D03*
X044880Y018800D03*
X045904Y018800D03*
X047908Y018800D03*
X048896Y018800D03*
X051500Y018800D03*
X052500Y018800D03*
X054500Y018800D03*
X055500Y018800D03*
X057500Y018800D03*
X058500Y018800D03*
X060500Y018800D03*
X061500Y018800D03*
X061500Y019508D03*
X060500Y019508D03*
X058500Y019508D03*
X057500Y019508D03*
X055500Y019508D03*
X054500Y019508D03*
X052500Y019508D03*
X051500Y019508D03*
X048896Y019508D03*
X047908Y019508D03*
X045904Y019508D03*
X044880Y019508D03*
X042900Y019508D03*
X041904Y019508D03*
X039908Y019508D03*
X038912Y019508D03*
X064099Y019508D03*
X065099Y019508D03*
X065099Y018800D03*
X064099Y018800D03*
X067099Y018800D03*
X068099Y018800D03*
X068099Y019508D03*
X067099Y019508D03*
X070099Y019508D03*
X071099Y019508D03*
X071099Y018800D03*
X070099Y018800D03*
X073099Y018800D03*
X074099Y018800D03*
X074099Y019508D03*
X073099Y019508D03*
X076309Y019508D03*
X077309Y019508D03*
X077309Y018800D03*
X076309Y018800D03*
X074099Y013508D03*
X073099Y013508D03*
X073099Y012800D03*
X074099Y012800D03*
X071099Y012800D03*
X070099Y012800D03*
X070099Y013508D03*
X071099Y013508D03*
X068099Y013508D03*
X067099Y013508D03*
X067099Y012800D03*
X068099Y012800D03*
X065099Y012800D03*
X064099Y012800D03*
X064099Y013508D03*
X065099Y013508D03*
X061500Y013508D03*
X060500Y013508D03*
X058500Y013508D03*
X057500Y013508D03*
X055500Y013508D03*
X054500Y013508D03*
X052500Y013508D03*
X051500Y013508D03*
X048896Y013508D03*
X047908Y013508D03*
X045904Y013508D03*
X044880Y013508D03*
X042900Y013508D03*
X041904Y013508D03*
X039908Y013508D03*
X038912Y013508D03*
X038912Y012800D03*
X039908Y012800D03*
X041904Y012800D03*
X042900Y012800D03*
X044880Y012800D03*
X045904Y012800D03*
X047908Y012800D03*
X048896Y012800D03*
X051500Y012800D03*
X052500Y012800D03*
X054500Y012800D03*
X055500Y012800D03*
X057500Y012800D03*
X058500Y012800D03*
X060500Y012800D03*
X061500Y012800D03*
X036309Y012800D03*
X035309Y012800D03*
X035309Y013508D03*
X036309Y013508D03*
X033309Y013508D03*
X032309Y013508D03*
X032309Y012800D03*
X033309Y012800D03*
X030309Y012800D03*
X029309Y012800D03*
X029309Y013508D03*
X030309Y013508D03*
X027309Y013508D03*
X026309Y013508D03*
X026309Y012800D03*
X027309Y012800D03*
X023703Y012800D03*
X022707Y012800D03*
X020707Y012800D03*
X019703Y012800D03*
X017703Y012800D03*
X016703Y012800D03*
X016703Y013508D03*
X017703Y013508D03*
X019703Y013508D03*
X020707Y013508D03*
X022707Y013508D03*
X023703Y013508D03*
X014707Y013508D03*
X013707Y013508D03*
X013707Y012800D03*
X014707Y012800D03*
X011107Y012800D03*
X010107Y012800D03*
X008107Y012800D03*
X007107Y012800D03*
X005107Y012800D03*
X004107Y012800D03*
X002107Y012800D03*
X001107Y012800D03*
X001107Y013508D03*
X002107Y013508D03*
X004107Y013508D03*
X005107Y013508D03*
X007107Y013508D03*
X008107Y013508D03*
X010107Y013508D03*
X011107Y013508D03*
M02*
