G75*
G70*
%OFA0B0*%
%FSLAX24Y24*%
%IPPOS*%
%LPD*%
%AMOC8*
5,1,8,0,0,1.08239X$1,22.5*
%
%ADD10C,0.1655*%
%ADD11R,0.0237X0.0749*%
%ADD12R,0.0749X0.0237*%
%ADD13R,0.0595X0.0595*%
%ADD14R,0.0552X0.0395*%
%ADD15R,0.0880X0.0340*%
%ADD16R,0.0395X0.0552*%
%ADD17OC8,0.0680*%
%ADD18C,0.0416*%
D10*
X002150Y002158D03*
X048650Y002158D03*
X052650Y002158D03*
X099150Y002158D03*
X103150Y002158D03*
X149650Y002158D03*
X149650Y030150D03*
X103150Y030150D03*
X099150Y030150D03*
X052650Y030150D03*
X048650Y030150D03*
X002150Y030150D03*
D11*
X009483Y025544D03*
X009876Y025544D03*
X010270Y025544D03*
X010664Y025544D03*
X011057Y025544D03*
X011451Y025544D03*
X011845Y025544D03*
X012239Y025544D03*
X012632Y025544D03*
X013026Y025544D03*
X013420Y025544D03*
X013813Y025544D03*
X014207Y025544D03*
X037514Y025544D03*
X037908Y025544D03*
X038302Y025544D03*
X038695Y025544D03*
X039089Y025544D03*
X039483Y025544D03*
X039876Y025544D03*
X040270Y025544D03*
X040664Y025544D03*
X041057Y025544D03*
X041451Y025544D03*
X041845Y025544D03*
X042239Y025544D03*
X059876Y025544D03*
X060270Y025544D03*
X060664Y025544D03*
X061057Y025544D03*
X061451Y025544D03*
X061845Y025544D03*
X062239Y025544D03*
X062632Y025544D03*
X063026Y025544D03*
X063420Y025544D03*
X063813Y025544D03*
X064207Y025544D03*
X064601Y025544D03*
X087908Y025544D03*
X088302Y025544D03*
X088695Y025544D03*
X089089Y025544D03*
X089483Y025544D03*
X089876Y025544D03*
X090270Y025544D03*
X090664Y025544D03*
X091057Y025544D03*
X091451Y025544D03*
X091845Y025544D03*
X092239Y025544D03*
X092632Y025544D03*
X110270Y025544D03*
X110664Y025544D03*
X111057Y025544D03*
X111451Y025544D03*
X111845Y025544D03*
X112239Y025544D03*
X112632Y025544D03*
X113026Y025544D03*
X113420Y025544D03*
X113813Y025544D03*
X114207Y025544D03*
X114601Y025544D03*
X114994Y025544D03*
X138302Y025544D03*
X138695Y025544D03*
X139089Y025544D03*
X139483Y025544D03*
X139876Y025544D03*
X140270Y025544D03*
X140664Y025544D03*
X141057Y025544D03*
X141451Y025544D03*
X141845Y025544D03*
X142239Y025544D03*
X142632Y025544D03*
X143026Y025544D03*
X143026Y019363D03*
X142632Y019363D03*
X142239Y019363D03*
X141845Y019363D03*
X141451Y019363D03*
X141057Y019363D03*
X140664Y019363D03*
X140270Y019363D03*
X139876Y019363D03*
X139483Y019363D03*
X139089Y019363D03*
X138695Y019363D03*
X138302Y019363D03*
X114994Y019363D03*
X114601Y019363D03*
X114207Y019363D03*
X113813Y019363D03*
X113420Y019363D03*
X113026Y019363D03*
X112632Y019363D03*
X112239Y019363D03*
X111845Y019363D03*
X111451Y019363D03*
X111057Y019363D03*
X110664Y019363D03*
X110270Y019363D03*
X092632Y019363D03*
X092239Y019363D03*
X091845Y019363D03*
X091451Y019363D03*
X091057Y019363D03*
X090664Y019363D03*
X090270Y019363D03*
X089876Y019363D03*
X089483Y019363D03*
X089089Y019363D03*
X088695Y019363D03*
X088302Y019363D03*
X087908Y019363D03*
X064601Y019363D03*
X064207Y019363D03*
X063813Y019363D03*
X063420Y019363D03*
X063026Y019363D03*
X062632Y019363D03*
X062239Y019363D03*
X061845Y019363D03*
X061451Y019363D03*
X061057Y019363D03*
X060664Y019363D03*
X060270Y019363D03*
X059876Y019363D03*
X042239Y019363D03*
X041845Y019363D03*
X041451Y019363D03*
X041057Y019363D03*
X040664Y019363D03*
X040270Y019363D03*
X039876Y019363D03*
X039483Y019363D03*
X039089Y019363D03*
X038695Y019363D03*
X038302Y019363D03*
X037908Y019363D03*
X037514Y019363D03*
X014207Y019363D03*
X013813Y019363D03*
X013420Y019363D03*
X013026Y019363D03*
X012632Y019363D03*
X012239Y019363D03*
X011845Y019363D03*
X011451Y019363D03*
X011057Y019363D03*
X010664Y019363D03*
X010270Y019363D03*
X009876Y019363D03*
X009483Y019363D03*
X020286Y012945D03*
X020680Y012945D03*
X021073Y012945D03*
X021467Y012945D03*
X021861Y012945D03*
X022254Y012945D03*
X022648Y012945D03*
X023042Y012945D03*
X023435Y012945D03*
X023829Y012945D03*
X024223Y012945D03*
X024617Y012945D03*
X025010Y012945D03*
X031774Y012945D03*
X032168Y012945D03*
X032561Y012945D03*
X032955Y012945D03*
X033349Y012945D03*
X033743Y012945D03*
X034136Y012945D03*
X034530Y012945D03*
X034924Y012945D03*
X035317Y012945D03*
X035711Y012945D03*
X036105Y012945D03*
X036498Y012945D03*
X066180Y012945D03*
X066573Y012945D03*
X066967Y012945D03*
X067361Y012945D03*
X067754Y012945D03*
X068148Y012945D03*
X068542Y012945D03*
X068935Y012945D03*
X069329Y012945D03*
X069723Y012945D03*
X070117Y012945D03*
X070510Y012945D03*
X070904Y012945D03*
X081668Y012945D03*
X082061Y012945D03*
X082455Y012945D03*
X082849Y012945D03*
X083243Y012945D03*
X083636Y012945D03*
X084030Y012945D03*
X084424Y012945D03*
X084817Y012945D03*
X085211Y012945D03*
X085605Y012945D03*
X085998Y012945D03*
X086392Y012945D03*
X086392Y006764D03*
X085998Y006764D03*
X085605Y006764D03*
X085211Y006764D03*
X084817Y006764D03*
X084424Y006764D03*
X084030Y006764D03*
X083636Y006764D03*
X083243Y006764D03*
X082849Y006764D03*
X082455Y006764D03*
X082061Y006764D03*
X081668Y006764D03*
X070904Y006764D03*
X070510Y006764D03*
X070117Y006764D03*
X069723Y006764D03*
X069329Y006764D03*
X068935Y006764D03*
X068542Y006764D03*
X068148Y006764D03*
X067754Y006764D03*
X067361Y006764D03*
X066967Y006764D03*
X066573Y006764D03*
X066180Y006764D03*
X036498Y006764D03*
X036105Y006764D03*
X035711Y006764D03*
X035317Y006764D03*
X034924Y006764D03*
X034530Y006764D03*
X034136Y006764D03*
X033743Y006764D03*
X033349Y006764D03*
X032955Y006764D03*
X032561Y006764D03*
X032168Y006764D03*
X031774Y006764D03*
X025010Y006764D03*
X024617Y006764D03*
X024223Y006764D03*
X023829Y006764D03*
X023435Y006764D03*
X023042Y006764D03*
X022648Y006764D03*
X022254Y006764D03*
X021861Y006764D03*
X021467Y006764D03*
X021073Y006764D03*
X020680Y006764D03*
X020286Y006764D03*
X116573Y006764D03*
X116967Y006764D03*
X117361Y006764D03*
X117754Y006764D03*
X118148Y006764D03*
X118542Y006764D03*
X118935Y006764D03*
X119329Y006764D03*
X119723Y006764D03*
X120117Y006764D03*
X120510Y006764D03*
X120904Y006764D03*
X121298Y006764D03*
X132061Y006764D03*
X132455Y006764D03*
X132849Y006764D03*
X133243Y006764D03*
X133636Y006764D03*
X134030Y006764D03*
X134424Y006764D03*
X134817Y006764D03*
X135211Y006764D03*
X135605Y006764D03*
X135998Y006764D03*
X136392Y006764D03*
X136786Y006764D03*
X136786Y012945D03*
X136392Y012945D03*
X135998Y012945D03*
X135605Y012945D03*
X135211Y012945D03*
X134817Y012945D03*
X134424Y012945D03*
X134030Y012945D03*
X133636Y012945D03*
X133243Y012945D03*
X132849Y012945D03*
X132455Y012945D03*
X132061Y012945D03*
X121298Y012945D03*
X120904Y012945D03*
X120510Y012945D03*
X120117Y012945D03*
X119723Y012945D03*
X119329Y012945D03*
X118935Y012945D03*
X118542Y012945D03*
X118148Y012945D03*
X117754Y012945D03*
X117361Y012945D03*
X116967Y012945D03*
X116573Y012945D03*
D12*
X115845Y012217D03*
X115845Y011823D03*
X115845Y011430D03*
X115845Y011036D03*
X115845Y010642D03*
X115845Y010248D03*
X115845Y009855D03*
X115845Y009461D03*
X115845Y009067D03*
X115845Y008674D03*
X115845Y008280D03*
X115845Y007886D03*
X115845Y007493D03*
X122026Y007493D03*
X122026Y007886D03*
X122026Y008280D03*
X122026Y008674D03*
X122026Y009067D03*
X122026Y009461D03*
X122026Y009855D03*
X122026Y010248D03*
X122026Y010642D03*
X122026Y011036D03*
X122026Y011430D03*
X122026Y011823D03*
X122026Y012217D03*
X131333Y012217D03*
X131333Y011823D03*
X131333Y011430D03*
X131333Y011036D03*
X131333Y010642D03*
X131333Y010248D03*
X131333Y009855D03*
X131333Y009461D03*
X131333Y009067D03*
X131333Y008674D03*
X131333Y008280D03*
X131333Y007886D03*
X131333Y007493D03*
X137514Y007493D03*
X137514Y007886D03*
X137514Y008280D03*
X137514Y008674D03*
X137514Y009067D03*
X137514Y009461D03*
X137514Y009855D03*
X137514Y010248D03*
X137514Y010642D03*
X137514Y011036D03*
X137514Y011430D03*
X137514Y011823D03*
X137514Y012217D03*
X137573Y020091D03*
X137573Y020485D03*
X137573Y020878D03*
X137573Y021272D03*
X137573Y021666D03*
X137573Y022059D03*
X137573Y022453D03*
X137573Y022847D03*
X137573Y023241D03*
X137573Y023634D03*
X137573Y024028D03*
X137573Y024422D03*
X137573Y024815D03*
X143754Y024815D03*
X143754Y024422D03*
X143754Y024028D03*
X143754Y023634D03*
X143754Y023241D03*
X143754Y022847D03*
X143754Y022453D03*
X143754Y022059D03*
X143754Y021666D03*
X143754Y021272D03*
X143754Y020878D03*
X143754Y020485D03*
X143754Y020091D03*
X115723Y020091D03*
X115723Y020485D03*
X115723Y020878D03*
X115723Y021272D03*
X115723Y021666D03*
X115723Y022059D03*
X115723Y022453D03*
X115723Y022847D03*
X115723Y023241D03*
X115723Y023634D03*
X115723Y024028D03*
X115723Y024422D03*
X115723Y024815D03*
X109542Y024815D03*
X109542Y024422D03*
X109542Y024028D03*
X109542Y023634D03*
X109542Y023241D03*
X109542Y022847D03*
X109542Y022453D03*
X109542Y022059D03*
X109542Y021666D03*
X109542Y021272D03*
X109542Y020878D03*
X109542Y020485D03*
X109542Y020091D03*
X093361Y020091D03*
X093361Y020485D03*
X093361Y020878D03*
X093361Y021272D03*
X093361Y021666D03*
X093361Y022059D03*
X093361Y022453D03*
X093361Y022847D03*
X093361Y023241D03*
X093361Y023634D03*
X093361Y024028D03*
X093361Y024422D03*
X093361Y024815D03*
X087180Y024815D03*
X087180Y024422D03*
X087180Y024028D03*
X087180Y023634D03*
X087180Y023241D03*
X087180Y022847D03*
X087180Y022453D03*
X087180Y022059D03*
X087180Y021666D03*
X087180Y021272D03*
X087180Y020878D03*
X087180Y020485D03*
X087180Y020091D03*
X065329Y020091D03*
X065329Y020485D03*
X065329Y020878D03*
X065329Y021272D03*
X065329Y021666D03*
X065329Y022059D03*
X065329Y022453D03*
X065329Y022847D03*
X065329Y023241D03*
X065329Y023634D03*
X065329Y024028D03*
X065329Y024422D03*
X065329Y024815D03*
X059148Y024815D03*
X059148Y024422D03*
X059148Y024028D03*
X059148Y023634D03*
X059148Y023241D03*
X059148Y022847D03*
X059148Y022453D03*
X059148Y022059D03*
X059148Y021666D03*
X059148Y021272D03*
X059148Y020878D03*
X059148Y020485D03*
X059148Y020091D03*
X042967Y020091D03*
X042967Y020485D03*
X042967Y020878D03*
X042967Y021272D03*
X042967Y021666D03*
X042967Y022059D03*
X042967Y022453D03*
X042967Y022847D03*
X042967Y023241D03*
X042967Y023634D03*
X042967Y024028D03*
X042967Y024422D03*
X042967Y024815D03*
X036786Y024815D03*
X036786Y024422D03*
X036786Y024028D03*
X036786Y023634D03*
X036786Y023241D03*
X036786Y022847D03*
X036786Y022453D03*
X036786Y022059D03*
X036786Y021666D03*
X036786Y021272D03*
X036786Y020878D03*
X036786Y020485D03*
X036786Y020091D03*
X014935Y020091D03*
X014935Y020485D03*
X014935Y020878D03*
X014935Y021272D03*
X014935Y021666D03*
X014935Y022059D03*
X014935Y022453D03*
X014935Y022847D03*
X014935Y023241D03*
X014935Y023634D03*
X014935Y024028D03*
X014935Y024422D03*
X014935Y024815D03*
X008754Y024815D03*
X008754Y024422D03*
X008754Y024028D03*
X008754Y023634D03*
X008754Y023241D03*
X008754Y022847D03*
X008754Y022453D03*
X008754Y022059D03*
X008754Y021666D03*
X008754Y021272D03*
X008754Y020878D03*
X008754Y020485D03*
X008754Y020091D03*
X019557Y012217D03*
X019557Y011823D03*
X019557Y011430D03*
X019557Y011036D03*
X019557Y010642D03*
X019557Y010248D03*
X019557Y009855D03*
X019557Y009461D03*
X019557Y009067D03*
X019557Y008674D03*
X019557Y008280D03*
X019557Y007886D03*
X019557Y007493D03*
X025739Y007493D03*
X025739Y007886D03*
X025739Y008280D03*
X025739Y008674D03*
X025739Y009067D03*
X025739Y009461D03*
X025739Y009855D03*
X025739Y010248D03*
X025739Y010642D03*
X025739Y011036D03*
X025739Y011430D03*
X025739Y011823D03*
X025739Y012217D03*
X031046Y012217D03*
X031046Y011823D03*
X031046Y011430D03*
X031046Y011036D03*
X031046Y010642D03*
X031046Y010248D03*
X031046Y009855D03*
X031046Y009461D03*
X031046Y009067D03*
X031046Y008674D03*
X031046Y008280D03*
X031046Y007886D03*
X031046Y007493D03*
X037227Y007493D03*
X037227Y007886D03*
X037227Y008280D03*
X037227Y008674D03*
X037227Y009067D03*
X037227Y009461D03*
X037227Y009855D03*
X037227Y010248D03*
X037227Y010642D03*
X037227Y011036D03*
X037227Y011430D03*
X037227Y011823D03*
X037227Y012217D03*
X065451Y012217D03*
X065451Y011823D03*
X065451Y011430D03*
X065451Y011036D03*
X065451Y010642D03*
X065451Y010248D03*
X065451Y009855D03*
X065451Y009461D03*
X065451Y009067D03*
X065451Y008674D03*
X065451Y008280D03*
X065451Y007886D03*
X065451Y007493D03*
X071632Y007493D03*
X071632Y007886D03*
X071632Y008280D03*
X071632Y008674D03*
X071632Y009067D03*
X071632Y009461D03*
X071632Y009855D03*
X071632Y010248D03*
X071632Y010642D03*
X071632Y011036D03*
X071632Y011430D03*
X071632Y011823D03*
X071632Y012217D03*
X080939Y012217D03*
X080939Y011823D03*
X080939Y011430D03*
X080939Y011036D03*
X080939Y010642D03*
X080939Y010248D03*
X080939Y009855D03*
X080939Y009461D03*
X080939Y009067D03*
X080939Y008674D03*
X080939Y008280D03*
X080939Y007886D03*
X080939Y007493D03*
X087120Y007493D03*
X087120Y007886D03*
X087120Y008280D03*
X087120Y008674D03*
X087120Y009067D03*
X087120Y009461D03*
X087120Y009855D03*
X087120Y010248D03*
X087120Y010642D03*
X087120Y011036D03*
X087120Y011430D03*
X087120Y011823D03*
X087120Y012217D03*
D13*
X086697Y014579D03*
X085697Y014579D03*
X084697Y014579D03*
X083697Y014579D03*
X082697Y014579D03*
X081697Y014579D03*
X080697Y014579D03*
X079697Y014579D03*
X078697Y014579D03*
X077697Y014579D03*
X076697Y014579D03*
X075099Y014579D03*
X074099Y014579D03*
X073099Y014579D03*
X072099Y014579D03*
X071099Y014579D03*
X070099Y014579D03*
X069099Y014579D03*
X068099Y014579D03*
X067099Y014579D03*
X066099Y014579D03*
X065099Y014579D03*
X064099Y014579D03*
X062500Y014579D03*
X061500Y014579D03*
X060500Y014579D03*
X059500Y014579D03*
X058500Y014579D03*
X057500Y014579D03*
X056500Y014579D03*
X055500Y014579D03*
X054500Y014579D03*
X053500Y014579D03*
X052500Y014579D03*
X051500Y014579D03*
X049902Y014579D03*
X048902Y014579D03*
X047902Y014579D03*
X046902Y014579D03*
X045902Y014579D03*
X044902Y014579D03*
X043902Y014579D03*
X042902Y014579D03*
X041902Y014579D03*
X040902Y014579D03*
X039902Y014579D03*
X038902Y014579D03*
X037304Y014579D03*
X036304Y014579D03*
X035304Y014579D03*
X034304Y014579D03*
X033304Y014579D03*
X032304Y014579D03*
X031304Y014579D03*
X030304Y014579D03*
X029304Y014579D03*
X028304Y014579D03*
X027304Y014579D03*
X026304Y014579D03*
X024705Y014579D03*
X023705Y014579D03*
X022705Y014579D03*
X021705Y014579D03*
X020705Y014579D03*
X019705Y014579D03*
X018705Y014579D03*
X017705Y014579D03*
X016705Y014579D03*
X015705Y014579D03*
X014705Y014579D03*
X013705Y014579D03*
X012107Y014579D03*
X011107Y014579D03*
X010107Y014579D03*
X009107Y014579D03*
X008107Y014579D03*
X007107Y014579D03*
X006107Y014579D03*
X005107Y014579D03*
X004107Y014579D03*
X003107Y014579D03*
X002107Y014579D03*
X001107Y014579D03*
X001107Y017729D03*
X002107Y017729D03*
X003107Y017729D03*
X004107Y017729D03*
X005107Y017729D03*
X006107Y017729D03*
X007107Y017729D03*
X008107Y017729D03*
X009107Y017729D03*
X010107Y017729D03*
X011107Y017729D03*
X012107Y017729D03*
X013705Y017729D03*
X014705Y017729D03*
X015705Y017729D03*
X016705Y017729D03*
X017705Y017729D03*
X018705Y017729D03*
X019705Y017729D03*
X020705Y017729D03*
X021705Y017729D03*
X022705Y017729D03*
X023705Y017729D03*
X024705Y017729D03*
X026304Y017729D03*
X027304Y017729D03*
X028304Y017729D03*
X029304Y017729D03*
X030304Y017729D03*
X031304Y017729D03*
X032304Y017729D03*
X033304Y017729D03*
X034304Y017729D03*
X035304Y017729D03*
X036304Y017729D03*
X037304Y017729D03*
X038902Y017729D03*
X039902Y017729D03*
X040902Y017729D03*
X041902Y017729D03*
X042902Y017729D03*
X043902Y017729D03*
X044902Y017729D03*
X045902Y017729D03*
X046902Y017729D03*
X047902Y017729D03*
X048902Y017729D03*
X049902Y017729D03*
X051500Y017729D03*
X052500Y017729D03*
X053500Y017729D03*
X054500Y017729D03*
X055500Y017729D03*
X056500Y017729D03*
X057500Y017729D03*
X058500Y017729D03*
X059500Y017729D03*
X060500Y017729D03*
X061500Y017729D03*
X062500Y017729D03*
X064099Y017729D03*
X065099Y017729D03*
X066099Y017729D03*
X067099Y017729D03*
X068099Y017729D03*
X069099Y017729D03*
X070099Y017729D03*
X071099Y017729D03*
X072099Y017729D03*
X073099Y017729D03*
X074099Y017729D03*
X075099Y017729D03*
X076697Y017729D03*
X077697Y017729D03*
X078697Y017729D03*
X079697Y017729D03*
X080697Y017729D03*
X081697Y017729D03*
X082697Y017729D03*
X083697Y017729D03*
X084697Y017729D03*
X085697Y017729D03*
X086697Y017729D03*
X087697Y017729D03*
X089296Y017729D03*
X090296Y017729D03*
X091296Y017729D03*
X092296Y017729D03*
X093296Y017729D03*
X094296Y017729D03*
X095296Y017729D03*
X096296Y017729D03*
X097296Y017729D03*
X098296Y017729D03*
X099296Y017729D03*
X100296Y017729D03*
X101894Y017729D03*
X102894Y017729D03*
X103894Y017729D03*
X104894Y017729D03*
X105894Y017729D03*
X106894Y017729D03*
X107894Y017729D03*
X108894Y017729D03*
X109894Y017729D03*
X110894Y017729D03*
X111894Y017729D03*
X112894Y017729D03*
X114493Y017729D03*
X115493Y017729D03*
X116493Y017729D03*
X117493Y017729D03*
X118493Y017729D03*
X119493Y017729D03*
X120493Y017729D03*
X121493Y017729D03*
X122493Y017729D03*
X123493Y017729D03*
X124493Y017729D03*
X125493Y017729D03*
X127091Y017729D03*
X128091Y017729D03*
X129091Y017729D03*
X130091Y017729D03*
X131091Y017729D03*
X132091Y017729D03*
X133091Y017729D03*
X134091Y017729D03*
X135091Y017729D03*
X136091Y017729D03*
X137091Y017729D03*
X138091Y017729D03*
X139689Y017729D03*
X140689Y017729D03*
X141689Y017729D03*
X142689Y017729D03*
X143689Y017729D03*
X144689Y017729D03*
X145689Y017729D03*
X146689Y017729D03*
X147689Y017729D03*
X148689Y017729D03*
X149689Y017729D03*
X150689Y017729D03*
X150689Y014579D03*
X149689Y014579D03*
X148689Y014579D03*
X147689Y014579D03*
X146689Y014579D03*
X145689Y014579D03*
X144689Y014579D03*
X143689Y014579D03*
X142689Y014579D03*
X141689Y014579D03*
X140689Y014579D03*
X139689Y014579D03*
X138091Y014579D03*
X137091Y014579D03*
X136091Y014579D03*
X135091Y014579D03*
X134091Y014579D03*
X133091Y014579D03*
X132091Y014579D03*
X131091Y014579D03*
X130091Y014579D03*
X129091Y014579D03*
X128091Y014579D03*
X127091Y014579D03*
X125493Y014579D03*
X124493Y014579D03*
X123493Y014579D03*
X122493Y014579D03*
X121493Y014579D03*
X120493Y014579D03*
X119493Y014579D03*
X118493Y014579D03*
X117493Y014579D03*
X116493Y014579D03*
X115493Y014579D03*
X114493Y014579D03*
X112894Y014579D03*
X111894Y014579D03*
X110894Y014579D03*
X109894Y014579D03*
X108894Y014579D03*
X107894Y014579D03*
X106894Y014579D03*
X105894Y014579D03*
X104894Y014579D03*
X103894Y014579D03*
X102894Y014579D03*
X101894Y014579D03*
X100296Y014579D03*
X099296Y014579D03*
X098296Y014579D03*
X097296Y014579D03*
X096296Y014579D03*
X095296Y014579D03*
X094296Y014579D03*
X093296Y014579D03*
X092296Y014579D03*
X091296Y014579D03*
X090296Y014579D03*
X089296Y014579D03*
X087697Y014579D03*
X087697Y005130D03*
X086697Y005130D03*
X085697Y005130D03*
X084697Y005130D03*
X083697Y005130D03*
X082697Y005130D03*
X081697Y005130D03*
X080697Y005130D03*
X079697Y005130D03*
X078697Y005130D03*
X077697Y005130D03*
X076697Y005130D03*
X075099Y005130D03*
X074099Y005130D03*
X073099Y005130D03*
X072099Y005130D03*
X071099Y005130D03*
X070099Y005130D03*
X069099Y005130D03*
X068099Y005130D03*
X067099Y005130D03*
X066099Y005130D03*
X065099Y005130D03*
X064099Y005130D03*
X062500Y005130D03*
X061500Y005130D03*
X060500Y005130D03*
X059500Y005130D03*
X058500Y005130D03*
X057500Y005130D03*
X056500Y005130D03*
X055500Y005130D03*
X054500Y005130D03*
X053500Y005130D03*
X052500Y005130D03*
X051500Y005130D03*
X049902Y005130D03*
X048902Y005130D03*
X047902Y005130D03*
X046902Y005130D03*
X045902Y005130D03*
X044902Y005130D03*
X043902Y005130D03*
X042902Y005130D03*
X041902Y005130D03*
X040902Y005130D03*
X039902Y005130D03*
X038902Y005130D03*
X037304Y005130D03*
X036304Y005130D03*
X035304Y005130D03*
X034304Y005130D03*
X033304Y005130D03*
X032304Y005130D03*
X031304Y005130D03*
X030304Y005130D03*
X029304Y005130D03*
X028304Y005130D03*
X027304Y005130D03*
X026304Y005130D03*
X024705Y005130D03*
X023705Y005130D03*
X022705Y005130D03*
X021705Y005130D03*
X020705Y005130D03*
X019705Y005130D03*
X018705Y005130D03*
X017705Y005130D03*
X016705Y005130D03*
X015705Y005130D03*
X014705Y005130D03*
X013705Y005130D03*
X012107Y005130D03*
X011107Y005130D03*
X010107Y005130D03*
X009107Y005130D03*
X008107Y005130D03*
X007107Y005130D03*
X006107Y005130D03*
X005107Y005130D03*
X004107Y005130D03*
X003107Y005130D03*
X002107Y005130D03*
X001107Y005130D03*
X089296Y005130D03*
X090296Y005130D03*
X091296Y005130D03*
X092296Y005130D03*
X093296Y005130D03*
X094296Y005130D03*
X095296Y005130D03*
X096296Y005130D03*
X097296Y005130D03*
X098296Y005130D03*
X099296Y005130D03*
X100296Y005130D03*
X101894Y005130D03*
X102894Y005130D03*
X103894Y005130D03*
X104894Y005130D03*
X105894Y005130D03*
X106894Y005130D03*
X107894Y005130D03*
X108894Y005130D03*
X109894Y005130D03*
X110894Y005130D03*
X111894Y005130D03*
X112894Y005130D03*
X114493Y005130D03*
X115493Y005130D03*
X116493Y005130D03*
X117493Y005130D03*
X118493Y005130D03*
X119493Y005130D03*
X120493Y005130D03*
X121493Y005130D03*
X122493Y005130D03*
X123493Y005130D03*
X124493Y005130D03*
X125493Y005130D03*
X127091Y005130D03*
X128091Y005130D03*
X129091Y005130D03*
X130091Y005130D03*
X131091Y005130D03*
X132091Y005130D03*
X133091Y005130D03*
X134091Y005130D03*
X135091Y005130D03*
X136091Y005130D03*
X137091Y005130D03*
X138091Y005130D03*
X139689Y005130D03*
X140689Y005130D03*
X141689Y005130D03*
X142689Y005130D03*
X143689Y005130D03*
X144689Y005130D03*
X145689Y005130D03*
X146689Y005130D03*
X147689Y005130D03*
X148689Y005130D03*
X149689Y005130D03*
X150689Y005130D03*
X150689Y027178D03*
X149689Y027178D03*
X148689Y027178D03*
X147689Y027178D03*
X146689Y027178D03*
X145689Y027178D03*
X144689Y027178D03*
X143689Y027178D03*
X142689Y027178D03*
X141689Y027178D03*
X140689Y027178D03*
X139689Y027178D03*
X138091Y027178D03*
X137091Y027178D03*
X136091Y027178D03*
X135091Y027178D03*
X134091Y027178D03*
X133091Y027178D03*
X132091Y027178D03*
X131091Y027178D03*
X130091Y027178D03*
X129091Y027178D03*
X128091Y027178D03*
X127091Y027178D03*
X125493Y027178D03*
X124493Y027178D03*
X123493Y027178D03*
X122493Y027178D03*
X121493Y027178D03*
X120493Y027178D03*
X119493Y027178D03*
X118493Y027178D03*
X117493Y027178D03*
X116493Y027178D03*
X115493Y027178D03*
X114493Y027178D03*
X112894Y027178D03*
X111894Y027178D03*
X110894Y027178D03*
X109894Y027178D03*
X108894Y027178D03*
X107894Y027178D03*
X106894Y027178D03*
X105894Y027178D03*
X104894Y027178D03*
X103894Y027178D03*
X102894Y027178D03*
X101894Y027178D03*
X100296Y027178D03*
X099296Y027178D03*
X098296Y027178D03*
X097296Y027178D03*
X096296Y027178D03*
X095296Y027178D03*
X094296Y027178D03*
X093296Y027178D03*
X092296Y027178D03*
X091296Y027178D03*
X090296Y027178D03*
X089296Y027178D03*
X087697Y027178D03*
X086697Y027178D03*
X085697Y027178D03*
X084697Y027178D03*
X083697Y027178D03*
X082697Y027178D03*
X081697Y027178D03*
X080697Y027178D03*
X079697Y027178D03*
X078697Y027178D03*
X077697Y027178D03*
X076697Y027178D03*
X075099Y027178D03*
X074099Y027178D03*
X073099Y027178D03*
X072099Y027178D03*
X071099Y027178D03*
X070099Y027178D03*
X069099Y027178D03*
X068099Y027178D03*
X067099Y027178D03*
X066099Y027178D03*
X065099Y027178D03*
X064099Y027178D03*
X062500Y027178D03*
X061500Y027178D03*
X060500Y027178D03*
X059500Y027178D03*
X058500Y027178D03*
X057500Y027178D03*
X056500Y027178D03*
X055500Y027178D03*
X054500Y027178D03*
X053500Y027178D03*
X052500Y027178D03*
X051500Y027178D03*
X049902Y027178D03*
X048902Y027178D03*
X047902Y027178D03*
X046902Y027178D03*
X045902Y027178D03*
X044902Y027178D03*
X043902Y027178D03*
X042902Y027178D03*
X041902Y027178D03*
X040902Y027178D03*
X039902Y027178D03*
X038902Y027178D03*
X037304Y027178D03*
X036304Y027178D03*
X035304Y027178D03*
X034304Y027178D03*
X033304Y027178D03*
X032304Y027178D03*
X031304Y027178D03*
X030304Y027178D03*
X029304Y027178D03*
X028304Y027178D03*
X027304Y027178D03*
X026304Y027178D03*
X024705Y027178D03*
X023705Y027178D03*
X022705Y027178D03*
X021705Y027178D03*
X020705Y027178D03*
X019705Y027178D03*
X018705Y027178D03*
X017705Y027178D03*
X016705Y027178D03*
X015705Y027178D03*
X014705Y027178D03*
X013705Y027178D03*
X012107Y027178D03*
X011107Y027178D03*
X010107Y027178D03*
X009107Y027178D03*
X008107Y027178D03*
X007107Y027178D03*
X006107Y027178D03*
X005107Y027178D03*
X004107Y027178D03*
X003107Y027178D03*
X002107Y027178D03*
X001107Y027178D03*
D14*
X007231Y023004D03*
X007231Y022296D03*
X035302Y022111D03*
X035302Y022819D03*
X057809Y022512D03*
X057809Y021804D03*
X085754Y022122D03*
X085754Y022831D03*
X107809Y022800D03*
X107809Y023508D03*
X135809Y023508D03*
X135809Y022800D03*
X129309Y011008D03*
X129309Y010300D03*
X113809Y010300D03*
X113809Y011008D03*
X078746Y011008D03*
X078746Y010300D03*
X063309Y010300D03*
X063309Y011008D03*
X028648Y011008D03*
X028648Y010300D03*
X017699Y010300D03*
X017699Y011008D03*
X003376Y010876D03*
X003376Y011585D03*
D15*
X020989Y020953D03*
X020989Y021453D03*
X020989Y021953D03*
X020989Y022453D03*
X020989Y022953D03*
X020989Y023453D03*
X020989Y023953D03*
X023409Y023953D03*
X023409Y023453D03*
X023409Y022953D03*
X023409Y022453D03*
X023409Y021953D03*
X023409Y021453D03*
X023409Y020953D03*
X028981Y020953D03*
X031401Y020953D03*
X031401Y021453D03*
X031401Y021953D03*
X028981Y021953D03*
X028981Y021453D03*
X028981Y022453D03*
X031401Y022453D03*
X031401Y022953D03*
X031401Y023453D03*
X028981Y023453D03*
X028981Y022953D03*
X028981Y023953D03*
X031401Y023953D03*
X070989Y023953D03*
X070989Y023453D03*
X070989Y022953D03*
X070989Y022453D03*
X070989Y021953D03*
X070989Y021453D03*
X070989Y020953D03*
X073409Y020953D03*
X073409Y021453D03*
X073409Y021953D03*
X073409Y022453D03*
X073409Y022953D03*
X073409Y023453D03*
X073409Y023953D03*
X079021Y023953D03*
X081441Y023953D03*
X081441Y023453D03*
X081441Y022953D03*
X079021Y022953D03*
X079021Y023453D03*
X079021Y022453D03*
X081441Y022453D03*
X081441Y021953D03*
X081441Y021453D03*
X079021Y021453D03*
X079021Y021953D03*
X079021Y020953D03*
X081441Y020953D03*
X121383Y020953D03*
X121383Y021453D03*
X121383Y021953D03*
X121383Y022453D03*
X121383Y022953D03*
X121383Y023453D03*
X121383Y023953D03*
X123803Y023953D03*
X123803Y023453D03*
X123803Y022953D03*
X123803Y022453D03*
X123803Y021953D03*
X123803Y021453D03*
X123803Y020953D03*
X129414Y020953D03*
X131834Y020953D03*
X131834Y021453D03*
X131834Y021953D03*
X129414Y021953D03*
X129414Y021453D03*
X129414Y022453D03*
X131834Y022453D03*
X131834Y022953D03*
X131834Y023453D03*
X129414Y023453D03*
X129414Y022953D03*
X129414Y023953D03*
X131834Y023953D03*
D16*
X133455Y023654D03*
X134164Y023654D03*
X125664Y023654D03*
X124955Y023654D03*
X119664Y024154D03*
X118955Y024154D03*
X118955Y020654D03*
X119664Y020654D03*
X077664Y024154D03*
X076955Y024154D03*
X075664Y024154D03*
X074955Y024154D03*
X069664Y024154D03*
X068955Y024154D03*
X068955Y021154D03*
X069664Y021154D03*
X027164Y024154D03*
X026455Y024154D03*
X025164Y024154D03*
X024455Y024154D03*
X019483Y024154D03*
X018774Y024154D03*
X018774Y021154D03*
X019483Y021154D03*
D17*
X014502Y010882D03*
X013502Y010882D03*
X012502Y010882D03*
X011502Y010882D03*
X010502Y010882D03*
X009502Y010882D03*
X008502Y010882D03*
X007502Y010882D03*
X007502Y009882D03*
X008502Y009882D03*
X009502Y009882D03*
X010502Y009882D03*
X011502Y009882D03*
X012502Y009882D03*
X013502Y009882D03*
X014502Y009882D03*
D18*
X012998Y010226D03*
X015605Y010396D03*
X015963Y010762D03*
X016585Y010093D03*
X018681Y010711D03*
X020624Y011108D03*
X021470Y010589D03*
X023647Y011031D03*
X025099Y011774D03*
X026423Y012275D03*
X027424Y011809D03*
X025388Y012869D03*
X023247Y012031D03*
X018806Y012703D03*
X015625Y012800D03*
X010020Y012345D03*
X004988Y012339D03*
X003427Y012536D03*
X004734Y010671D03*
X003587Y009830D03*
X002680Y009492D03*
X005477Y009040D03*
X005640Y007149D03*
X006408Y007317D03*
X013882Y007690D03*
X020188Y008769D03*
X018668Y009262D03*
X018852Y009828D03*
X022282Y009343D03*
X023023Y009151D03*
X024442Y009654D03*
X023986Y009766D03*
X024617Y009198D03*
X023364Y008490D03*
X023710Y008190D03*
X022180Y008298D03*
X021382Y008294D03*
X021093Y007937D03*
X020365Y007615D03*
X021273Y007397D03*
X022999Y007464D03*
X023974Y007514D03*
X024873Y007610D03*
X025437Y006921D03*
X027838Y006681D03*
X029887Y005915D03*
X026731Y005639D03*
X025436Y006025D03*
X024355Y006135D03*
X031894Y008065D03*
X033141Y008110D03*
X032299Y008558D03*
X033639Y008963D03*
X034640Y008947D03*
X035030Y008684D03*
X035302Y008294D03*
X037939Y008181D03*
X038074Y008637D03*
X038516Y008417D03*
X038071Y007447D03*
X037521Y007109D03*
X035201Y007455D03*
X034106Y006132D03*
X033164Y010289D03*
X034541Y010756D03*
X034997Y010842D03*
X035893Y010734D03*
X036593Y010991D03*
X035285Y011529D03*
X033860Y011937D03*
X032576Y012315D03*
X031405Y012835D03*
X030891Y012717D03*
X028531Y013128D03*
X024940Y013851D03*
X024232Y013789D03*
X018691Y015565D03*
X015023Y015792D03*
X012557Y016013D03*
X013550Y016456D03*
X012576Y016507D03*
X018793Y018382D03*
X015711Y019319D03*
X015884Y019803D03*
X016470Y020290D03*
X016055Y020620D03*
X014029Y019986D03*
X012679Y020208D03*
X012280Y020509D03*
X011881Y020757D03*
X011534Y021105D03*
X013174Y021372D03*
X013732Y021771D03*
X015565Y022092D03*
X015565Y022594D03*
X014197Y022726D03*
X013804Y022447D03*
X011014Y022670D03*
X008125Y021998D03*
X006413Y022933D03*
X005000Y022744D03*
X003483Y022928D03*
X004062Y022182D03*
X003100Y021151D03*
X006813Y020214D03*
X008079Y020906D03*
X007718Y021293D03*
X009823Y021197D03*
X009974Y020306D03*
X005624Y019181D03*
X012459Y018590D03*
X012976Y018587D03*
X024116Y021524D03*
X024703Y021902D03*
X024404Y022299D03*
X022300Y022778D03*
X022015Y022270D03*
X020011Y021902D03*
X017946Y022029D03*
X017141Y022653D03*
X017954Y023115D03*
X015566Y023610D03*
X018283Y023990D03*
X021820Y023307D03*
X023937Y024414D03*
X020502Y025101D03*
X017455Y024929D03*
X015940Y025344D03*
X015252Y025187D03*
X013978Y024909D03*
X013510Y024758D03*
X011074Y024574D03*
X010558Y024560D03*
X010165Y023924D03*
X011644Y026169D03*
X013039Y026326D03*
X015589Y025877D03*
X030084Y023263D03*
X032806Y024543D03*
X037859Y024878D03*
X039190Y024510D03*
X037986Y024180D03*
X040576Y024249D03*
X041511Y024133D03*
X043883Y024401D03*
X045026Y024282D03*
X045452Y024063D03*
X042041Y023285D03*
X041474Y023095D03*
X041012Y022683D03*
X043590Y022455D03*
X043704Y023212D03*
X046577Y021673D03*
X043952Y021234D03*
X041227Y020738D03*
X040204Y020414D03*
X040645Y020210D03*
X039817Y020014D03*
X038860Y020178D03*
X039338Y020680D03*
X039364Y021136D03*
X040092Y021091D03*
X039531Y021813D03*
X037934Y022362D03*
X037866Y022819D03*
X037635Y023233D03*
X035994Y022299D03*
X034506Y022680D03*
X034262Y021961D03*
X035302Y021453D03*
X035860Y021535D03*
X036158Y020877D03*
X033893Y019551D03*
X034724Y019140D03*
X034289Y018564D03*
X042110Y019986D03*
X043431Y019629D03*
X043854Y019878D03*
X043952Y020337D03*
X052850Y021463D03*
X054888Y021981D03*
X055840Y022529D03*
X054198Y022617D03*
X055958Y023768D03*
X056695Y023780D03*
X055119Y024120D03*
X055080Y024650D03*
X057087Y024678D03*
X059818Y024208D03*
X061688Y023870D03*
X063271Y024183D03*
X063584Y024538D03*
X063255Y024877D03*
X062247Y024630D03*
X060936Y024620D03*
X063947Y024142D03*
X064226Y023669D03*
X063340Y023273D03*
X064502Y023230D03*
X066262Y023500D03*
X064615Y024763D03*
X066361Y024972D03*
X065624Y025300D03*
X066384Y025648D03*
X068867Y025539D03*
X069305Y025010D03*
X068857Y024721D03*
X075485Y023255D03*
X074860Y022405D03*
X072317Y022263D03*
X072070Y021552D03*
X072624Y021256D03*
X074381Y020787D03*
X074919Y020843D03*
X075809Y021106D03*
X078101Y021721D03*
X079946Y021455D03*
X080604Y022008D03*
X082223Y022336D03*
X082877Y021385D03*
X082144Y021243D03*
X083819Y020773D03*
X084313Y020623D03*
X088027Y021260D03*
X086248Y021349D03*
X089620Y020996D03*
X090949Y020820D03*
X091074Y020364D03*
X090137Y020245D03*
X089404Y020232D03*
X088081Y020255D03*
X087223Y019498D03*
X091052Y018734D03*
X083329Y019165D03*
X082280Y019508D03*
X081580Y019508D03*
X079287Y020302D03*
X078126Y019911D03*
X068639Y019508D03*
X066427Y019925D03*
X066022Y019505D03*
X065559Y019155D03*
X064057Y020030D03*
X063205Y020384D03*
X061838Y020604D03*
X061817Y020143D03*
X061323Y020246D03*
X059918Y020571D03*
X059931Y021063D03*
X060168Y021522D03*
X061553Y021008D03*
X062547Y021052D03*
X063685Y021647D03*
X060214Y022099D03*
X058301Y022148D03*
X060077Y023301D03*
X068227Y021618D03*
X066895Y020504D03*
X062589Y018680D03*
X059513Y018510D03*
X059063Y019377D03*
X055889Y019925D03*
X056983Y020455D03*
X041943Y024854D03*
X043431Y025326D03*
X046931Y025196D03*
X046468Y026416D03*
X041250Y026181D03*
X037683Y026317D03*
X056179Y025649D03*
X058954Y025649D03*
X059968Y026188D03*
X059928Y026666D03*
X075357Y026549D03*
X076247Y024951D03*
X080315Y024131D03*
X083087Y024756D03*
X088555Y024697D03*
X089020Y024633D03*
X089508Y024155D03*
X089862Y023816D03*
X090229Y023495D03*
X088581Y023774D03*
X088555Y023097D03*
X091406Y022560D03*
X092733Y022115D03*
X091911Y021877D03*
X093989Y021804D03*
X094687Y021235D03*
X094014Y020562D03*
X092336Y020485D03*
X092360Y023521D03*
X094401Y023763D03*
X094891Y023591D03*
X095259Y023269D03*
X093988Y024747D03*
X092386Y024657D03*
X091402Y024667D03*
X093839Y025491D03*
X094770Y025627D03*
X106891Y024689D03*
X108032Y023970D03*
X106817Y023694D03*
X108773Y023015D03*
X110469Y023098D03*
X111262Y022793D03*
X110744Y022355D03*
X110165Y021666D03*
X111651Y021119D03*
X112261Y020869D03*
X112593Y021263D03*
X114037Y021536D03*
X114467Y021756D03*
X114904Y021964D03*
X116408Y021512D03*
X114895Y020536D03*
X114493Y020138D03*
X113781Y020459D03*
X113317Y020397D03*
X111765Y020401D03*
X113002Y020021D03*
X113580Y020001D03*
X116228Y019754D03*
X117032Y020100D03*
X117963Y020313D03*
X118019Y019167D03*
X113729Y018617D03*
X107376Y019508D03*
X107079Y020889D03*
X106804Y021259D03*
X107737Y021597D03*
X106980Y022804D03*
X110285Y024045D03*
X110440Y024623D03*
X111203Y024691D03*
X109836Y025196D03*
X113772Y024312D03*
X114257Y024374D03*
X116348Y024454D03*
X117121Y023963D03*
X116786Y023624D03*
X117939Y023399D03*
X118316Y023125D03*
X118955Y023300D03*
X117950Y024424D03*
X117984Y024972D03*
X116848Y024980D03*
X116347Y024982D03*
X116603Y025706D03*
X119710Y025627D03*
X113833Y023672D03*
X112763Y023359D03*
X122682Y022480D03*
X123113Y021951D03*
X125590Y022294D03*
X124558Y022639D03*
X126499Y022986D03*
X126110Y023746D03*
X131132Y024016D03*
X132652Y024261D03*
X132299Y025246D03*
X137822Y026291D03*
X138845Y026172D03*
X141459Y024906D03*
X142997Y024844D03*
X144383Y024779D03*
X144851Y024599D03*
X145218Y023989D03*
X146136Y023732D03*
X145702Y022782D03*
X144708Y022543D03*
X143077Y022881D03*
X142796Y022500D03*
X141580Y022512D03*
X141061Y022638D03*
X141505Y022981D03*
X141284Y023887D03*
X140322Y024334D03*
X139390Y024727D03*
X138210Y024389D03*
X138524Y023704D03*
X138425Y023016D03*
X139472Y022995D03*
X136949Y022634D03*
X135054Y022075D03*
X132993Y022331D03*
X131003Y021863D03*
X130345Y021951D03*
X127760Y021369D03*
X128030Y022331D03*
X133557Y021355D03*
X132699Y020497D03*
X130561Y019852D03*
X131793Y019181D03*
X137896Y019578D03*
X140486Y019998D03*
X141366Y019988D03*
X142036Y020336D03*
X143126Y020436D03*
X144527Y020608D03*
X145225Y021300D03*
X144735Y021652D03*
X146556Y021647D03*
X142484Y021855D03*
X141968Y021880D03*
X138987Y021142D03*
X140667Y020702D03*
X139078Y020561D03*
X138082Y018298D03*
X131978Y013831D03*
X133204Y012320D03*
X133737Y012129D03*
X134134Y011787D03*
X135264Y012052D03*
X136346Y011935D03*
X138329Y012033D03*
X140168Y012472D03*
X141565Y012472D03*
X137630Y012646D03*
X138367Y011100D03*
X134774Y010142D03*
X134941Y009682D03*
X136558Y009308D03*
X136874Y009654D03*
X138139Y009396D03*
X134656Y008618D03*
X134243Y008967D03*
X132180Y009053D03*
X129307Y009164D03*
X129392Y009829D03*
X129902Y010203D03*
X130449Y010038D03*
X127818Y010558D03*
X126278Y010712D03*
X126036Y011127D03*
X128781Y011000D03*
X125795Y011704D03*
X124543Y012044D03*
X123351Y012331D03*
X122895Y012223D03*
X122881Y011724D03*
X121174Y011870D03*
X120681Y011787D03*
X119469Y011329D03*
X119087Y011725D03*
X117789Y011301D03*
X117039Y010708D03*
X114431Y011293D03*
X113729Y011648D03*
X110894Y011781D03*
X114018Y012445D03*
X115933Y014084D03*
X121963Y013155D03*
X122293Y012698D03*
X122644Y013127D03*
X123002Y013823D03*
X127138Y012340D03*
X122946Y010819D03*
X122653Y010466D03*
X121356Y010435D03*
X120321Y010219D03*
X116509Y009909D03*
X116481Y009426D03*
X115212Y009306D03*
X118367Y008340D03*
X117617Y007463D03*
X118104Y007430D03*
X119683Y007473D03*
X120586Y007455D03*
X121317Y007703D03*
X122922Y007356D03*
X122357Y007024D03*
X123819Y007581D03*
X123524Y008559D03*
X122649Y009043D03*
X120852Y009025D03*
X119568Y008954D03*
X114924Y007554D03*
X106423Y006681D03*
X104074Y007047D03*
X106032Y007639D03*
X108983Y009611D03*
X107433Y012472D03*
X093799Y013127D03*
X092591Y012346D03*
X093326Y011768D03*
X093231Y011091D03*
X087752Y011412D03*
X085656Y012185D03*
X084850Y012312D03*
X082750Y012304D03*
X083273Y011455D03*
X082114Y010995D03*
X084283Y010367D03*
X086035Y010178D03*
X086495Y010208D03*
X085877Y009720D03*
X084372Y009687D03*
X083289Y009072D03*
X083068Y009810D03*
X079710Y010248D03*
X078643Y009571D03*
X080006Y008883D03*
X081789Y008383D03*
X083395Y008136D03*
X084943Y008493D03*
X085498Y008515D03*
X088104Y008476D03*
X089328Y007811D03*
X087747Y007388D03*
X085357Y007457D03*
X084849Y007752D03*
X084382Y007569D03*
X082298Y007680D03*
X078577Y006681D03*
X081882Y005920D03*
X073861Y007550D03*
X072495Y007881D03*
X072481Y008390D03*
X070999Y008232D03*
X069763Y008106D03*
X068505Y008254D03*
X067350Y007842D03*
X066855Y007774D03*
X066472Y008124D03*
X064816Y008471D03*
X063235Y008443D03*
X059357Y009506D03*
X058041Y010960D03*
X062874Y011448D03*
X063408Y011483D03*
X066104Y012191D03*
X067219Y012316D03*
X069347Y012322D03*
X070137Y012306D03*
X070991Y012062D03*
X072263Y012245D03*
X073099Y012305D03*
X072263Y012811D03*
X071587Y013127D03*
X075724Y014047D03*
X074585Y015377D03*
X079249Y016484D03*
X082279Y013571D03*
X087160Y013169D03*
X088776Y012800D03*
X087800Y012392D03*
X078746Y011467D03*
X077933Y011151D03*
X076944Y012125D03*
X072818Y011467D03*
X070319Y011337D03*
X069397Y011645D03*
X068576Y011917D03*
X069051Y011007D03*
X066331Y011448D03*
X067404Y010132D03*
X066194Y009951D03*
X069212Y010294D03*
X072256Y010761D03*
X072818Y010349D03*
X072362Y010305D03*
X070677Y009186D03*
X075849Y008883D03*
X070789Y007483D03*
X068924Y007430D03*
X071770Y006681D03*
X063468Y007424D03*
X059466Y006342D03*
X057015Y006681D03*
X037862Y010531D03*
X032339Y011133D03*
X029200Y010289D03*
X039009Y012104D03*
X039394Y012472D03*
X036866Y012800D03*
X035467Y012301D03*
X034607Y013569D03*
X041016Y012472D03*
X042880Y012119D03*
X043652Y012535D03*
X044356Y013237D03*
X047374Y012800D03*
X055005Y012488D03*
X056039Y013127D03*
X057699Y012344D03*
X060500Y012344D03*
X065739Y013155D03*
X066299Y015384D03*
X059506Y015346D03*
X087813Y009445D03*
X090584Y009067D03*
X126509Y009862D03*
X133091Y010907D03*
X133781Y011253D03*
X146189Y013169D03*
X147767Y012251D03*
X147508Y011110D03*
X146200Y008600D03*
X144489Y007330D03*
X141325Y006847D03*
X138198Y007085D03*
X136515Y007396D03*
X134862Y007398D03*
X132255Y007571D03*
X132659Y007970D03*
X136134Y008022D03*
X136523Y008340D03*
X129021Y006681D03*
X131910Y005914D03*
X135477Y006139D03*
X145157Y025317D03*
X144927Y026056D03*
X146385Y027741D03*
X109900Y025950D03*
X030138Y021557D03*
X029673Y020828D03*
X028159Y020465D03*
X026024Y020592D03*
X027049Y021183D03*
X028159Y016710D03*
X026572Y016347D03*
X028256Y015908D03*
X009112Y010360D03*
X007853Y004583D03*
X011403Y004255D03*
X004393Y004132D03*
M02*
