G75*
G70*
%OFA0B0*%
%FSLAX24Y24*%
%IPPOS*%
%LPD*%
%AMOC8*
5,1,8,0,0,1.08239X$1,22.5*
%
%ADD10R,0.0157X0.0669*%
%ADD11R,0.0669X0.0157*%
%ADD12R,0.0472X0.0315*%
%ADD13R,0.0800X0.0260*%
%ADD14R,0.0315X0.0472*%
D10*
X020286Y006764D03*
X020680Y006764D03*
X021073Y006764D03*
X021467Y006764D03*
X021861Y006764D03*
X022254Y006764D03*
X022648Y006764D03*
X023042Y006764D03*
X023435Y006764D03*
X023829Y006764D03*
X024223Y006764D03*
X024617Y006764D03*
X025010Y006764D03*
X031774Y006764D03*
X032168Y006764D03*
X032561Y006764D03*
X032955Y006764D03*
X033349Y006764D03*
X033743Y006764D03*
X034136Y006764D03*
X034530Y006764D03*
X034924Y006764D03*
X035317Y006764D03*
X035711Y006764D03*
X036105Y006764D03*
X036498Y006764D03*
X066180Y006764D03*
X066573Y006764D03*
X066967Y006764D03*
X067361Y006764D03*
X067754Y006764D03*
X068148Y006764D03*
X068542Y006764D03*
X068935Y006764D03*
X069329Y006764D03*
X069723Y006764D03*
X070117Y006764D03*
X070510Y006764D03*
X070904Y006764D03*
X081668Y006764D03*
X082061Y006764D03*
X082455Y006764D03*
X082849Y006764D03*
X083243Y006764D03*
X083636Y006764D03*
X084030Y006764D03*
X084424Y006764D03*
X084817Y006764D03*
X085211Y006764D03*
X085605Y006764D03*
X085998Y006764D03*
X086392Y006764D03*
X086392Y012945D03*
X085998Y012945D03*
X085605Y012945D03*
X085211Y012945D03*
X084817Y012945D03*
X084424Y012945D03*
X084030Y012945D03*
X083636Y012945D03*
X083243Y012945D03*
X082849Y012945D03*
X082455Y012945D03*
X082061Y012945D03*
X081668Y012945D03*
X070904Y012945D03*
X070510Y012945D03*
X070117Y012945D03*
X069723Y012945D03*
X069329Y012945D03*
X068935Y012945D03*
X068542Y012945D03*
X068148Y012945D03*
X067754Y012945D03*
X067361Y012945D03*
X066967Y012945D03*
X066573Y012945D03*
X066180Y012945D03*
X064601Y019363D03*
X064207Y019363D03*
X063813Y019363D03*
X063420Y019363D03*
X063026Y019363D03*
X062632Y019363D03*
X062239Y019363D03*
X061845Y019363D03*
X061451Y019363D03*
X061057Y019363D03*
X060664Y019363D03*
X060270Y019363D03*
X059876Y019363D03*
X042239Y019363D03*
X041845Y019363D03*
X041451Y019363D03*
X041057Y019363D03*
X040664Y019363D03*
X040270Y019363D03*
X039876Y019363D03*
X039483Y019363D03*
X039089Y019363D03*
X038695Y019363D03*
X038302Y019363D03*
X037908Y019363D03*
X037514Y019363D03*
X014207Y019363D03*
X013813Y019363D03*
X013420Y019363D03*
X013026Y019363D03*
X012632Y019363D03*
X012239Y019363D03*
X011845Y019363D03*
X011451Y019363D03*
X011057Y019363D03*
X010664Y019363D03*
X010270Y019363D03*
X009876Y019363D03*
X009483Y019363D03*
X020286Y012945D03*
X020680Y012945D03*
X021073Y012945D03*
X021467Y012945D03*
X021861Y012945D03*
X022254Y012945D03*
X022648Y012945D03*
X023042Y012945D03*
X023435Y012945D03*
X023829Y012945D03*
X024223Y012945D03*
X024617Y012945D03*
X025010Y012945D03*
X031774Y012945D03*
X032168Y012945D03*
X032561Y012945D03*
X032955Y012945D03*
X033349Y012945D03*
X033743Y012945D03*
X034136Y012945D03*
X034530Y012945D03*
X034924Y012945D03*
X035317Y012945D03*
X035711Y012945D03*
X036105Y012945D03*
X036498Y012945D03*
X087908Y019363D03*
X088302Y019363D03*
X088695Y019363D03*
X089089Y019363D03*
X089483Y019363D03*
X089876Y019363D03*
X090270Y019363D03*
X090664Y019363D03*
X091057Y019363D03*
X091451Y019363D03*
X091845Y019363D03*
X092239Y019363D03*
X092632Y019363D03*
X110270Y019363D03*
X110664Y019363D03*
X111057Y019363D03*
X111451Y019363D03*
X111845Y019363D03*
X112239Y019363D03*
X112632Y019363D03*
X113026Y019363D03*
X113420Y019363D03*
X113813Y019363D03*
X114207Y019363D03*
X114601Y019363D03*
X114994Y019363D03*
X138302Y019363D03*
X138695Y019363D03*
X139089Y019363D03*
X139483Y019363D03*
X139876Y019363D03*
X140270Y019363D03*
X140664Y019363D03*
X141057Y019363D03*
X141451Y019363D03*
X141845Y019363D03*
X142239Y019363D03*
X142632Y019363D03*
X143026Y019363D03*
X136786Y012945D03*
X136392Y012945D03*
X135998Y012945D03*
X135605Y012945D03*
X135211Y012945D03*
X134817Y012945D03*
X134424Y012945D03*
X134030Y012945D03*
X133636Y012945D03*
X133243Y012945D03*
X132849Y012945D03*
X132455Y012945D03*
X132061Y012945D03*
X121298Y012945D03*
X120904Y012945D03*
X120510Y012945D03*
X120117Y012945D03*
X119723Y012945D03*
X119329Y012945D03*
X118935Y012945D03*
X118542Y012945D03*
X118148Y012945D03*
X117754Y012945D03*
X117361Y012945D03*
X116967Y012945D03*
X116573Y012945D03*
X116573Y006764D03*
X116967Y006764D03*
X117361Y006764D03*
X117754Y006764D03*
X118148Y006764D03*
X118542Y006764D03*
X118935Y006764D03*
X119329Y006764D03*
X119723Y006764D03*
X120117Y006764D03*
X120510Y006764D03*
X120904Y006764D03*
X121298Y006764D03*
X132061Y006764D03*
X132455Y006764D03*
X132849Y006764D03*
X133243Y006764D03*
X133636Y006764D03*
X134030Y006764D03*
X134424Y006764D03*
X134817Y006764D03*
X135211Y006764D03*
X135605Y006764D03*
X135998Y006764D03*
X136392Y006764D03*
X136786Y006764D03*
X138302Y025544D03*
X138695Y025544D03*
X139089Y025544D03*
X139483Y025544D03*
X139876Y025544D03*
X140270Y025544D03*
X140664Y025544D03*
X141057Y025544D03*
X141451Y025544D03*
X141845Y025544D03*
X142239Y025544D03*
X142632Y025544D03*
X143026Y025544D03*
X114994Y025544D03*
X114601Y025544D03*
X114207Y025544D03*
X113813Y025544D03*
X113420Y025544D03*
X113026Y025544D03*
X112632Y025544D03*
X112239Y025544D03*
X111845Y025544D03*
X111451Y025544D03*
X111057Y025544D03*
X110664Y025544D03*
X110270Y025544D03*
X092632Y025544D03*
X092239Y025544D03*
X091845Y025544D03*
X091451Y025544D03*
X091057Y025544D03*
X090664Y025544D03*
X090270Y025544D03*
X089876Y025544D03*
X089483Y025544D03*
X089089Y025544D03*
X088695Y025544D03*
X088302Y025544D03*
X087908Y025544D03*
X064601Y025544D03*
X064207Y025544D03*
X063813Y025544D03*
X063420Y025544D03*
X063026Y025544D03*
X062632Y025544D03*
X062239Y025544D03*
X061845Y025544D03*
X061451Y025544D03*
X061057Y025544D03*
X060664Y025544D03*
X060270Y025544D03*
X059876Y025544D03*
X042239Y025544D03*
X041845Y025544D03*
X041451Y025544D03*
X041057Y025544D03*
X040664Y025544D03*
X040270Y025544D03*
X039876Y025544D03*
X039483Y025544D03*
X039089Y025544D03*
X038695Y025544D03*
X038302Y025544D03*
X037908Y025544D03*
X037514Y025544D03*
X014207Y025544D03*
X013813Y025544D03*
X013420Y025544D03*
X013026Y025544D03*
X012632Y025544D03*
X012239Y025544D03*
X011845Y025544D03*
X011451Y025544D03*
X011057Y025544D03*
X010664Y025544D03*
X010270Y025544D03*
X009876Y025544D03*
X009483Y025544D03*
D11*
X008754Y024815D03*
X008754Y024422D03*
X008754Y024028D03*
X008754Y023634D03*
X008754Y023241D03*
X008754Y022847D03*
X008754Y022453D03*
X008754Y022059D03*
X008754Y021666D03*
X008754Y021272D03*
X008754Y020878D03*
X008754Y020485D03*
X008754Y020091D03*
X014935Y020091D03*
X014935Y020485D03*
X014935Y020878D03*
X014935Y021272D03*
X014935Y021666D03*
X014935Y022059D03*
X014935Y022453D03*
X014935Y022847D03*
X014935Y023241D03*
X014935Y023634D03*
X014935Y024028D03*
X014935Y024422D03*
X014935Y024815D03*
X036786Y024815D03*
X036786Y024422D03*
X036786Y024028D03*
X036786Y023634D03*
X036786Y023241D03*
X036786Y022847D03*
X036786Y022453D03*
X036786Y022059D03*
X036786Y021666D03*
X036786Y021272D03*
X036786Y020878D03*
X036786Y020485D03*
X036786Y020091D03*
X042967Y020091D03*
X042967Y020485D03*
X042967Y020878D03*
X042967Y021272D03*
X042967Y021666D03*
X042967Y022059D03*
X042967Y022453D03*
X042967Y022847D03*
X042967Y023241D03*
X042967Y023634D03*
X042967Y024028D03*
X042967Y024422D03*
X042967Y024815D03*
X059148Y024815D03*
X059148Y024422D03*
X059148Y024028D03*
X059148Y023634D03*
X059148Y023241D03*
X059148Y022847D03*
X059148Y022453D03*
X059148Y022059D03*
X059148Y021666D03*
X059148Y021272D03*
X059148Y020878D03*
X059148Y020485D03*
X059148Y020091D03*
X065329Y020091D03*
X065329Y020485D03*
X065329Y020878D03*
X065329Y021272D03*
X065329Y021666D03*
X065329Y022059D03*
X065329Y022453D03*
X065329Y022847D03*
X065329Y023241D03*
X065329Y023634D03*
X065329Y024028D03*
X065329Y024422D03*
X065329Y024815D03*
X087180Y024815D03*
X087180Y024422D03*
X087180Y024028D03*
X087180Y023634D03*
X087180Y023241D03*
X087180Y022847D03*
X087180Y022453D03*
X087180Y022059D03*
X087180Y021666D03*
X087180Y021272D03*
X087180Y020878D03*
X087180Y020485D03*
X087180Y020091D03*
X093361Y020091D03*
X093361Y020485D03*
X093361Y020878D03*
X093361Y021272D03*
X093361Y021666D03*
X093361Y022059D03*
X093361Y022453D03*
X093361Y022847D03*
X093361Y023241D03*
X093361Y023634D03*
X093361Y024028D03*
X093361Y024422D03*
X093361Y024815D03*
X109542Y024815D03*
X109542Y024422D03*
X109542Y024028D03*
X109542Y023634D03*
X109542Y023241D03*
X109542Y022847D03*
X109542Y022453D03*
X109542Y022059D03*
X109542Y021666D03*
X109542Y021272D03*
X109542Y020878D03*
X109542Y020485D03*
X109542Y020091D03*
X115723Y020091D03*
X115723Y020485D03*
X115723Y020878D03*
X115723Y021272D03*
X115723Y021666D03*
X115723Y022059D03*
X115723Y022453D03*
X115723Y022847D03*
X115723Y023241D03*
X115723Y023634D03*
X115723Y024028D03*
X115723Y024422D03*
X115723Y024815D03*
X137573Y024815D03*
X137573Y024422D03*
X137573Y024028D03*
X137573Y023634D03*
X137573Y023241D03*
X137573Y022847D03*
X137573Y022453D03*
X137573Y022059D03*
X137573Y021666D03*
X137573Y021272D03*
X137573Y020878D03*
X137573Y020485D03*
X137573Y020091D03*
X143754Y020091D03*
X143754Y020485D03*
X143754Y020878D03*
X143754Y021272D03*
X143754Y021666D03*
X143754Y022059D03*
X143754Y022453D03*
X143754Y022847D03*
X143754Y023241D03*
X143754Y023634D03*
X143754Y024028D03*
X143754Y024422D03*
X143754Y024815D03*
X137514Y012217D03*
X137514Y011823D03*
X137514Y011430D03*
X137514Y011036D03*
X137514Y010642D03*
X137514Y010248D03*
X137514Y009855D03*
X137514Y009461D03*
X137514Y009067D03*
X137514Y008674D03*
X137514Y008280D03*
X137514Y007886D03*
X137514Y007493D03*
X131333Y007493D03*
X131333Y007886D03*
X131333Y008280D03*
X131333Y008674D03*
X131333Y009067D03*
X131333Y009461D03*
X131333Y009855D03*
X131333Y010248D03*
X131333Y010642D03*
X131333Y011036D03*
X131333Y011430D03*
X131333Y011823D03*
X131333Y012217D03*
X122026Y012217D03*
X122026Y011823D03*
X122026Y011430D03*
X122026Y011036D03*
X122026Y010642D03*
X122026Y010248D03*
X122026Y009855D03*
X122026Y009461D03*
X122026Y009067D03*
X122026Y008674D03*
X122026Y008280D03*
X122026Y007886D03*
X122026Y007493D03*
X115845Y007493D03*
X115845Y007886D03*
X115845Y008280D03*
X115845Y008674D03*
X115845Y009067D03*
X115845Y009461D03*
X115845Y009855D03*
X115845Y010248D03*
X115845Y010642D03*
X115845Y011036D03*
X115845Y011430D03*
X115845Y011823D03*
X115845Y012217D03*
X087120Y012217D03*
X087120Y011823D03*
X087120Y011430D03*
X087120Y011036D03*
X087120Y010642D03*
X087120Y010248D03*
X087120Y009855D03*
X087120Y009461D03*
X087120Y009067D03*
X087120Y008674D03*
X087120Y008280D03*
X087120Y007886D03*
X087120Y007493D03*
X080939Y007493D03*
X080939Y007886D03*
X080939Y008280D03*
X080939Y008674D03*
X080939Y009067D03*
X080939Y009461D03*
X080939Y009855D03*
X080939Y010248D03*
X080939Y010642D03*
X080939Y011036D03*
X080939Y011430D03*
X080939Y011823D03*
X080939Y012217D03*
X071632Y012217D03*
X071632Y011823D03*
X071632Y011430D03*
X071632Y011036D03*
X071632Y010642D03*
X071632Y010248D03*
X071632Y009855D03*
X071632Y009461D03*
X071632Y009067D03*
X071632Y008674D03*
X071632Y008280D03*
X071632Y007886D03*
X071632Y007493D03*
X065451Y007493D03*
X065451Y007886D03*
X065451Y008280D03*
X065451Y008674D03*
X065451Y009067D03*
X065451Y009461D03*
X065451Y009855D03*
X065451Y010248D03*
X065451Y010642D03*
X065451Y011036D03*
X065451Y011430D03*
X065451Y011823D03*
X065451Y012217D03*
X037227Y012217D03*
X037227Y011823D03*
X037227Y011430D03*
X037227Y011036D03*
X037227Y010642D03*
X037227Y010248D03*
X037227Y009855D03*
X037227Y009461D03*
X037227Y009067D03*
X037227Y008674D03*
X037227Y008280D03*
X037227Y007886D03*
X037227Y007493D03*
X031046Y007493D03*
X031046Y007886D03*
X031046Y008280D03*
X031046Y008674D03*
X031046Y009067D03*
X031046Y009461D03*
X031046Y009855D03*
X031046Y010248D03*
X031046Y010642D03*
X031046Y011036D03*
X031046Y011430D03*
X031046Y011823D03*
X031046Y012217D03*
X025739Y012217D03*
X025739Y011823D03*
X025739Y011430D03*
X025739Y011036D03*
X025739Y010642D03*
X025739Y010248D03*
X025739Y009855D03*
X025739Y009461D03*
X025739Y009067D03*
X025739Y008674D03*
X025739Y008280D03*
X025739Y007886D03*
X025739Y007493D03*
X019557Y007493D03*
X019557Y007886D03*
X019557Y008280D03*
X019557Y008674D03*
X019557Y009067D03*
X019557Y009461D03*
X019557Y009855D03*
X019557Y010248D03*
X019557Y010642D03*
X019557Y011036D03*
X019557Y011430D03*
X019557Y011823D03*
X019557Y012217D03*
D12*
X017699Y011008D03*
X017699Y010300D03*
X028648Y010300D03*
X028648Y011008D03*
X003376Y010876D03*
X003376Y011585D03*
X035302Y022111D03*
X035302Y022819D03*
X057809Y022512D03*
X057809Y021804D03*
X085754Y022122D03*
X085754Y022831D03*
X107809Y022800D03*
X107809Y023508D03*
X135809Y023508D03*
X135809Y022800D03*
X129309Y011008D03*
X129309Y010300D03*
X113809Y010300D03*
X113809Y011008D03*
X078746Y011008D03*
X078746Y010300D03*
X063309Y010300D03*
X063309Y011008D03*
X007231Y022296D03*
X007231Y023004D03*
D13*
X020989Y022953D03*
X020989Y023453D03*
X020989Y023953D03*
X023409Y023953D03*
X023409Y023453D03*
X023409Y022953D03*
X023409Y022453D03*
X023409Y021953D03*
X023409Y021453D03*
X023409Y020953D03*
X020989Y020953D03*
X020989Y021453D03*
X020989Y021953D03*
X020989Y022453D03*
X028981Y022453D03*
X031401Y022453D03*
X031401Y021953D03*
X031401Y021453D03*
X028981Y021453D03*
X028981Y021953D03*
X028981Y020953D03*
X031401Y020953D03*
X031401Y022953D03*
X031401Y023453D03*
X028981Y023453D03*
X028981Y022953D03*
X028981Y023953D03*
X031401Y023953D03*
X070989Y023953D03*
X070989Y023453D03*
X070989Y022953D03*
X070989Y022453D03*
X070989Y021953D03*
X070989Y021453D03*
X070989Y020953D03*
X073409Y020953D03*
X073409Y021453D03*
X073409Y021953D03*
X073409Y022453D03*
X073409Y022953D03*
X073409Y023453D03*
X073409Y023953D03*
X079021Y023953D03*
X081441Y023953D03*
X081441Y023453D03*
X081441Y022953D03*
X079021Y022953D03*
X079021Y023453D03*
X079021Y022453D03*
X081441Y022453D03*
X081441Y021953D03*
X081441Y021453D03*
X079021Y021453D03*
X079021Y021953D03*
X079021Y020953D03*
X081441Y020953D03*
X121383Y020953D03*
X121383Y021453D03*
X121383Y021953D03*
X121383Y022453D03*
X121383Y022953D03*
X121383Y023453D03*
X121383Y023953D03*
X123803Y023953D03*
X123803Y023453D03*
X123803Y022953D03*
X123803Y022453D03*
X123803Y021953D03*
X123803Y021453D03*
X123803Y020953D03*
X129414Y020953D03*
X131834Y020953D03*
X131834Y021453D03*
X131834Y021953D03*
X129414Y021953D03*
X129414Y021453D03*
X129414Y022453D03*
X131834Y022453D03*
X131834Y022953D03*
X131834Y023453D03*
X129414Y023453D03*
X129414Y022953D03*
X129414Y023953D03*
X131834Y023953D03*
D14*
X133455Y023654D03*
X134164Y023654D03*
X125664Y023654D03*
X124955Y023654D03*
X119664Y024154D03*
X118955Y024154D03*
X118955Y020654D03*
X119664Y020654D03*
X077664Y024154D03*
X076955Y024154D03*
X075664Y024154D03*
X074955Y024154D03*
X069664Y024154D03*
X068955Y024154D03*
X068955Y021154D03*
X069664Y021154D03*
X027164Y024154D03*
X026455Y024154D03*
X025164Y024154D03*
X024455Y024154D03*
X019483Y024154D03*
X018774Y024154D03*
X018774Y021154D03*
X019483Y021154D03*
M02*
