G75*
G70*
%OFA0B0*%
%FSLAX24Y24*%
%IPPOS*%
%LPD*%
%AMOC8*
5,1,8,0,0,1.08239X$1,22.5*
%
%ADD10C,0.0050*%
%ADD11C,0.0080*%
%ADD12C,0.0060*%
D10*
X000309Y003556D02*
X000309Y016154D01*
X012908Y016154D01*
X012908Y003556D01*
X025506Y003556D01*
X025506Y016154D01*
X038105Y016154D01*
X038105Y003556D01*
X050703Y003556D01*
X050703Y016154D01*
X063302Y016154D01*
X063302Y003556D01*
X075900Y003556D01*
X075900Y016154D01*
X088498Y016154D01*
X088498Y003556D01*
X101097Y003556D01*
X101097Y016154D01*
X113695Y016154D01*
X113695Y003556D01*
X126294Y003556D01*
X126294Y016154D01*
X138892Y016154D01*
X138892Y003556D01*
X151491Y003556D01*
X151491Y016154D01*
X138892Y016154D01*
X138892Y003556D01*
X126294Y003556D01*
X126294Y016154D01*
X113695Y016154D01*
X113695Y003556D01*
X101097Y003556D01*
X101097Y016154D01*
X101097Y028752D01*
X113695Y028752D01*
X113695Y016154D01*
X126294Y016154D01*
X126294Y028752D01*
X138892Y028752D01*
X138892Y016154D01*
X151491Y016154D01*
X151491Y028752D01*
X138892Y028752D01*
X138892Y016154D01*
X126294Y016154D01*
X126294Y028752D01*
X113695Y028752D01*
X113695Y016154D01*
X101097Y016154D01*
X088498Y016154D01*
X088498Y003556D01*
X075900Y003556D01*
X075900Y016154D01*
X063302Y016154D01*
X063302Y003556D01*
X050703Y003556D01*
X050703Y016154D01*
X050703Y028752D01*
X063302Y028752D01*
X063302Y016154D01*
X075900Y016154D01*
X075900Y028752D01*
X088498Y028752D01*
X088498Y016154D01*
X101097Y016154D01*
X101097Y028752D01*
X088498Y028752D01*
X088498Y016154D01*
X075900Y016154D01*
X075900Y028752D01*
X063302Y028752D01*
X063302Y016154D01*
X050703Y016154D01*
X038105Y016154D01*
X038105Y003556D01*
X025506Y003556D01*
X025506Y016154D01*
X012908Y016154D01*
X012908Y003556D01*
X000309Y003556D01*
X000309Y016154D02*
X000309Y028752D01*
X012908Y028752D01*
X012908Y016154D01*
X025506Y016154D01*
X025506Y028752D01*
X038105Y028752D01*
X038105Y016154D01*
X050703Y016154D01*
X050703Y028752D01*
X038105Y028752D01*
X038105Y016154D01*
X025506Y016154D01*
X025506Y028752D01*
X012908Y028752D01*
X012908Y016154D01*
X000309Y016154D01*
D11*
X000309Y003556D01*
X012908Y003556D01*
X012908Y016154D01*
X025506Y016154D01*
X025506Y003556D01*
X038105Y003556D01*
X038105Y016154D01*
X050703Y016154D01*
X050703Y003556D01*
X063302Y003556D01*
X063302Y016154D01*
X075900Y016154D01*
X075900Y003556D01*
X088498Y003556D01*
X088498Y016154D01*
X101097Y016154D01*
X101097Y003556D01*
X113695Y003556D01*
X113695Y016154D01*
X126294Y016154D01*
X126294Y003556D01*
X138892Y003556D01*
X138892Y016154D01*
X151491Y016154D01*
X151491Y003556D01*
X138892Y003556D01*
X138892Y016154D01*
X126294Y016154D01*
X126294Y003556D01*
X113695Y003556D01*
X113695Y016154D01*
X101097Y016154D01*
X101097Y028752D01*
X113695Y028752D01*
X113695Y016154D01*
X126294Y016154D01*
X126294Y028752D01*
X138892Y028752D01*
X138892Y016154D01*
X151491Y016154D01*
X151491Y028752D01*
X138892Y028752D01*
X138892Y016154D01*
X126294Y016154D01*
X126294Y028752D01*
X113695Y028752D01*
X113695Y016154D01*
X101097Y016154D01*
X101097Y003556D01*
X088498Y003556D01*
X088498Y016154D01*
X075900Y016154D01*
X075900Y003556D01*
X063302Y003556D01*
X063302Y016154D01*
X050703Y016154D01*
X050703Y028752D01*
X063302Y028752D01*
X063302Y016154D01*
X075900Y016154D01*
X075900Y028752D01*
X088498Y028752D01*
X088498Y016154D01*
X101097Y016154D01*
X101097Y028752D01*
X088498Y028752D01*
X088498Y016154D01*
X075900Y016154D01*
X075900Y028752D01*
X063302Y028752D01*
X063302Y016154D01*
X050703Y016154D01*
X050703Y003556D01*
X038105Y003556D01*
X038105Y016154D01*
X025506Y016154D01*
X025506Y003556D01*
X012908Y003556D01*
X012908Y016154D01*
X000309Y016154D01*
X000309Y028752D01*
X012908Y028752D01*
X012908Y016154D01*
X025506Y016154D01*
X025506Y028752D01*
X038105Y028752D01*
X038105Y016154D01*
X050703Y016154D01*
X050703Y028752D01*
X038105Y028752D01*
X038105Y016154D01*
X025506Y016154D01*
X025506Y028752D01*
X012908Y028752D01*
X012908Y016154D01*
X000309Y016154D01*
D12*
X000870Y019036D02*
X000870Y019272D01*
X001343Y019272D02*
X001343Y019036D01*
X001870Y019036D02*
X001870Y019272D01*
X002343Y019272D02*
X002343Y019036D01*
X003870Y019036D02*
X003870Y019272D01*
X004343Y019272D02*
X004343Y019036D01*
X004870Y019036D02*
X004870Y019272D01*
X005343Y019272D02*
X005343Y019036D01*
X006870Y019036D02*
X006870Y019272D01*
X007343Y019272D02*
X007343Y019036D01*
X007870Y019036D02*
X007870Y019272D01*
X008343Y019272D02*
X008343Y019036D01*
X009870Y019036D02*
X009870Y019272D01*
X010343Y019272D02*
X010343Y019036D01*
X010870Y019036D02*
X010870Y019272D01*
X011343Y019272D02*
X011343Y019036D01*
X013471Y019036D02*
X013471Y019272D01*
X013943Y019272D02*
X013943Y019036D01*
X014471Y019036D02*
X014471Y019272D01*
X014943Y019272D02*
X014943Y019036D01*
X016467Y019036D02*
X016467Y019272D01*
X016939Y019272D02*
X016939Y019036D01*
X017467Y019036D02*
X017467Y019272D01*
X017939Y019272D02*
X017939Y019036D01*
X019467Y019036D02*
X019467Y019272D01*
X019939Y019272D02*
X019939Y019036D01*
X020471Y019036D02*
X020471Y019272D01*
X020943Y019272D02*
X020943Y019036D01*
X022471Y019036D02*
X022471Y019272D01*
X022943Y019272D02*
X022943Y019036D01*
X023467Y019036D02*
X023467Y019272D01*
X023939Y019272D02*
X023939Y019036D01*
X026073Y019036D02*
X026073Y019272D01*
X026546Y019272D02*
X026546Y019036D01*
X027073Y019036D02*
X027073Y019272D01*
X027546Y019272D02*
X027546Y019036D01*
X029073Y019036D02*
X029073Y019272D01*
X029546Y019272D02*
X029546Y019036D01*
X030073Y019036D02*
X030073Y019272D01*
X030546Y019272D02*
X030546Y019036D01*
X032073Y019036D02*
X032073Y019272D01*
X032546Y019272D02*
X032546Y019036D01*
X033073Y019036D02*
X033073Y019272D01*
X033546Y019272D02*
X033546Y019036D01*
X035073Y019036D02*
X035073Y019272D01*
X035546Y019272D02*
X035546Y019036D01*
X036073Y019036D02*
X036073Y019272D01*
X036546Y019272D02*
X036546Y019036D01*
X038676Y019036D02*
X038676Y019272D01*
X039148Y019272D02*
X039148Y019036D01*
X039672Y019036D02*
X039672Y019272D01*
X040144Y019272D02*
X040144Y019036D01*
X041668Y019036D02*
X041668Y019272D01*
X042140Y019272D02*
X042140Y019036D01*
X042664Y019036D02*
X042664Y019272D01*
X043136Y019272D02*
X043136Y019036D01*
X044644Y019036D02*
X044644Y019272D01*
X045117Y019272D02*
X045117Y019036D01*
X045668Y019036D02*
X045668Y019272D01*
X046140Y019272D02*
X046140Y019036D01*
X047672Y019036D02*
X047672Y019272D01*
X048144Y019272D02*
X048144Y019036D01*
X048660Y019036D02*
X048660Y019272D01*
X049132Y019272D02*
X049132Y019036D01*
X051264Y019036D02*
X051264Y019272D01*
X051737Y019272D02*
X051737Y019036D01*
X052264Y019036D02*
X052264Y019272D01*
X052737Y019272D02*
X052737Y019036D01*
X054264Y019036D02*
X054264Y019272D01*
X054737Y019272D02*
X054737Y019036D01*
X055264Y019036D02*
X055264Y019272D01*
X055737Y019272D02*
X055737Y019036D01*
X057264Y019036D02*
X057264Y019272D01*
X057737Y019272D02*
X057737Y019036D01*
X058264Y019036D02*
X058264Y019272D01*
X058737Y019272D02*
X058737Y019036D01*
X060264Y019036D02*
X060264Y019272D01*
X060737Y019272D02*
X060737Y019036D01*
X061264Y019036D02*
X061264Y019272D01*
X061737Y019272D02*
X061737Y019036D01*
X063863Y019036D02*
X063863Y019272D01*
X064335Y019272D02*
X064335Y019036D01*
X064863Y019036D02*
X064863Y019272D01*
X065335Y019272D02*
X065335Y019036D01*
X066863Y019036D02*
X066863Y019272D01*
X067335Y019272D02*
X067335Y019036D01*
X067863Y019036D02*
X067863Y019272D01*
X068335Y019272D02*
X068335Y019036D01*
X069863Y019036D02*
X069863Y019272D01*
X070335Y019272D02*
X070335Y019036D01*
X070863Y019036D02*
X070863Y019272D01*
X071335Y019272D02*
X071335Y019036D01*
X072863Y019036D02*
X072863Y019272D01*
X073335Y019272D02*
X073335Y019036D01*
X073863Y019036D02*
X073863Y019272D01*
X074335Y019272D02*
X074335Y019036D01*
X076073Y019036D02*
X076073Y019272D01*
X076546Y019272D02*
X076546Y019036D01*
X077073Y019036D02*
X077073Y019272D01*
X077546Y019272D02*
X077546Y019036D01*
X079573Y019036D02*
X079573Y019272D01*
X080046Y019272D02*
X080046Y019036D01*
X080573Y019036D02*
X080573Y019272D01*
X081046Y019272D02*
X081046Y019036D01*
X082573Y019036D02*
X082573Y019272D01*
X083046Y019272D02*
X083046Y019036D01*
X083573Y019036D02*
X083573Y019272D01*
X084046Y019272D02*
X084046Y019036D01*
X085461Y019036D02*
X085461Y019272D01*
X085933Y019272D02*
X085933Y019036D01*
X086461Y019036D02*
X086461Y019272D01*
X086933Y019272D02*
X086933Y019036D01*
X089073Y019036D02*
X089073Y019272D01*
X089546Y019272D02*
X089546Y019036D01*
X090073Y019036D02*
X090073Y019272D01*
X090546Y019272D02*
X090546Y019036D01*
X092065Y019036D02*
X092065Y019272D01*
X092538Y019272D02*
X092538Y019036D01*
X093073Y019036D02*
X093073Y019272D01*
X093546Y019272D02*
X093546Y019036D01*
X095073Y019036D02*
X095073Y019272D01*
X095546Y019272D02*
X095546Y019036D01*
X096073Y019036D02*
X096073Y019272D01*
X096546Y019272D02*
X096546Y019036D01*
X098059Y019036D02*
X098059Y019272D01*
X098532Y019272D02*
X098532Y019036D01*
X099059Y019036D02*
X099059Y019272D01*
X099532Y019272D02*
X099532Y019036D01*
X101672Y019036D02*
X101672Y019272D01*
X102144Y019272D02*
X102144Y019036D01*
X102682Y019036D02*
X102682Y019272D01*
X103155Y019272D02*
X103155Y019036D01*
X104632Y019036D02*
X104632Y019272D01*
X105105Y019272D02*
X105105Y019036D01*
X105660Y019036D02*
X105660Y019272D01*
X106132Y019272D02*
X106132Y019036D01*
X107672Y019036D02*
X107672Y019272D01*
X108144Y019272D02*
X108144Y019036D01*
X108682Y019036D02*
X108682Y019272D01*
X109155Y019272D02*
X109155Y019036D01*
X110658Y019036D02*
X110658Y019272D01*
X111130Y019272D02*
X111130Y019036D01*
X111658Y019036D02*
X111658Y019272D01*
X112130Y019272D02*
X112130Y019036D01*
X114273Y019036D02*
X114273Y019272D01*
X114746Y019272D02*
X114746Y019036D01*
X115256Y019036D02*
X115256Y019272D01*
X115729Y019272D02*
X115729Y019036D01*
X117270Y019075D02*
X117270Y019311D01*
X117743Y019311D02*
X117743Y019075D01*
X118270Y019036D02*
X118270Y019272D01*
X118743Y019272D02*
X118743Y019036D01*
X120250Y019036D02*
X120250Y019272D01*
X120723Y019272D02*
X120723Y019036D01*
X121290Y019036D02*
X121290Y019272D01*
X121762Y019272D02*
X121762Y019036D01*
X123256Y019036D02*
X123256Y019272D01*
X123729Y019272D02*
X123729Y019036D01*
X124256Y019036D02*
X124256Y019272D01*
X124729Y019272D02*
X124729Y019036D01*
X126869Y019036D02*
X126869Y019272D01*
X127341Y019272D02*
X127341Y019036D01*
X127855Y019036D02*
X127855Y019272D01*
X128327Y019272D02*
X128327Y019036D01*
X129857Y019036D02*
X129857Y019272D01*
X130329Y019272D02*
X130329Y019036D01*
X130857Y019036D02*
X130857Y019272D01*
X131329Y019272D02*
X131329Y019036D01*
X132829Y019036D02*
X132829Y019272D01*
X133302Y019272D02*
X133302Y019036D01*
X133849Y019036D02*
X133849Y019272D01*
X134321Y019272D02*
X134321Y019036D01*
X135855Y019036D02*
X135855Y019272D01*
X136327Y019272D02*
X136327Y019036D01*
X136855Y019036D02*
X136855Y019272D01*
X137327Y019272D02*
X137327Y019036D01*
X139455Y019036D02*
X139455Y019272D01*
X139928Y019272D02*
X139928Y019036D01*
X140453Y019036D02*
X140453Y019272D01*
X140926Y019272D02*
X140926Y019036D01*
X142453Y019036D02*
X142453Y019272D01*
X142926Y019272D02*
X142926Y019036D01*
X143453Y019036D02*
X143453Y019272D01*
X143926Y019272D02*
X143926Y019036D01*
X145453Y019036D02*
X145453Y019272D01*
X145926Y019272D02*
X145926Y019036D01*
X146453Y019036D02*
X146453Y019272D01*
X146926Y019272D02*
X146926Y019036D01*
X148453Y019036D02*
X148453Y019272D01*
X148926Y019272D02*
X148926Y019036D01*
X149453Y019036D02*
X149453Y019272D01*
X149926Y019272D02*
X149926Y019036D01*
X149908Y013272D02*
X149908Y013036D01*
X149435Y013036D02*
X149435Y013272D01*
X148926Y013272D02*
X148926Y013036D01*
X148453Y013036D02*
X148453Y013272D01*
X146926Y013272D02*
X146926Y013036D01*
X146453Y013036D02*
X146453Y013272D01*
X145926Y013272D02*
X145926Y013036D01*
X145453Y013036D02*
X145453Y013272D01*
X143926Y013272D02*
X143926Y013036D01*
X143453Y013036D02*
X143453Y013272D01*
X142926Y013272D02*
X142926Y013036D01*
X142453Y013036D02*
X142453Y013272D01*
X140926Y013272D02*
X140926Y013036D01*
X140453Y013036D02*
X140453Y013272D01*
X139928Y013272D02*
X139928Y013036D01*
X139455Y013036D02*
X139455Y013272D01*
X137327Y013272D02*
X137327Y013036D01*
X136855Y013036D02*
X136855Y013272D01*
X136327Y013272D02*
X136327Y013036D01*
X135855Y013036D02*
X135855Y013272D01*
X134329Y013252D02*
X134329Y013016D01*
X133857Y013016D02*
X133857Y013252D01*
X133302Y013272D02*
X133302Y013036D01*
X132829Y013036D02*
X132829Y013272D01*
X131329Y013272D02*
X131329Y013036D01*
X130857Y013036D02*
X130857Y013272D01*
X130329Y013272D02*
X130329Y013036D01*
X129857Y013036D02*
X129857Y013272D01*
X128327Y013272D02*
X128327Y013036D01*
X127855Y013036D02*
X127855Y013272D01*
X127341Y013272D02*
X127341Y013036D01*
X126869Y013036D02*
X126869Y013272D01*
X124729Y013272D02*
X124729Y013036D01*
X124256Y013036D02*
X124256Y013272D01*
X123729Y013272D02*
X123729Y013036D01*
X123256Y013036D02*
X123256Y013272D01*
X121750Y013272D02*
X121750Y013036D01*
X121278Y013036D02*
X121278Y013272D01*
X120723Y013272D02*
X120723Y013036D01*
X120250Y013036D02*
X120250Y013272D01*
X118743Y013272D02*
X118743Y013036D01*
X118270Y013036D02*
X118270Y013272D01*
X117723Y013272D02*
X117723Y013036D01*
X117250Y013036D02*
X117250Y013272D01*
X115729Y013272D02*
X115729Y013036D01*
X115256Y013036D02*
X115256Y013272D01*
X114743Y013272D02*
X114743Y013036D01*
X114270Y013036D02*
X114270Y013272D01*
X112130Y013272D02*
X112130Y013036D01*
X111658Y013036D02*
X111658Y013272D01*
X111130Y013272D02*
X111130Y013036D01*
X110658Y013036D02*
X110658Y013272D01*
X109146Y013272D02*
X109146Y013036D01*
X108673Y013036D02*
X108673Y013272D01*
X108144Y013272D02*
X108144Y013036D01*
X107672Y013036D02*
X107672Y013272D01*
X106132Y013272D02*
X106132Y013036D01*
X105660Y013036D02*
X105660Y013272D01*
X105105Y013272D02*
X105105Y013036D01*
X104632Y013036D02*
X104632Y013272D01*
X103105Y013272D02*
X103105Y013036D01*
X102632Y013036D02*
X102632Y013272D01*
X102144Y013272D02*
X102144Y013036D01*
X101672Y013036D02*
X101672Y013272D01*
X099532Y013272D02*
X099532Y013036D01*
X099059Y013036D02*
X099059Y013272D01*
X098532Y013272D02*
X098532Y013036D01*
X098059Y013036D02*
X098059Y013272D01*
X096546Y013272D02*
X096546Y013036D01*
X096073Y013036D02*
X096073Y013272D01*
X095546Y013272D02*
X095546Y013036D01*
X095073Y013036D02*
X095073Y013272D01*
X093546Y013272D02*
X093546Y013036D01*
X093073Y013036D02*
X093073Y013272D01*
X092546Y013272D02*
X092546Y013036D01*
X092073Y013036D02*
X092073Y013272D01*
X090546Y013272D02*
X090546Y013036D01*
X090073Y013036D02*
X090073Y013272D01*
X089546Y013272D02*
X089546Y013036D01*
X089073Y013036D02*
X089073Y013272D01*
X086933Y013272D02*
X086933Y013036D01*
X086461Y013036D02*
X086461Y013272D01*
X085933Y013272D02*
X085933Y013036D01*
X085461Y013036D02*
X085461Y013272D01*
X084046Y013272D02*
X084046Y013036D01*
X083573Y013036D02*
X083573Y013272D01*
X083046Y013272D02*
X083046Y013036D01*
X082573Y013036D02*
X082573Y013272D01*
X081046Y013272D02*
X081046Y013036D01*
X080573Y013036D02*
X080573Y013272D01*
X080046Y013272D02*
X080046Y013036D01*
X079573Y013036D02*
X079573Y013272D01*
X078046Y013272D02*
X078046Y013036D01*
X077573Y013036D02*
X077573Y013272D01*
X077046Y013272D02*
X077046Y013036D01*
X076573Y013036D02*
X076573Y013272D01*
X074335Y013272D02*
X074335Y013036D01*
X073863Y013036D02*
X073863Y013272D01*
X073335Y013272D02*
X073335Y013036D01*
X072863Y013036D02*
X072863Y013272D01*
X071335Y013272D02*
X071335Y013036D01*
X070863Y013036D02*
X070863Y013272D01*
X070335Y013272D02*
X070335Y013036D01*
X069863Y013036D02*
X069863Y013272D01*
X068335Y013272D02*
X068335Y013036D01*
X067863Y013036D02*
X067863Y013272D01*
X067335Y013272D02*
X067335Y013036D01*
X066863Y013036D02*
X066863Y013272D01*
X065335Y013272D02*
X065335Y013036D01*
X064863Y013036D02*
X064863Y013272D01*
X064335Y013272D02*
X064335Y013036D01*
X063863Y013036D02*
X063863Y013272D01*
X061737Y013272D02*
X061737Y013036D01*
X061264Y013036D02*
X061264Y013272D01*
X060737Y013272D02*
X060737Y013036D01*
X060264Y013036D02*
X060264Y013272D01*
X058737Y013272D02*
X058737Y013036D01*
X058264Y013036D02*
X058264Y013272D01*
X057737Y013272D02*
X057737Y013036D01*
X057264Y013036D02*
X057264Y013272D01*
X055737Y013272D02*
X055737Y013036D01*
X055264Y013036D02*
X055264Y013272D01*
X054737Y013272D02*
X054737Y013036D01*
X054264Y013036D02*
X054264Y013272D01*
X052737Y013272D02*
X052737Y013036D01*
X052264Y013036D02*
X052264Y013272D01*
X051737Y013272D02*
X051737Y013036D01*
X051264Y013036D02*
X051264Y013272D01*
X049132Y013272D02*
X049132Y013036D01*
X048660Y013036D02*
X048660Y013272D01*
X048144Y013272D02*
X048144Y013036D01*
X047672Y013036D02*
X047672Y013272D01*
X046140Y013272D02*
X046140Y013036D01*
X045668Y013036D02*
X045668Y013272D01*
X045117Y013272D02*
X045117Y013036D01*
X044644Y013036D02*
X044644Y013272D01*
X043136Y013272D02*
X043136Y013036D01*
X042664Y013036D02*
X042664Y013272D01*
X042140Y013272D02*
X042140Y013036D01*
X041668Y013036D02*
X041668Y013272D01*
X040144Y013272D02*
X040144Y013036D01*
X039672Y013036D02*
X039672Y013272D01*
X039148Y013272D02*
X039148Y013036D01*
X038676Y013036D02*
X038676Y013272D01*
X036546Y013272D02*
X036546Y013036D01*
X036073Y013036D02*
X036073Y013272D01*
X035546Y013272D02*
X035546Y013036D01*
X035073Y013036D02*
X035073Y013272D01*
X033546Y013272D02*
X033546Y013036D01*
X033073Y013036D02*
X033073Y013272D01*
X032546Y013272D02*
X032546Y013036D01*
X032073Y013036D02*
X032073Y013272D01*
X030546Y013272D02*
X030546Y013036D01*
X030073Y013036D02*
X030073Y013272D01*
X029546Y013272D02*
X029546Y013036D01*
X029073Y013036D02*
X029073Y013272D01*
X027546Y013272D02*
X027546Y013036D01*
X027073Y013036D02*
X027073Y013272D01*
X026546Y013272D02*
X026546Y013036D01*
X026073Y013036D02*
X026073Y013272D01*
X023939Y013272D02*
X023939Y013036D01*
X023467Y013036D02*
X023467Y013272D01*
X022943Y013272D02*
X022943Y013036D01*
X022471Y013036D02*
X022471Y013272D01*
X020943Y013272D02*
X020943Y013036D01*
X020471Y013036D02*
X020471Y013272D01*
X019939Y013272D02*
X019939Y013036D01*
X019467Y013036D02*
X019467Y013272D01*
X017939Y013272D02*
X017939Y013036D01*
X017467Y013036D02*
X017467Y013272D01*
X016939Y013272D02*
X016939Y013036D01*
X016467Y013036D02*
X016467Y013272D01*
X014943Y013272D02*
X014943Y013036D01*
X014471Y013036D02*
X014471Y013272D01*
X013943Y013272D02*
X013943Y013036D01*
X013471Y013036D02*
X013471Y013272D01*
X011343Y013272D02*
X011343Y013036D01*
X010870Y013036D02*
X010870Y013272D01*
X010343Y013272D02*
X010343Y013036D01*
X009870Y013036D02*
X009870Y013272D01*
X008343Y013272D02*
X008343Y013036D01*
X007870Y013036D02*
X007870Y013272D01*
X007343Y013272D02*
X007343Y013036D01*
X006870Y013036D02*
X006870Y013272D01*
X005343Y013272D02*
X005343Y013036D01*
X004870Y013036D02*
X004870Y013272D01*
X004343Y013272D02*
X004343Y013036D01*
X003870Y013036D02*
X003870Y013272D01*
X002343Y013272D02*
X002343Y013036D01*
X001870Y013036D02*
X001870Y013272D01*
X001343Y013272D02*
X001343Y013036D01*
X000870Y013036D02*
X000870Y013272D01*
X000870Y006772D02*
X000870Y006536D01*
X001343Y006536D02*
X001343Y006772D01*
X001870Y006772D02*
X001870Y006536D01*
X002343Y006536D02*
X002343Y006772D01*
X003870Y006772D02*
X003870Y006536D01*
X004343Y006536D02*
X004343Y006772D01*
X004870Y006772D02*
X004870Y006536D01*
X005343Y006536D02*
X005343Y006772D01*
X006870Y006772D02*
X006870Y006536D01*
X007343Y006536D02*
X007343Y006772D01*
X007870Y006772D02*
X007870Y006536D01*
X008343Y006536D02*
X008343Y006772D01*
X009870Y006772D02*
X009870Y006536D01*
X010343Y006536D02*
X010343Y006772D01*
X010870Y006772D02*
X010870Y006536D01*
X011343Y006536D02*
X011343Y006772D01*
X013471Y006772D02*
X013471Y006536D01*
X013943Y006536D02*
X013943Y006772D01*
X014471Y006772D02*
X014471Y006536D01*
X014943Y006536D02*
X014943Y006772D01*
X016467Y006772D02*
X016467Y006536D01*
X016939Y006536D02*
X016939Y006772D01*
X017467Y006772D02*
X017467Y006536D01*
X017939Y006536D02*
X017939Y006772D01*
X019467Y006772D02*
X019467Y006536D01*
X019939Y006536D02*
X019939Y006772D01*
X020471Y006772D02*
X020471Y006536D01*
X020943Y006536D02*
X020943Y006772D01*
X022471Y006772D02*
X022471Y006536D01*
X022943Y006536D02*
X022943Y006772D01*
X023467Y006772D02*
X023467Y006536D01*
X023939Y006536D02*
X023939Y006772D01*
X026073Y006772D02*
X026073Y006536D01*
X026546Y006536D02*
X026546Y006772D01*
X027073Y006772D02*
X027073Y006536D01*
X027546Y006536D02*
X027546Y006772D01*
X029073Y006772D02*
X029073Y006536D01*
X029546Y006536D02*
X029546Y006772D01*
X030073Y006772D02*
X030073Y006536D01*
X030546Y006536D02*
X030546Y006772D01*
X032073Y006772D02*
X032073Y006536D01*
X032546Y006536D02*
X032546Y006772D01*
X033073Y006772D02*
X033073Y006536D01*
X033546Y006536D02*
X033546Y006772D01*
X035073Y006772D02*
X035073Y006536D01*
X035546Y006536D02*
X035546Y006772D01*
X036073Y006772D02*
X036073Y006536D01*
X036546Y006536D02*
X036546Y006772D01*
X038676Y006772D02*
X038676Y006536D01*
X039148Y006536D02*
X039148Y006772D01*
X039672Y006772D02*
X039672Y006536D01*
X040144Y006536D02*
X040144Y006772D01*
X041668Y006772D02*
X041668Y006536D01*
X042140Y006536D02*
X042140Y006772D01*
X042664Y006772D02*
X042664Y006536D01*
X043136Y006536D02*
X043136Y006772D01*
X044644Y006772D02*
X044644Y006536D01*
X045117Y006536D02*
X045117Y006772D01*
X045668Y006772D02*
X045668Y006536D01*
X046140Y006536D02*
X046140Y006772D01*
X047672Y006772D02*
X047672Y006536D01*
X048144Y006536D02*
X048144Y006772D01*
X048660Y006772D02*
X048660Y006536D01*
X049132Y006536D02*
X049132Y006772D01*
X051264Y006772D02*
X051264Y006536D01*
X051737Y006536D02*
X051737Y006772D01*
X052264Y006772D02*
X052264Y006536D01*
X052737Y006536D02*
X052737Y006772D01*
X054264Y006772D02*
X054264Y006536D01*
X054737Y006536D02*
X054737Y006772D01*
X055264Y006772D02*
X055264Y006536D01*
X055737Y006536D02*
X055737Y006772D01*
X057264Y006772D02*
X057264Y006536D01*
X057737Y006536D02*
X057737Y006772D01*
X058264Y006772D02*
X058264Y006536D01*
X058737Y006536D02*
X058737Y006772D01*
X060264Y006772D02*
X060264Y006536D01*
X060737Y006536D02*
X060737Y006772D01*
X061264Y006772D02*
X061264Y006536D01*
X061737Y006536D02*
X061737Y006772D01*
X063863Y006772D02*
X063863Y006536D01*
X064335Y006536D02*
X064335Y006772D01*
X064863Y006772D02*
X064863Y006536D01*
X065335Y006536D02*
X065335Y006772D01*
X066863Y006772D02*
X066863Y006536D01*
X067335Y006536D02*
X067335Y006772D01*
X067863Y006772D02*
X067863Y006536D01*
X068335Y006536D02*
X068335Y006772D01*
X069863Y006772D02*
X069863Y006536D01*
X070335Y006536D02*
X070335Y006772D01*
X070863Y006772D02*
X070863Y006536D01*
X071335Y006536D02*
X071335Y006772D01*
X072863Y006772D02*
X072863Y006536D01*
X073335Y006536D02*
X073335Y006772D01*
X073863Y006772D02*
X073863Y006536D01*
X074335Y006536D02*
X074335Y006772D01*
X076573Y006772D02*
X076573Y006536D01*
X077046Y006536D02*
X077046Y006772D01*
X077573Y006772D02*
X077573Y006536D01*
X078046Y006536D02*
X078046Y006772D01*
X079573Y006772D02*
X079573Y006536D01*
X080046Y006536D02*
X080046Y006772D01*
X080573Y006772D02*
X080573Y006536D01*
X081046Y006536D02*
X081046Y006772D01*
X082073Y006772D02*
X082073Y006536D01*
X082546Y006536D02*
X082546Y006772D01*
X083073Y006772D02*
X083073Y006536D01*
X083546Y006536D02*
X083546Y006772D01*
X085461Y006772D02*
X085461Y006536D01*
X085933Y006536D02*
X085933Y006772D01*
X086461Y006772D02*
X086461Y006536D01*
X086933Y006536D02*
X086933Y006772D01*
X089073Y006772D02*
X089073Y006536D01*
X089546Y006536D02*
X089546Y006772D01*
X090073Y006772D02*
X090073Y006536D01*
X090546Y006536D02*
X090546Y006772D01*
X092073Y006772D02*
X092073Y006536D01*
X092546Y006536D02*
X092546Y006772D01*
X093073Y006772D02*
X093073Y006536D01*
X093546Y006536D02*
X093546Y006772D01*
X095073Y006772D02*
X095073Y006536D01*
X095546Y006536D02*
X095546Y006772D01*
X096073Y006772D02*
X096073Y006536D01*
X096546Y006536D02*
X096546Y006772D01*
X098059Y006772D02*
X098059Y006536D01*
X098532Y006536D02*
X098532Y006772D01*
X099059Y006772D02*
X099059Y006536D01*
X099532Y006536D02*
X099532Y006772D01*
X101672Y006772D02*
X101672Y006536D01*
X102144Y006536D02*
X102144Y006772D01*
X102632Y006772D02*
X102632Y006536D01*
X103105Y006536D02*
X103105Y006772D01*
X104632Y006772D02*
X104632Y006536D01*
X105105Y006536D02*
X105105Y006772D01*
X105660Y006772D02*
X105660Y006536D01*
X106132Y006536D02*
X106132Y006772D01*
X107573Y006772D02*
X107573Y006536D01*
X108046Y006536D02*
X108046Y006772D01*
X108652Y006772D02*
X108652Y006536D01*
X109124Y006536D02*
X109124Y006772D01*
X110658Y006772D02*
X110658Y006536D01*
X111130Y006536D02*
X111130Y006772D01*
X111658Y006772D02*
X111658Y006536D01*
X112130Y006536D02*
X112130Y006772D01*
X114270Y006772D02*
X114270Y006536D01*
X114743Y006536D02*
X114743Y006772D01*
X115256Y006772D02*
X115256Y006536D01*
X115729Y006536D02*
X115729Y006772D01*
X117258Y006772D02*
X117258Y006536D01*
X117731Y006536D02*
X117731Y006772D01*
X118258Y006772D02*
X118258Y006536D01*
X118731Y006536D02*
X118731Y006772D01*
X120211Y006772D02*
X120211Y006536D01*
X120683Y006536D02*
X120683Y006772D01*
X121290Y006772D02*
X121290Y006536D01*
X121762Y006536D02*
X121762Y006772D01*
X123256Y006772D02*
X123256Y006536D01*
X123729Y006536D02*
X123729Y006772D01*
X124256Y006772D02*
X124256Y006536D01*
X124729Y006536D02*
X124729Y006772D01*
X126869Y006772D02*
X126869Y006536D01*
X127341Y006536D02*
X127341Y006772D01*
X127855Y006772D02*
X127855Y006536D01*
X128327Y006536D02*
X128327Y006772D01*
X129857Y006772D02*
X129857Y006536D01*
X130329Y006536D02*
X130329Y006772D01*
X130857Y006772D02*
X130857Y006536D01*
X131329Y006536D02*
X131329Y006772D01*
X132829Y006772D02*
X132829Y006536D01*
X133302Y006536D02*
X133302Y006772D01*
X133869Y006772D02*
X133869Y006536D01*
X134341Y006536D02*
X134341Y006772D01*
X135855Y006772D02*
X135855Y006536D01*
X136327Y006536D02*
X136327Y006772D01*
X136855Y006772D02*
X136855Y006536D01*
X137327Y006536D02*
X137327Y006772D01*
X139573Y006772D02*
X139573Y006536D01*
X140046Y006536D02*
X140046Y006772D01*
X140453Y006772D02*
X140453Y006536D01*
X140926Y006536D02*
X140926Y006772D01*
X142453Y006772D02*
X142453Y006536D01*
X142926Y006536D02*
X142926Y006772D01*
X143453Y006772D02*
X143453Y006536D01*
X143926Y006536D02*
X143926Y006772D01*
X145453Y006772D02*
X145453Y006536D01*
X145926Y006536D02*
X145926Y006772D01*
X146453Y006772D02*
X146453Y006536D01*
X146926Y006536D02*
X146926Y006772D01*
X148453Y006772D02*
X148453Y006536D01*
X148926Y006536D02*
X148926Y006772D01*
X149453Y006772D02*
X149453Y006536D01*
X149926Y006536D02*
X149926Y006772D01*
X149926Y025536D02*
X149926Y025772D01*
X149453Y025772D02*
X149453Y025536D01*
X148926Y025536D02*
X148926Y025772D01*
X148453Y025772D02*
X148453Y025536D01*
X146926Y025536D02*
X146926Y025772D01*
X146453Y025772D02*
X146453Y025536D01*
X145926Y025536D02*
X145926Y025772D01*
X145453Y025772D02*
X145453Y025536D01*
X143926Y025536D02*
X143926Y025772D01*
X143453Y025772D02*
X143453Y025536D01*
X142926Y025536D02*
X142926Y025772D01*
X142453Y025772D02*
X142453Y025536D01*
X140926Y025536D02*
X140926Y025772D01*
X140453Y025772D02*
X140453Y025536D01*
X139947Y025536D02*
X139947Y025772D01*
X139475Y025772D02*
X139475Y025536D01*
X137327Y025536D02*
X137327Y025772D01*
X136855Y025772D02*
X136855Y025536D01*
X136327Y025536D02*
X136327Y025772D01*
X135855Y025772D02*
X135855Y025536D01*
X134341Y025536D02*
X134341Y025772D01*
X133869Y025772D02*
X133869Y025536D01*
X133302Y025536D02*
X133302Y025772D01*
X132829Y025772D02*
X132829Y025536D01*
X131302Y025536D02*
X131302Y025772D01*
X130829Y025772D02*
X130829Y025536D01*
X130321Y025536D02*
X130321Y025772D01*
X129849Y025772D02*
X129849Y025536D01*
X128327Y025536D02*
X128327Y025772D01*
X127855Y025772D02*
X127855Y025536D01*
X127341Y025536D02*
X127341Y025772D01*
X126869Y025772D02*
X126869Y025536D01*
X124729Y025536D02*
X124729Y025772D01*
X124256Y025772D02*
X124256Y025536D01*
X123729Y025536D02*
X123729Y025772D01*
X123256Y025772D02*
X123256Y025536D01*
X121743Y025536D02*
X121743Y025772D01*
X121270Y025772D02*
X121270Y025536D01*
X120723Y025536D02*
X120723Y025772D01*
X120250Y025772D02*
X120250Y025536D01*
X118723Y025536D02*
X118723Y025772D01*
X118250Y025772D02*
X118250Y025536D01*
X117743Y025536D02*
X117743Y025772D01*
X117270Y025772D02*
X117270Y025536D01*
X115729Y025536D02*
X115729Y025772D01*
X115256Y025772D02*
X115256Y025536D01*
X114743Y025536D02*
X114743Y025772D01*
X114270Y025772D02*
X114270Y025536D01*
X112130Y025536D02*
X112130Y025772D01*
X111658Y025772D02*
X111658Y025536D01*
X111130Y025536D02*
X111130Y025772D01*
X110658Y025772D02*
X110658Y025536D01*
X109128Y025536D02*
X109128Y025772D01*
X108656Y025772D02*
X108656Y025536D01*
X108144Y025536D02*
X108144Y025772D01*
X107672Y025772D02*
X107672Y025536D01*
X106132Y025536D02*
X106132Y025772D01*
X105660Y025772D02*
X105660Y025536D01*
X105105Y025536D02*
X105105Y025772D01*
X104632Y025772D02*
X104632Y025536D01*
X103105Y025536D02*
X103105Y025772D01*
X102632Y025772D02*
X102632Y025536D01*
X102144Y025536D02*
X102144Y025772D01*
X101672Y025772D02*
X101672Y025536D01*
X099532Y025536D02*
X099532Y025772D01*
X099059Y025772D02*
X099059Y025536D01*
X098532Y025536D02*
X098532Y025772D01*
X098059Y025772D02*
X098059Y025536D01*
X096546Y025536D02*
X096546Y025772D01*
X096073Y025772D02*
X096073Y025536D01*
X095546Y025536D02*
X095546Y025772D01*
X095073Y025772D02*
X095073Y025536D01*
X093546Y025536D02*
X093546Y025772D01*
X093073Y025772D02*
X093073Y025536D01*
X092546Y025536D02*
X092546Y025772D01*
X092073Y025772D02*
X092073Y025536D01*
X090546Y025536D02*
X090546Y025772D01*
X090073Y025772D02*
X090073Y025536D01*
X089546Y025536D02*
X089546Y025772D01*
X089073Y025772D02*
X089073Y025536D01*
X086933Y025536D02*
X086933Y025772D01*
X086461Y025772D02*
X086461Y025536D01*
X085933Y025536D02*
X085933Y025772D01*
X085461Y025772D02*
X085461Y025536D01*
X084046Y025536D02*
X084046Y025772D01*
X083573Y025772D02*
X083573Y025536D01*
X082933Y025536D02*
X082933Y025772D01*
X082461Y025772D02*
X082461Y025536D01*
X081046Y025536D02*
X081046Y025772D01*
X080573Y025772D02*
X080573Y025536D01*
X080046Y025536D02*
X080046Y025772D01*
X079573Y025772D02*
X079573Y025536D01*
X078046Y025536D02*
X078046Y025772D01*
X077573Y025772D02*
X077573Y025536D01*
X077046Y025536D02*
X077046Y025772D01*
X076573Y025772D02*
X076573Y025536D01*
X074335Y025536D02*
X074335Y025772D01*
X073863Y025772D02*
X073863Y025536D01*
X073335Y025536D02*
X073335Y025772D01*
X072863Y025772D02*
X072863Y025536D01*
X071335Y025536D02*
X071335Y025772D01*
X070863Y025772D02*
X070863Y025536D01*
X070335Y025536D02*
X070335Y025772D01*
X069863Y025772D02*
X069863Y025536D01*
X068335Y025536D02*
X068335Y025772D01*
X067863Y025772D02*
X067863Y025536D01*
X067335Y025536D02*
X067335Y025772D01*
X066863Y025772D02*
X066863Y025536D01*
X065335Y025536D02*
X065335Y025772D01*
X064863Y025772D02*
X064863Y025536D01*
X064335Y025536D02*
X064335Y025772D01*
X063863Y025772D02*
X063863Y025536D01*
X061737Y025536D02*
X061737Y025772D01*
X061264Y025772D02*
X061264Y025536D01*
X060737Y025536D02*
X060737Y025772D01*
X060264Y025772D02*
X060264Y025536D01*
X058737Y025536D02*
X058737Y025772D01*
X058264Y025772D02*
X058264Y025536D01*
X057737Y025536D02*
X057737Y025772D01*
X057264Y025772D02*
X057264Y025536D01*
X055737Y025536D02*
X055737Y025772D01*
X055264Y025772D02*
X055264Y025536D01*
X054737Y025536D02*
X054737Y025772D01*
X054264Y025772D02*
X054264Y025536D01*
X052737Y025536D02*
X052737Y025772D01*
X052264Y025772D02*
X052264Y025536D01*
X051737Y025536D02*
X051737Y025772D01*
X051264Y025772D02*
X051264Y025536D01*
X049138Y025536D02*
X049138Y025772D01*
X048666Y025772D02*
X048666Y025536D01*
X048138Y025536D02*
X048138Y025772D01*
X047666Y025772D02*
X047666Y025536D01*
X046138Y025536D02*
X046138Y025772D01*
X045666Y025772D02*
X045666Y025536D01*
X045138Y025536D02*
X045138Y025772D01*
X044666Y025772D02*
X044666Y025536D01*
X043138Y025536D02*
X043138Y025772D01*
X042666Y025772D02*
X042666Y025536D01*
X042138Y025536D02*
X042138Y025772D01*
X041666Y025772D02*
X041666Y025536D01*
X040138Y025536D02*
X040138Y025772D01*
X039666Y025772D02*
X039666Y025536D01*
X039138Y025536D02*
X039138Y025772D01*
X038666Y025772D02*
X038666Y025536D01*
X036540Y025536D02*
X036540Y025772D01*
X036067Y025772D02*
X036067Y025536D01*
X035540Y025536D02*
X035540Y025772D01*
X035067Y025772D02*
X035067Y025536D01*
X033540Y025536D02*
X033540Y025772D01*
X033067Y025772D02*
X033067Y025536D01*
X032540Y025536D02*
X032540Y025772D01*
X032067Y025772D02*
X032067Y025536D01*
X030540Y025536D02*
X030540Y025772D01*
X030067Y025772D02*
X030067Y025536D01*
X029540Y025536D02*
X029540Y025772D01*
X029067Y025772D02*
X029067Y025536D01*
X027540Y025536D02*
X027540Y025772D01*
X027067Y025772D02*
X027067Y025536D01*
X026540Y025536D02*
X026540Y025772D01*
X026067Y025772D02*
X026067Y025536D01*
X023941Y025786D02*
X023941Y026022D01*
X023469Y026022D02*
X023469Y025786D01*
X022941Y025786D02*
X022941Y026022D01*
X022469Y026022D02*
X022469Y025786D01*
X020941Y025786D02*
X020941Y026022D01*
X020469Y026022D02*
X020469Y025786D01*
X019941Y025786D02*
X019941Y026022D01*
X019469Y026022D02*
X019469Y025786D01*
X017941Y025786D02*
X017941Y026022D01*
X017469Y026022D02*
X017469Y025786D01*
X016941Y025786D02*
X016941Y026022D01*
X016469Y026022D02*
X016469Y025786D01*
X014941Y025786D02*
X014941Y026022D01*
X014469Y026022D02*
X014469Y025786D01*
X013941Y025786D02*
X013941Y026022D01*
X013469Y026022D02*
X013469Y025786D01*
X011343Y025786D02*
X011343Y026022D01*
X010870Y026022D02*
X010870Y025786D01*
X010343Y025786D02*
X010343Y026022D01*
X009870Y026022D02*
X009870Y025786D01*
X008343Y025786D02*
X008343Y026022D01*
X007870Y026022D02*
X007870Y025786D01*
X007343Y025786D02*
X007343Y026022D01*
X006870Y026022D02*
X006870Y025786D01*
X005343Y025786D02*
X005343Y026022D01*
X004870Y026022D02*
X004870Y025786D01*
X004343Y025786D02*
X004343Y026022D01*
X003870Y026022D02*
X003870Y025786D01*
X002343Y025786D02*
X002343Y026022D01*
X001870Y026022D02*
X001870Y025786D01*
X001343Y025786D02*
X001343Y026022D01*
X000870Y026022D02*
X000870Y025786D01*
M02*
