%
M48
M72
T01C0.0150
T02C0.0315
T03C0.0400
T04C0.1575
%
T01
X4393Y4132
X7853Y4583
X11403Y4255
X6408Y7317
X5640Y7149
X5477Y9040
X2680Y9492
X3587Y9830
X4734Y10671
X9112Y10360
X12998Y10226
X15605Y10396
X15963Y10762
X16585Y10093
X18681Y10711
X20624Y11108
X21470Y10589
X23647Y11031
X25099Y11774
X26423Y12275
X27424Y11809
X25388Y12869
X23247Y12031
X18806Y12703
X15625Y12800
X10020Y12345
X4988Y12339
X3427Y12536
X15023Y15792
X12557Y16013
X13550Y16456
X12576Y16507
X18691Y15565
X26572Y16347
X28159Y16710
X28256Y15908
X24940Y13851
X24232Y13789
X28531Y13128
X30891Y12717
X31405Y12835
X32576Y12315
X33860Y11937
X35285Y11529
X36593Y10991
X35893Y10734
X34997Y10842
X34541Y10756
X32339Y11133
X33164Y10289
X29200Y10289
X24617Y9198
X24442Y9654
X23986Y9766
X23023Y9151
X22282Y9343
X20188Y8769
X18668Y9262
X18852Y9828
X23364Y8490
X23710Y8190
X22180Y8298
X21382Y8294
X21093Y7937
X20365Y7615
X21273Y7397
X22999Y7464
X23974Y7514
X24873Y7610
X25437Y6921
X27838Y6681
X29887Y5915
X26731Y5639
X25436Y6025
X24355Y6135
X31894Y8065
X33141Y8110
X32299Y8558
X33639Y8963
X34640Y8947
X35030Y8684
X35302Y8294
X37939Y8181
X38074Y8637
X38516Y8417
X38071Y7447
X37521Y7109
X35201Y7455
X34106Y6132
X13882Y7690
X35467Y12301
X36866Y12800
X39394Y12472
X39009Y12104
X41016Y12472
X42880Y12119
X43652Y12535
X44356Y13237
X47374Y12800
X55005Y12488
X56039Y13127
X57699Y12344
X60500Y12344
X62874Y11448
X63408Y11483
X66104Y12191
X67219Y12316
X69347Y12322
X70137Y12306
X70991Y12062
X72263Y12245
X73099Y12305
X72263Y12811
X71587Y13127
X75724Y14047
X74585Y15377
X79249Y16484
X91052Y18734
X87223Y19498
X88081Y20255
X89404Y20232
X90137Y20245
X91074Y20364
X90949Y20820
X89620Y20996
X92336Y20485
X94014Y20562
X94687Y21235
X93989Y21804
X92733Y22115
X91911Y21877
X91406Y22560
X88555Y23097
X90229Y23495
X89862Y23816
X89508Y24155
X88581Y23774
X92360Y23521
X94401Y23763
X94891Y23591
X95259Y23269
X93988Y24747
X92386Y24657
X91402Y24667
X89020Y24633
X88555Y24697
X93839Y25491
X94770Y25627
X83087Y24756
X80315Y24131
X76247Y24951
X75357Y26549
X68867Y25539
X69305Y25010
X68857Y24721
X66361Y24972
X65624Y25300
X66384Y25648
X64615Y24763
X63584Y24538
X63255Y24877
X62247Y24630
X60936Y24620
X59818Y24208
X61688Y23870
X63271Y24183
X63947Y24142
X64226Y23669
X63340Y23273
X64502Y23230
X66262Y23500
X72317Y22263
X72070Y21552
X72624Y21256
X74381Y20787
X74919Y20843
X75809Y21106
X78101Y21721
X79946Y21455
X80604Y22008
X82223Y22336
X82877Y21385
X82144Y21243
X83819Y20773
X84313Y20623
X88027Y21260
X86248Y21349
X79287Y20302
X78126Y19911
X81580Y19508
X82280Y19508
X83329Y19165
X68639Y19508
X66427Y19925
X66022Y19505
X65559Y19155
X64057Y20030
X63205Y20384
X61838Y20604
X61817Y20143
X61323Y20246
X59918Y20571
X59931Y21063
X60168Y21522
X61553Y21008
X62547Y21052
X63685Y21647
X60214Y22099
X58301Y22148
X55840Y22529
X54888Y21981
X54198Y22617
X55958Y23768
X56695Y23780
X55119Y24120
X55080Y24650
X57087Y24678
X56179Y25649
X58954Y25649
X59968Y26188
X59928Y26666
X46931Y25196
X45026Y24282
X45452Y24063
X43883Y24401
X41943Y24854
X40576Y24249
X41511Y24133
X42041Y23285
X41474Y23095
X41012Y22683
X43590Y22455
X43704Y23212
X37986Y24180
X39190Y24510
X37859Y24878
X32806Y24543
X30084Y23263
X34506Y22680
X35994Y22299
X37934Y22362
X37866Y22819
X37635Y23233
X39531Y21813
X39364Y21136
X39338Y20680
X40092Y21091
X41227Y20738
X40204Y20414
X40645Y20210
X39817Y20014
X38860Y20178
X36158Y20877
X35860Y21535
X35302Y21453
X34262Y21961
X30138Y21557
X29673Y20828
X28159Y20465
X26024Y20592
X27049Y21183
X24703Y21902
X24116Y21524
X22015Y22270
X20011Y21902
X17946Y22029
X15565Y22092
X15565Y22594
X14197Y22726
X13804Y22447
X13732Y21771
X13174Y21372
X11534Y21105
X11881Y20757
X12280Y20509
X12679Y20208
X14029Y19986
X15884Y19803
X16470Y20290
X16055Y20620
X15711Y19319
X12976Y18587
X12459Y18590
X18793Y18382
X9974Y20306
X8079Y20906
X7718Y21293
X9823Y21197
X8125Y21998
X6413Y22933
X5000Y22744
X3483Y22928
X4062Y22182
X3100Y21151
X6813Y20214
X5624Y19181
X11014Y22670
X15566Y23610
X17954Y23115
X17141Y22653
X21820Y23307
X22300Y22778
X24404Y22299
X18283Y23990
X17455Y24929
X15940Y25344
X15252Y25187
X13978Y24909
X13510Y24758
X11074Y24574
X10558Y24560
X10165Y23924
X11644Y26169
X13039Y26326
X15589Y25877
X20502Y25101
X23937Y24414
X37683Y26317
X41250Y26181
X43431Y25326
X46468Y26416
X60077Y23301
X52850Y21463
X56983Y20455
X55889Y19925
X59063Y19377
X59513Y18510
X62589Y18680
X66895Y20504
X68227Y21618
X74860Y22405
X75485Y23255
X46577Y21673
X43952Y21234
X43952Y20337
X43854Y19878
X43431Y19629
X42110Y19986
X34724Y19140
X33893Y19551
X34289Y18564
X34607Y13569
X37862Y10531
X57015Y6681
X59466Y6342
X63468Y7424
X66472Y8124
X66855Y7774
X67350Y7842
X68505Y8254
X69763Y8106
X70999Y8232
X72481Y8390
X72495Y7881
X73861Y7550
X70789Y7483
X68924Y7430
X71770Y6681
X78577Y6681
X81882Y5920
X87747Y7388
X85357Y7457
X84849Y7752
X84382Y7569
X82298Y7680
X81789Y8383
X83395Y8136
X84943Y8493
X85498Y8515
X83289Y9072
X84372Y9687
X83068Y9810
X84283Y10367
X86035Y10178
X86495Y10208
X85877Y9720
X87813Y9445
X90584Y9067
X88104Y8476
X89328Y7811
X80006Y8883
X78643Y9571
X79710Y10248
X77933Y11151
X78746Y11467
X76944Y12125
X72818Y11467
X70319Y11337
X69397Y11645
X68576Y11917
X69051Y11007
X66331Y11448
X67404Y10132
X66194Y9951
X69212Y10294
X72256Y10761
X72818Y10349
X72362Y10305
X70677Y9186
X75849Y8883
X82114Y10995
X83273Y11455
X85656Y12185
X84850Y12312
X82750Y12304
X87160Y13169
X88776Y12800
X87800Y12392
X87752Y11412
X92591Y12346
X93326Y11768
X93231Y11091
X93799Y13127
X82279Y13571
X66299Y15384
X59506Y15346
X65739Y13155
X58041Y10960
X59357Y9506
X63235Y8443
X64816Y8471
X104074Y7047
X106032Y7639
X106423Y6681
X114924Y7554
X117617Y7463
X118104Y7430
X119683Y7473
X120586Y7455
X121317Y7703
X122922Y7356
X122357Y7024
X123819Y7581
X123524Y8559
X122649Y9043
X120852Y9025
X119568Y8954
X118367Y8340
X115212Y9306
X116481Y9426
X116509Y9909
X117039Y10708
X117789Y11301
X119469Y11329
X119087Y11725
X120681Y11787
X121174Y11870
X122881Y11724
X122895Y12223
X123351Y12331
X122293Y12698
X122644Y13127
X121963Y13155
X123002Y13823
X127138Y12340
X124543Y12044
X125795Y11704
X126036Y11127
X126278Y10712
X127818Y10558
X129902Y10203
X130449Y10038
X129392Y9829
X129307Y9164
X132180Y9053
X134243Y8967
X134656Y8618
X136523Y8340
X136134Y8022
X136515Y7396
X134862Y7398
X132255Y7571
X132659Y7970
X129021Y6681
X131910Y5914
X135477Y6139
X138198Y7085
X141325Y6847
X144489Y7330
X146200Y8600
X138139Y9396
X136874Y9654
X136558Y9308
X134941Y9682
X134774Y10142
X133091Y10907
X133781Y11253
X134134Y11787
X133737Y12129
X133204Y12320
X135264Y12052
X136346Y11935
X138329Y12033
X140168Y12472
X141565Y12472
X137630Y12646
X131978Y13831
X128781Y11000
X126509Y9862
X122946Y10819
X122653Y10466
X121356Y10435
X120321Y10219
X114431Y11293
X113729Y11648
X110894Y11781
X114018Y12445
X115933Y14084
X107433Y12472
X108983Y9611
X138367Y11100
X146189Y13169
X147767Y12251
X147508Y11110
X138082Y18298
X137896Y19578
X140486Y19998
X141366Y19988
X142036Y20336
X143126Y20436
X144527Y20608
X145225Y21300
X144735Y21652
X146556Y21647
X144708Y22543
X145702Y22782
X143077Y22881
X142796Y22500
X141580Y22512
X141061Y22638
X141505Y22981
X141284Y23887
X140322Y24334
X139390Y24727
X138210Y24389
X138524Y23704
X138425Y23016
X139472Y22995
X136949Y22634
X135054Y22075
X132993Y22331
X131003Y21863
X130345Y21951
X127760Y21369
X128030Y22331
X126499Y22986
X124558Y22639
X125590Y22294
X123113Y21951
X122682Y22480
X118955Y23300
X118316Y23125
X117939Y23399
X116786Y23624
X117121Y23963
X116348Y24454
X117950Y24424
X117984Y24972
X116848Y24980
X116347Y24982
X116603Y25706
X119710Y25627
X114257Y24374
X113772Y24312
X111203Y24691
X110440Y24623
X109836Y25196
X106891Y24689
X108032Y23970
X106817Y23694
X108773Y23015
X110469Y23098
X111262Y22793
X110744Y22355
X110165Y21666
X111651Y21119
X112261Y20869
X112593Y21263
X114037Y21536
X114467Y21756
X114904Y21964
X116408Y21512
X114895Y20536
X114493Y20138
X113781Y20459
X113317Y20397
X111765Y20401
X113002Y20021
X113580Y20001
X116228Y19754
X117032Y20100
X117963Y20313
X118019Y19167
X113729Y18617
X107376Y19508
X107079Y20889
X106804Y21259
X107737Y21597
X106980Y22804
X110285Y24045
X112763Y23359
X113833Y23672
X109900Y25950
X126110Y23746
X131132Y24016
X132652Y24261
X132299Y25246
X137822Y26291
X138845Y26172
X141459Y24906
X142997Y24844
X144383Y24779
X144851Y24599
X145218Y23989
X146136Y23732
X145157Y25317
X144927Y26056
X146385Y27741
X142484Y21855
X141968Y21880
X138987Y21142
X140667Y20702
X139078Y20561
X133557Y21355
X132699Y20497
X130561Y19852
X131793Y19181
T02
X132091Y17729
X133091Y17729
X134091Y17729
X135091Y17729
X136091Y17729
X137091Y17729
X138091Y17729
X139689Y17729
X140689Y17729
X141689Y17729
X142689Y17729
X143689Y17729
X144689Y17729
X145689Y17729
X146689Y17729
X147689Y17729
X148689Y17729
X149689Y17729
X150689Y17729
X150689Y14579
X149689Y14579
X148689Y14579
X147689Y14579
X146689Y14579
X145689Y14579
X144689Y14579
X143689Y14579
X142689Y14579
X141689Y14579
X140689Y14579
X139689Y14579
X138091Y14579
X137091Y14579
X136091Y14579
X135091Y14579
X134091Y14579
X133091Y14579
X132091Y14579
X131091Y14579
X130091Y14579
X129091Y14579
X128091Y14579
X127091Y14579
X125493Y14579
X124493Y14579
X123493Y14579
X122493Y14579
X121493Y14579
X120493Y14579
X119493Y14579
X118493Y14579
X117493Y14579
X116493Y14579
X115493Y14579
X114493Y14579
X112894Y14579
X111894Y14579
X110894Y14579
X109894Y14579
X108894Y14579
X107894Y14579
X106894Y14579
X105894Y14579
X104894Y14579
X103894Y14579
X102894Y14579
X101894Y14579
X100296Y14579
X99296Y14579
X98296Y14579
X97296Y14579
X96296Y14579
X95296Y14579
X94296Y14579
X93296Y14579
X92296Y14579
X91296Y14579
X90296Y14579
X89296Y14579
X87697Y14579
X86697Y14579
X85697Y14579
X84697Y14579
X83697Y14579
X82697Y14579
X81697Y14579
X80697Y14579
X79697Y14579
X78697Y14579
X77697Y14579
X76697Y14579
X75099Y14579
X74099Y14579
X73099Y14579
X72099Y14579
X71099Y14579
X70099Y14579
X69099Y14579
X68099Y14579
X67099Y14579
X66099Y14579
X65099Y14579
X64099Y14579
X62500Y14579
X61500Y14579
X60500Y14579
X59500Y14579
X58500Y14579
X57500Y14579
X56500Y14579
X55500Y14579
X54500Y14579
X53500Y14579
X52500Y14579
X51500Y14579
X49902Y14579
X48902Y14579
X47902Y14579
X46902Y14579
X45902Y14579
X44902Y14579
X43902Y14579
X42902Y14579
X41902Y14579
X40902Y14579
X39902Y14579
X38902Y14579
X37304Y14579
X36304Y14579
X35304Y14579
X34304Y14579
X33304Y14579
X32304Y14579
X31304Y14579
X30304Y14579
X29304Y14579
X28304Y14579
X27304Y14579
X26304Y14579
X24705Y14579
X23705Y14579
X22705Y14579
X21705Y14579
X20705Y14579
X19705Y14579
X18705Y14579
X17705Y14579
X16705Y14579
X15705Y14579
X14705Y14579
X13705Y14579
X12107Y14579
X11107Y14579
X10107Y14579
X9107Y14579
X8107Y14579
X7107Y14579
X6107Y14579
X5107Y14579
X4107Y14579
X3107Y14579
X2107Y14579
X1107Y14579
X1107Y17729
X2107Y17729
X3107Y17729
X4107Y17729
X5107Y17729
X6107Y17729
X7107Y17729
X8107Y17729
X9107Y17729
X10107Y17729
X11107Y17729
X12107Y17729
X13705Y17729
X14705Y17729
X15705Y17729
X16705Y17729
X17705Y17729
X18705Y17729
X19705Y17729
X20705Y17729
X21705Y17729
X22705Y17729
X23705Y17729
X24705Y17729
X26304Y17729
X27304Y17729
X28304Y17729
X29304Y17729
X30304Y17729
X31304Y17729
X32304Y17729
X33304Y17729
X34304Y17729
X35304Y17729
X36304Y17729
X37304Y17729
X38902Y17729
X39902Y17729
X40902Y17729
X41902Y17729
X42902Y17729
X43902Y17729
X44902Y17729
X45902Y17729
X46902Y17729
X47902Y17729
X48902Y17729
X49902Y17729
X51500Y17729
X52500Y17729
X53500Y17729
X54500Y17729
X55500Y17729
X56500Y17729
X57500Y17729
X58500Y17729
X59500Y17729
X60500Y17729
X61500Y17729
X62500Y17729
X64099Y17729
X65099Y17729
X66099Y17729
X67099Y17729
X68099Y17729
X69099Y17729
X70099Y17729
X71099Y17729
X72099Y17729
X73099Y17729
X74099Y17729
X75099Y17729
X76697Y17729
X77697Y17729
X78697Y17729
X79697Y17729
X80697Y17729
X81697Y17729
X82697Y17729
X83697Y17729
X84697Y17729
X85697Y17729
X86697Y17729
X87697Y17729
X89296Y17729
X90296Y17729
X91296Y17729
X92296Y17729
X93296Y17729
X94296Y17729
X95296Y17729
X96296Y17729
X97296Y17729
X98296Y17729
X99296Y17729
X100296Y17729
X101894Y17729
X102894Y17729
X103894Y17729
X104894Y17729
X105894Y17729
X106894Y17729
X107894Y17729
X108894Y17729
X109894Y17729
X110894Y17729
X111894Y17729
X112894Y17729
X114493Y17729
X115493Y17729
X116493Y17729
X117493Y17729
X118493Y17729
X119493Y17729
X120493Y17729
X121493Y17729
X122493Y17729
X123493Y17729
X124493Y17729
X125493Y17729
X127091Y17729
X128091Y17729
X129091Y17729
X130091Y17729
X131091Y17729
X131091Y27178
X132091Y27178
X133091Y27178
X134091Y27178
X135091Y27178
X136091Y27178
X137091Y27178
X138091Y27178
X139689Y27178
X140689Y27178
X141689Y27178
X142689Y27178
X143689Y27178
X144689Y27178
X145689Y27178
X146689Y27178
X147689Y27178
X148689Y27178
X149689Y27178
X150689Y27178
X130091Y27178
X129091Y27178
X128091Y27178
X127091Y27178
X125493Y27178
X124493Y27178
X123493Y27178
X122493Y27178
X121493Y27178
X120493Y27178
X119493Y27178
X118493Y27178
X117493Y27178
X116493Y27178
X115493Y27178
X114493Y27178
X112894Y27178
X111894Y27178
X110894Y27178
X109894Y27178
X108894Y27178
X107894Y27178
X106894Y27178
X105894Y27178
X104894Y27178
X103894Y27178
X102894Y27178
X101894Y27178
X100296Y27178
X99296Y27178
X98296Y27178
X97296Y27178
X96296Y27178
X95296Y27178
X94296Y27178
X93296Y27178
X92296Y27178
X91296Y27178
X90296Y27178
X89296Y27178
X87697Y27178
X86697Y27178
X85697Y27178
X84697Y27178
X83697Y27178
X82697Y27178
X81697Y27178
X80697Y27178
X79697Y27178
X78697Y27178
X77697Y27178
X76697Y27178
X75099Y27178
X74099Y27178
X73099Y27178
X72099Y27178
X71099Y27178
X70099Y27178
X69099Y27178
X68099Y27178
X67099Y27178
X66099Y27178
X65099Y27178
X64099Y27178
X62500Y27178
X61500Y27178
X60500Y27178
X59500Y27178
X58500Y27178
X57500Y27178
X56500Y27178
X55500Y27178
X54500Y27178
X53500Y27178
X52500Y27178
X51500Y27178
X49902Y27178
X48902Y27178
X47902Y27178
X46902Y27178
X45902Y27178
X44902Y27178
X43902Y27178
X42902Y27178
X41902Y27178
X40902Y27178
X39902Y27178
X38902Y27178
X37304Y27178
X36304Y27178
X35304Y27178
X34304Y27178
X33304Y27178
X32304Y27178
X31304Y27178
X30304Y27178
X29304Y27178
X28304Y27178
X27304Y27178
X26304Y27178
X24705Y27178
X23705Y27178
X22705Y27178
X21705Y27178
X20705Y27178
X19705Y27178
X18705Y27178
X17705Y27178
X16705Y27178
X15705Y27178
X14705Y27178
X13705Y27178
X12107Y27178
X11107Y27178
X10107Y27178
X9107Y27178
X8107Y27178
X7107Y27178
X6107Y27178
X5107Y27178
X4107Y27178
X3107Y27178
X2107Y27178
X1107Y27178
X1107Y5130
X2107Y5130
X3107Y5130
X4107Y5130
X5107Y5130
X6107Y5130
X7107Y5130
X8107Y5130
X9107Y5130
X10107Y5130
X11107Y5130
X12107Y5130
X13705Y5130
X14705Y5130
X15705Y5130
X16705Y5130
X17705Y5130
X18705Y5130
X19705Y5130
X20705Y5130
X21705Y5130
X22705Y5130
X23705Y5130
X24705Y5130
X26304Y5130
X27304Y5130
X28304Y5130
X29304Y5130
X30304Y5130
X31304Y5130
X32304Y5130
X33304Y5130
X34304Y5130
X35304Y5130
X36304Y5130
X37304Y5130
X38902Y5130
X39902Y5130
X40902Y5130
X41902Y5130
X42902Y5130
X43902Y5130
X44902Y5130
X45902Y5130
X46902Y5130
X47902Y5130
X48902Y5130
X49902Y5130
X51500Y5130
X52500Y5130
X53500Y5130
X54500Y5130
X55500Y5130
X56500Y5130
X57500Y5130
X58500Y5130
X59500Y5130
X60500Y5130
X61500Y5130
X62500Y5130
X64099Y5130
X65099Y5130
X66099Y5130
X67099Y5130
X68099Y5130
X69099Y5130
X70099Y5130
X71099Y5130
X72099Y5130
X73099Y5130
X74099Y5130
X75099Y5130
X76697Y5130
X77697Y5130
X78697Y5130
X79697Y5130
X80697Y5130
X81697Y5130
X82697Y5130
X83697Y5130
X84697Y5130
X85697Y5130
X86697Y5130
X87697Y5130
X89296Y5130
X90296Y5130
X91296Y5130
X92296Y5130
X93296Y5130
X94296Y5130
X95296Y5130
X96296Y5130
X97296Y5130
X98296Y5130
X99296Y5130
X100296Y5130
X101894Y5130
X102894Y5130
X103894Y5130
X104894Y5130
X105894Y5130
X106894Y5130
X107894Y5130
X108894Y5130
X109894Y5130
X110894Y5130
X111894Y5130
X112894Y5130
X114493Y5130
X115493Y5130
X116493Y5130
X117493Y5130
X118493Y5130
X119493Y5130
X120493Y5130
X121493Y5130
X122493Y5130
X123493Y5130
X124493Y5130
X125493Y5130
X127091Y5130
X128091Y5130
X129091Y5130
X130091Y5130
X131091Y5130
X132091Y5130
X133091Y5130
X134091Y5130
X135091Y5130
X136091Y5130
X137091Y5130
X138091Y5130
X139689Y5130
X140689Y5130
X141689Y5130
X142689Y5130
X143689Y5130
X144689Y5130
X145689Y5130
X146689Y5130
X147689Y5130
X148689Y5130
X149689Y5130
X150689Y5130
T03
X14502Y9882
X13502Y9882
X12502Y9882
X11502Y9882
X10502Y9882
X9502Y9882
X8502Y9882
X7502Y9882
X7502Y10882
X8502Y10882
X9502Y10882
X10502Y10882
X11502Y10882
X12502Y10882
X13502Y10882
X14502Y10882
T04
X2150Y2158
X48650Y2158
X52650Y2158
X99150Y2158
X103150Y2158
X149650Y2158
X149650Y30150
X103150Y30150
X99150Y30150
X52650Y30150
X48650Y30150
X2150Y30150
M30
