G75*
G70*
%OFA0B0*%
%FSLAX24Y24*%
%IPPOS*%
%LPD*%
%AMOC8*
5,1,8,0,0,1.08239X$1,22.5*
%
%ADD10C,0.0050*%
%ADD11C,0.0120*%
%ADD12C,0.0040*%
%ADD13C,0.0060*%
%ADD14C,0.0020*%
D10*
X019892Y007099D02*
X025404Y007099D01*
X025404Y012611D01*
X023148Y012611D01*
X019892Y012611D01*
X019892Y007099D01*
X031380Y007099D02*
X036892Y007099D01*
X036892Y012611D01*
X034636Y012611D01*
X031380Y012611D01*
X031380Y007099D01*
X065786Y007099D02*
X071298Y007099D01*
X071298Y012611D01*
X069042Y012611D01*
X065786Y012611D01*
X065786Y007099D01*
X081274Y007099D02*
X086786Y007099D01*
X086786Y012611D01*
X084530Y012611D01*
X081274Y012611D01*
X081274Y007099D01*
X116180Y007099D02*
X121691Y007099D01*
X121691Y012611D01*
X119435Y012611D01*
X116180Y012611D01*
X116180Y007099D01*
X131668Y007099D02*
X137180Y007099D01*
X137180Y012611D01*
X134924Y012611D01*
X131668Y012611D01*
X131668Y007099D01*
X137908Y019697D02*
X143420Y019697D01*
X143420Y025209D01*
X141164Y025209D01*
X137908Y025209D01*
X137908Y019697D01*
X115388Y019697D02*
X109876Y019697D01*
X109876Y025209D01*
X113132Y025209D01*
X115388Y025209D01*
X115388Y019697D01*
X093026Y019697D02*
X087514Y019697D01*
X087514Y025209D01*
X090770Y025209D01*
X093026Y025209D01*
X093026Y019697D01*
X064994Y019697D02*
X059483Y019697D01*
X059483Y025209D01*
X062739Y025209D01*
X064994Y025209D01*
X064994Y019697D01*
X042632Y019697D02*
X037120Y019697D01*
X037120Y025209D01*
X040376Y025209D01*
X042632Y025209D01*
X042632Y019697D01*
X014601Y019697D02*
X009089Y019697D01*
X009089Y025209D01*
X012345Y025209D01*
X014601Y025209D01*
X014601Y019697D01*
D11*
X014128Y020091D02*
X014130Y020109D01*
X014136Y020125D01*
X014145Y020140D01*
X014158Y020153D01*
X014173Y020162D01*
X014189Y020168D01*
X014207Y020170D01*
X014225Y020168D01*
X014241Y020162D01*
X014256Y020153D01*
X014269Y020140D01*
X014278Y020125D01*
X014284Y020109D01*
X014286Y020091D01*
X014284Y020073D01*
X014278Y020057D01*
X014269Y020042D01*
X014256Y020029D01*
X014241Y020020D01*
X014225Y020014D01*
X014207Y020012D01*
X014189Y020014D01*
X014173Y020020D01*
X014158Y020029D01*
X014145Y020042D01*
X014136Y020057D01*
X014130Y020073D01*
X014128Y020091D01*
X042160Y020091D02*
X042162Y020109D01*
X042168Y020125D01*
X042177Y020140D01*
X042190Y020153D01*
X042205Y020162D01*
X042221Y020168D01*
X042239Y020170D01*
X042257Y020168D01*
X042273Y020162D01*
X042288Y020153D01*
X042301Y020140D01*
X042310Y020125D01*
X042316Y020109D01*
X042318Y020091D01*
X042316Y020073D01*
X042310Y020057D01*
X042301Y020042D01*
X042288Y020029D01*
X042273Y020020D01*
X042257Y020014D01*
X042239Y020012D01*
X042221Y020014D01*
X042205Y020020D01*
X042190Y020029D01*
X042177Y020042D01*
X042168Y020057D01*
X042162Y020073D01*
X042160Y020091D01*
X064522Y020091D02*
X064524Y020109D01*
X064530Y020125D01*
X064539Y020140D01*
X064552Y020153D01*
X064567Y020162D01*
X064583Y020168D01*
X064601Y020170D01*
X064619Y020168D01*
X064635Y020162D01*
X064650Y020153D01*
X064663Y020140D01*
X064672Y020125D01*
X064678Y020109D01*
X064680Y020091D01*
X064678Y020073D01*
X064672Y020057D01*
X064663Y020042D01*
X064650Y020029D01*
X064635Y020020D01*
X064619Y020014D01*
X064601Y020012D01*
X064583Y020014D01*
X064567Y020020D01*
X064552Y020029D01*
X064539Y020042D01*
X064530Y020057D01*
X064524Y020073D01*
X064522Y020091D01*
X092553Y020091D02*
X092555Y020109D01*
X092561Y020125D01*
X092570Y020140D01*
X092583Y020153D01*
X092598Y020162D01*
X092614Y020168D01*
X092632Y020170D01*
X092650Y020168D01*
X092666Y020162D01*
X092681Y020153D01*
X092694Y020140D01*
X092703Y020125D01*
X092709Y020109D01*
X092711Y020091D01*
X092709Y020073D01*
X092703Y020057D01*
X092694Y020042D01*
X092681Y020029D01*
X092666Y020020D01*
X092650Y020014D01*
X092632Y020012D01*
X092614Y020014D01*
X092598Y020020D01*
X092583Y020029D01*
X092570Y020042D01*
X092561Y020057D01*
X092555Y020073D01*
X092553Y020091D01*
X114915Y020091D02*
X114917Y020109D01*
X114923Y020125D01*
X114932Y020140D01*
X114945Y020153D01*
X114960Y020162D01*
X114976Y020168D01*
X114994Y020170D01*
X115012Y020168D01*
X115028Y020162D01*
X115043Y020153D01*
X115056Y020140D01*
X115065Y020125D01*
X115071Y020109D01*
X115073Y020091D01*
X115071Y020073D01*
X115065Y020057D01*
X115056Y020042D01*
X115043Y020029D01*
X115028Y020020D01*
X115012Y020014D01*
X114994Y020012D01*
X114976Y020014D01*
X114960Y020020D01*
X114945Y020029D01*
X114932Y020042D01*
X114923Y020057D01*
X114917Y020073D01*
X114915Y020091D01*
X142947Y020091D02*
X142949Y020109D01*
X142955Y020125D01*
X142964Y020140D01*
X142977Y020153D01*
X142992Y020162D01*
X143008Y020168D01*
X143026Y020170D01*
X143044Y020168D01*
X143060Y020162D01*
X143075Y020153D01*
X143088Y020140D01*
X143097Y020125D01*
X143103Y020109D01*
X143105Y020091D01*
X143103Y020073D01*
X143097Y020057D01*
X143088Y020042D01*
X143075Y020029D01*
X143060Y020020D01*
X143044Y020014D01*
X143026Y020012D01*
X143008Y020014D01*
X142992Y020020D01*
X142977Y020029D01*
X142964Y020042D01*
X142955Y020057D01*
X142949Y020073D01*
X142947Y020091D01*
X136707Y007493D02*
X136709Y007511D01*
X136715Y007527D01*
X136724Y007542D01*
X136737Y007555D01*
X136752Y007564D01*
X136768Y007570D01*
X136786Y007572D01*
X136804Y007570D01*
X136820Y007564D01*
X136835Y007555D01*
X136848Y007542D01*
X136857Y007527D01*
X136863Y007511D01*
X136865Y007493D01*
X136863Y007475D01*
X136857Y007459D01*
X136848Y007444D01*
X136835Y007431D01*
X136820Y007422D01*
X136804Y007416D01*
X136786Y007414D01*
X136768Y007416D01*
X136752Y007422D01*
X136737Y007431D01*
X136724Y007444D01*
X136715Y007459D01*
X136709Y007475D01*
X136707Y007493D01*
X121219Y007493D02*
X121221Y007511D01*
X121227Y007527D01*
X121236Y007542D01*
X121249Y007555D01*
X121264Y007564D01*
X121280Y007570D01*
X121298Y007572D01*
X121316Y007570D01*
X121332Y007564D01*
X121347Y007555D01*
X121360Y007542D01*
X121369Y007527D01*
X121375Y007511D01*
X121377Y007493D01*
X121375Y007475D01*
X121369Y007459D01*
X121360Y007444D01*
X121347Y007431D01*
X121332Y007422D01*
X121316Y007416D01*
X121298Y007414D01*
X121280Y007416D01*
X121264Y007422D01*
X121249Y007431D01*
X121236Y007444D01*
X121227Y007459D01*
X121221Y007475D01*
X121219Y007493D01*
X086313Y007493D02*
X086315Y007511D01*
X086321Y007527D01*
X086330Y007542D01*
X086343Y007555D01*
X086358Y007564D01*
X086374Y007570D01*
X086392Y007572D01*
X086410Y007570D01*
X086426Y007564D01*
X086441Y007555D01*
X086454Y007542D01*
X086463Y007527D01*
X086469Y007511D01*
X086471Y007493D01*
X086469Y007475D01*
X086463Y007459D01*
X086454Y007444D01*
X086441Y007431D01*
X086426Y007422D01*
X086410Y007416D01*
X086392Y007414D01*
X086374Y007416D01*
X086358Y007422D01*
X086343Y007431D01*
X086330Y007444D01*
X086321Y007459D01*
X086315Y007475D01*
X086313Y007493D01*
X070825Y007493D02*
X070827Y007511D01*
X070833Y007527D01*
X070842Y007542D01*
X070855Y007555D01*
X070870Y007564D01*
X070886Y007570D01*
X070904Y007572D01*
X070922Y007570D01*
X070938Y007564D01*
X070953Y007555D01*
X070966Y007542D01*
X070975Y007527D01*
X070981Y007511D01*
X070983Y007493D01*
X070981Y007475D01*
X070975Y007459D01*
X070966Y007444D01*
X070953Y007431D01*
X070938Y007422D01*
X070922Y007416D01*
X070904Y007414D01*
X070886Y007416D01*
X070870Y007422D01*
X070855Y007431D01*
X070842Y007444D01*
X070833Y007459D01*
X070827Y007475D01*
X070825Y007493D01*
X036419Y007493D02*
X036421Y007511D01*
X036427Y007527D01*
X036436Y007542D01*
X036449Y007555D01*
X036464Y007564D01*
X036480Y007570D01*
X036498Y007572D01*
X036516Y007570D01*
X036532Y007564D01*
X036547Y007555D01*
X036560Y007542D01*
X036569Y007527D01*
X036575Y007511D01*
X036577Y007493D01*
X036575Y007475D01*
X036569Y007459D01*
X036560Y007444D01*
X036547Y007431D01*
X036532Y007422D01*
X036516Y007416D01*
X036498Y007414D01*
X036480Y007416D01*
X036464Y007422D01*
X036449Y007431D01*
X036436Y007444D01*
X036427Y007459D01*
X036421Y007475D01*
X036419Y007493D01*
X024931Y007493D02*
X024933Y007511D01*
X024939Y007527D01*
X024948Y007542D01*
X024961Y007555D01*
X024976Y007564D01*
X024992Y007570D01*
X025010Y007572D01*
X025028Y007570D01*
X025044Y007564D01*
X025059Y007555D01*
X025072Y007542D01*
X025081Y007527D01*
X025087Y007511D01*
X025089Y007493D01*
X025087Y007475D01*
X025081Y007459D01*
X025072Y007444D01*
X025059Y007431D01*
X025044Y007422D01*
X025028Y007416D01*
X025010Y007414D01*
X024992Y007416D01*
X024976Y007422D01*
X024961Y007431D01*
X024948Y007444D01*
X024939Y007459D01*
X024933Y007475D01*
X024931Y007493D01*
D12*
X021378Y007375D02*
X020995Y007375D01*
X020918Y007451D01*
X020918Y007605D01*
X020995Y007682D01*
X021378Y007682D01*
X021148Y007835D02*
X021148Y008065D01*
X021071Y008142D01*
X020995Y008142D01*
X020918Y008065D01*
X020918Y007912D01*
X020995Y007835D01*
X021148Y007835D01*
X021302Y007989D01*
X021378Y008142D01*
X020628Y008142D02*
X020628Y007835D01*
X020628Y007682D02*
X020168Y007682D01*
X020398Y007682D02*
X020398Y007375D01*
X020168Y007375D02*
X020628Y007375D01*
X020628Y007989D02*
X020168Y007989D01*
X020168Y008296D02*
X020168Y008602D01*
X020168Y008449D02*
X020628Y008449D01*
X020475Y008296D01*
X020398Y008756D02*
X020398Y008986D01*
X020321Y009063D01*
X020245Y009063D01*
X020168Y008986D01*
X020168Y008833D01*
X020245Y008756D01*
X020398Y008756D01*
X020552Y008909D01*
X020628Y009063D01*
X020552Y009216D02*
X020628Y009293D01*
X020628Y009446D01*
X020552Y009523D01*
X020475Y009523D01*
X020398Y009446D01*
X020321Y009523D01*
X020245Y009523D01*
X020168Y009446D01*
X020168Y009293D01*
X020245Y009216D01*
X020398Y009370D02*
X020398Y009446D01*
X020552Y009677D02*
X020628Y009753D01*
X020628Y009907D01*
X020552Y009984D01*
X020475Y009984D01*
X020168Y009677D01*
X020168Y009984D01*
X020245Y010137D02*
X020168Y010214D01*
X020168Y010367D01*
X020245Y010444D01*
X020552Y010444D02*
X020628Y010367D01*
X020628Y010214D01*
X020552Y010137D01*
X020245Y010137D01*
X031656Y010214D02*
X031656Y010367D01*
X031733Y010444D01*
X031656Y010214D02*
X031733Y010137D01*
X032040Y010137D01*
X032117Y010214D01*
X032117Y010367D01*
X032040Y010444D01*
X032040Y009984D02*
X032117Y009907D01*
X032117Y009753D01*
X032040Y009677D01*
X032040Y009523D02*
X031963Y009523D01*
X031886Y009446D01*
X031810Y009523D01*
X031733Y009523D01*
X031656Y009446D01*
X031656Y009293D01*
X031733Y009216D01*
X031733Y009063D02*
X031810Y009063D01*
X031886Y008986D01*
X031886Y008756D01*
X031733Y008756D01*
X031656Y008833D01*
X031656Y008986D01*
X031733Y009063D01*
X031886Y009370D02*
X031886Y009446D01*
X032040Y009523D02*
X032117Y009446D01*
X032117Y009293D01*
X032040Y009216D01*
X032117Y009063D02*
X032040Y008909D01*
X031886Y008756D01*
X031656Y008602D02*
X031656Y008296D01*
X031656Y008449D02*
X032117Y008449D01*
X031963Y008296D01*
X032117Y008142D02*
X032117Y007835D01*
X032117Y007682D02*
X031656Y007682D01*
X031886Y007682D02*
X031886Y007375D01*
X031656Y007375D02*
X032117Y007375D01*
X032406Y007451D02*
X032483Y007375D01*
X032867Y007375D01*
X032867Y007682D02*
X032483Y007682D01*
X032406Y007605D01*
X032406Y007451D01*
X032483Y007835D02*
X032406Y007912D01*
X032406Y008065D01*
X032483Y008142D01*
X032636Y008142D01*
X032713Y008065D01*
X032713Y007989D01*
X032636Y007835D01*
X032867Y007835D01*
X032867Y008142D01*
X032117Y007989D02*
X031656Y007989D01*
X031656Y009677D02*
X031963Y009984D01*
X032040Y009984D01*
X031656Y009984D02*
X031656Y009677D01*
X066062Y009677D02*
X066369Y009984D01*
X066445Y009984D01*
X066522Y009907D01*
X066522Y009753D01*
X066445Y009677D01*
X066445Y009523D02*
X066369Y009523D01*
X066292Y009446D01*
X066215Y009523D01*
X066138Y009523D01*
X066062Y009446D01*
X066062Y009293D01*
X066138Y009216D01*
X066138Y009063D02*
X066215Y009063D01*
X066292Y008986D01*
X066292Y008756D01*
X066138Y008756D01*
X066062Y008833D01*
X066062Y008986D01*
X066138Y009063D01*
X066292Y009370D02*
X066292Y009446D01*
X066445Y009523D02*
X066522Y009446D01*
X066522Y009293D01*
X066445Y009216D01*
X066522Y009063D02*
X066445Y008909D01*
X066292Y008756D01*
X066062Y008602D02*
X066062Y008296D01*
X066062Y008449D02*
X066522Y008449D01*
X066369Y008296D01*
X066522Y008142D02*
X066522Y007835D01*
X066522Y007682D02*
X066062Y007682D01*
X066292Y007682D02*
X066292Y007375D01*
X066062Y007375D02*
X066522Y007375D01*
X066812Y007451D02*
X066812Y007605D01*
X066888Y007682D01*
X067272Y007682D01*
X067119Y007835D02*
X067272Y007989D01*
X066812Y007989D01*
X066812Y008142D02*
X066812Y007835D01*
X066522Y007989D02*
X066062Y007989D01*
X066812Y008296D02*
X067119Y008602D01*
X067195Y008602D01*
X067272Y008526D01*
X067272Y008372D01*
X067195Y008296D01*
X066812Y008296D02*
X066812Y008602D01*
X066812Y007451D02*
X066888Y007375D01*
X067272Y007375D01*
X066062Y009677D02*
X066062Y009984D01*
X066138Y010137D02*
X066062Y010214D01*
X066062Y010367D01*
X066138Y010444D01*
X066138Y010137D02*
X066445Y010137D01*
X066522Y010214D01*
X066522Y010367D01*
X066445Y010444D01*
X081550Y010367D02*
X081550Y010214D01*
X081627Y010137D01*
X081934Y010137D01*
X082010Y010214D01*
X082010Y010367D01*
X081934Y010444D01*
X081627Y010444D02*
X081550Y010367D01*
X081550Y009984D02*
X081550Y009677D01*
X081857Y009984D01*
X081934Y009984D01*
X082010Y009907D01*
X082010Y009753D01*
X081934Y009677D01*
X081934Y009523D02*
X081857Y009523D01*
X081780Y009446D01*
X081703Y009523D01*
X081627Y009523D01*
X081550Y009446D01*
X081550Y009293D01*
X081627Y009216D01*
X081627Y009063D02*
X081703Y009063D01*
X081780Y008986D01*
X081780Y008756D01*
X081627Y008756D01*
X081550Y008833D01*
X081550Y008986D01*
X081627Y009063D01*
X081934Y009216D02*
X082010Y009293D01*
X082010Y009446D01*
X081934Y009523D01*
X081780Y009446D02*
X081780Y009370D01*
X082010Y009063D02*
X081934Y008909D01*
X081780Y008756D01*
X081550Y008602D02*
X081550Y008296D01*
X081550Y008449D02*
X082010Y008449D01*
X081857Y008296D01*
X082010Y008142D02*
X082010Y007835D01*
X082010Y007682D02*
X081550Y007682D01*
X081780Y007682D02*
X081780Y007375D01*
X081550Y007375D02*
X082010Y007375D01*
X082300Y007451D02*
X082377Y007375D01*
X082760Y007375D01*
X082760Y007682D02*
X082377Y007682D01*
X082300Y007605D01*
X082300Y007451D01*
X082300Y007835D02*
X082300Y008142D01*
X082300Y007989D02*
X082760Y007989D01*
X082607Y007835D01*
X082607Y008296D02*
X082760Y008449D01*
X082300Y008449D01*
X082300Y008296D02*
X082300Y008602D01*
X082010Y007989D02*
X081550Y007989D01*
X116455Y007989D02*
X116916Y007989D01*
X116916Y008142D02*
X116916Y007835D01*
X116916Y007682D02*
X116455Y007682D01*
X116686Y007682D02*
X116686Y007375D01*
X116916Y007375D02*
X116455Y007375D01*
X117205Y007451D02*
X117205Y007605D01*
X117282Y007682D01*
X117666Y007682D01*
X117512Y007835D02*
X117666Y007989D01*
X117205Y007989D01*
X117205Y008142D02*
X117205Y007835D01*
X117205Y007451D02*
X117282Y007375D01*
X117666Y007375D01*
X117589Y008296D02*
X117512Y008296D01*
X117436Y008372D01*
X117436Y008526D01*
X117359Y008602D01*
X117282Y008602D01*
X117205Y008526D01*
X117205Y008372D01*
X117282Y008296D01*
X117359Y008296D01*
X117436Y008372D01*
X117436Y008526D02*
X117512Y008602D01*
X117589Y008602D01*
X117666Y008526D01*
X117666Y008372D01*
X117589Y008296D01*
X116916Y008449D02*
X116455Y008449D01*
X116455Y008296D02*
X116455Y008602D01*
X116532Y008756D02*
X116455Y008833D01*
X116455Y008986D01*
X116532Y009063D01*
X116609Y009063D01*
X116686Y008986D01*
X116686Y008756D01*
X116532Y008756D01*
X116686Y008756D02*
X116839Y008909D01*
X116916Y009063D01*
X116839Y009216D02*
X116916Y009293D01*
X116916Y009446D01*
X116839Y009523D01*
X116762Y009523D01*
X116686Y009446D01*
X116609Y009523D01*
X116532Y009523D01*
X116455Y009446D01*
X116455Y009293D01*
X116532Y009216D01*
X116686Y009370D02*
X116686Y009446D01*
X116839Y009677D02*
X116916Y009753D01*
X116916Y009907D01*
X116839Y009984D01*
X116762Y009984D01*
X116455Y009677D01*
X116455Y009984D01*
X116532Y010137D02*
X116455Y010214D01*
X116455Y010367D01*
X116532Y010444D01*
X116532Y010137D02*
X116839Y010137D01*
X116916Y010214D01*
X116916Y010367D01*
X116839Y010444D01*
X116916Y008449D02*
X116762Y008296D01*
X131944Y008296D02*
X131944Y008602D01*
X131944Y008449D02*
X132404Y008449D01*
X132251Y008296D01*
X132404Y008142D02*
X132404Y007835D01*
X132404Y007682D02*
X131944Y007682D01*
X132174Y007682D02*
X132174Y007375D01*
X131944Y007375D02*
X132404Y007375D01*
X132694Y007451D02*
X132770Y007375D01*
X133154Y007375D01*
X133154Y007682D02*
X132770Y007682D01*
X132694Y007605D01*
X132694Y007451D01*
X132694Y007835D02*
X132694Y008142D01*
X132694Y007989D02*
X133154Y007989D01*
X133001Y007835D01*
X133154Y008296D02*
X133154Y008602D01*
X133077Y008602D01*
X132770Y008296D01*
X132694Y008296D01*
X132404Y007989D02*
X131944Y007989D01*
X132020Y008756D02*
X131944Y008833D01*
X131944Y008986D01*
X132020Y009063D01*
X132097Y009063D01*
X132174Y008986D01*
X132174Y008756D01*
X132020Y008756D01*
X132174Y008756D02*
X132327Y008909D01*
X132404Y009063D01*
X132327Y009216D02*
X132404Y009293D01*
X132404Y009446D01*
X132327Y009523D01*
X132251Y009523D01*
X132174Y009446D01*
X132097Y009523D01*
X132020Y009523D01*
X131944Y009446D01*
X131944Y009293D01*
X132020Y009216D01*
X132174Y009370D02*
X132174Y009446D01*
X132327Y009677D02*
X132404Y009753D01*
X132404Y009907D01*
X132327Y009984D01*
X132251Y009984D01*
X131944Y009677D01*
X131944Y009984D01*
X132020Y010137D02*
X131944Y010214D01*
X131944Y010367D01*
X132020Y010444D01*
X132020Y010137D02*
X132327Y010137D01*
X132404Y010214D01*
X132404Y010367D01*
X132327Y010444D01*
X138184Y019973D02*
X138644Y019973D01*
X138414Y019973D02*
X138414Y020280D01*
X138644Y020280D02*
X138184Y020280D01*
X138184Y020587D02*
X138644Y020587D01*
X138644Y020434D02*
X138644Y020740D01*
X138491Y020894D02*
X138644Y021047D01*
X138184Y021047D01*
X138184Y020894D02*
X138184Y021201D01*
X138261Y021354D02*
X138184Y021431D01*
X138184Y021585D01*
X138261Y021661D01*
X138337Y021661D01*
X138414Y021585D01*
X138414Y021354D01*
X138261Y021354D01*
X138414Y021354D02*
X138567Y021508D01*
X138644Y021661D01*
X138567Y021815D02*
X138644Y021891D01*
X138644Y022045D01*
X138567Y022122D01*
X138491Y022122D01*
X138414Y022045D01*
X138337Y022122D01*
X138261Y022122D01*
X138184Y022045D01*
X138184Y021891D01*
X138261Y021815D01*
X138414Y021968D02*
X138414Y022045D01*
X138567Y022275D02*
X138644Y022352D01*
X138644Y022505D01*
X138567Y022582D01*
X138491Y022582D01*
X138184Y022275D01*
X138184Y022582D01*
X138261Y022736D02*
X138184Y022812D01*
X138184Y022966D01*
X138261Y023042D01*
X138567Y023042D02*
X138644Y022966D01*
X138644Y022812D01*
X138567Y022736D01*
X138261Y022736D01*
X138934Y021124D02*
X139394Y021124D01*
X139164Y020894D01*
X139164Y021201D01*
X138934Y020740D02*
X138934Y020434D01*
X138934Y020587D02*
X139394Y020587D01*
X139241Y020434D01*
X139394Y020280D02*
X139011Y020280D01*
X138934Y020203D01*
X138934Y020050D01*
X139011Y019973D01*
X139394Y019973D01*
X111363Y019973D02*
X110979Y019973D01*
X110902Y020050D01*
X110902Y020203D01*
X110979Y020280D01*
X111363Y020280D01*
X111209Y020434D02*
X111363Y020587D01*
X110902Y020587D01*
X110902Y020434D02*
X110902Y020740D01*
X110979Y020894D02*
X110902Y020971D01*
X110902Y021124D01*
X110979Y021201D01*
X111132Y021201D01*
X111209Y021124D01*
X111209Y021047D01*
X111132Y020894D01*
X111363Y020894D01*
X111363Y021201D01*
X110613Y021047D02*
X110459Y020894D01*
X110613Y021047D02*
X110152Y021047D01*
X110152Y020894D02*
X110152Y021201D01*
X110229Y021354D02*
X110152Y021431D01*
X110152Y021585D01*
X110229Y021661D01*
X110306Y021661D01*
X110382Y021585D01*
X110382Y021354D01*
X110229Y021354D01*
X110382Y021354D02*
X110536Y021508D01*
X110613Y021661D01*
X110536Y021815D02*
X110613Y021891D01*
X110613Y022045D01*
X110536Y022122D01*
X110459Y022122D01*
X110382Y022045D01*
X110306Y022122D01*
X110229Y022122D01*
X110152Y022045D01*
X110152Y021891D01*
X110229Y021815D01*
X110382Y021968D02*
X110382Y022045D01*
X110536Y022275D02*
X110613Y022352D01*
X110613Y022505D01*
X110536Y022582D01*
X110459Y022582D01*
X110152Y022275D01*
X110152Y022582D01*
X110229Y022736D02*
X110152Y022812D01*
X110152Y022966D01*
X110229Y023042D01*
X110229Y022736D02*
X110536Y022736D01*
X110613Y022812D01*
X110613Y022966D01*
X110536Y023042D01*
X110613Y020740D02*
X110613Y020434D01*
X110613Y020587D02*
X110152Y020587D01*
X110152Y020280D02*
X110613Y020280D01*
X110382Y020280D02*
X110382Y019973D01*
X110152Y019973D02*
X110613Y019973D01*
X089000Y019973D02*
X088617Y019973D01*
X088540Y020050D01*
X088540Y020203D01*
X088617Y020280D01*
X089000Y020280D01*
X088924Y020434D02*
X088847Y020434D01*
X088770Y020510D01*
X088770Y020664D01*
X088694Y020740D01*
X088617Y020740D01*
X088540Y020664D01*
X088540Y020510D01*
X088617Y020434D01*
X088694Y020434D01*
X088770Y020510D01*
X088770Y020664D02*
X088847Y020740D01*
X088924Y020740D01*
X089000Y020664D01*
X089000Y020510D01*
X088924Y020434D01*
X088250Y020434D02*
X088250Y020740D01*
X088250Y020587D02*
X087790Y020587D01*
X087790Y020280D02*
X088250Y020280D01*
X088020Y020280D02*
X088020Y019973D01*
X087790Y019973D02*
X088250Y019973D01*
X088097Y020894D02*
X088250Y021047D01*
X087790Y021047D01*
X087790Y020894D02*
X087790Y021201D01*
X087867Y021354D02*
X087790Y021431D01*
X087790Y021585D01*
X087867Y021661D01*
X087944Y021661D01*
X088020Y021585D01*
X088020Y021354D01*
X087867Y021354D01*
X088020Y021354D02*
X088174Y021508D01*
X088250Y021661D01*
X088174Y021815D02*
X088250Y021891D01*
X088250Y022045D01*
X088174Y022122D01*
X088097Y022122D01*
X088020Y022045D01*
X087944Y022122D01*
X087867Y022122D01*
X087790Y022045D01*
X087790Y021891D01*
X087867Y021815D01*
X088020Y021968D02*
X088020Y022045D01*
X088174Y022275D02*
X088250Y022352D01*
X088250Y022505D01*
X088174Y022582D01*
X088097Y022582D01*
X087790Y022275D01*
X087790Y022582D01*
X087867Y022736D02*
X087790Y022812D01*
X087790Y022966D01*
X087867Y023042D01*
X087867Y022736D02*
X088174Y022736D01*
X088250Y022812D01*
X088250Y022966D01*
X088174Y023042D01*
X060969Y020664D02*
X060969Y020510D01*
X060892Y020434D01*
X060816Y020434D01*
X060739Y020510D01*
X060739Y020740D01*
X060892Y020740D02*
X060969Y020664D01*
X060892Y020740D02*
X060585Y020740D01*
X060509Y020664D01*
X060509Y020510D01*
X060585Y020434D01*
X060585Y020280D02*
X060969Y020280D01*
X060969Y019973D02*
X060585Y019973D01*
X060509Y020050D01*
X060509Y020203D01*
X060585Y020280D01*
X060219Y020280D02*
X059759Y020280D01*
X059989Y020280D02*
X059989Y019973D01*
X059759Y019973D02*
X060219Y019973D01*
X060219Y020434D02*
X060219Y020740D01*
X060219Y020587D02*
X059759Y020587D01*
X059759Y020894D02*
X059759Y021201D01*
X059759Y021047D02*
X060219Y021047D01*
X060066Y020894D01*
X059989Y021354D02*
X059989Y021585D01*
X059912Y021661D01*
X059835Y021661D01*
X059759Y021585D01*
X059759Y021431D01*
X059835Y021354D01*
X059989Y021354D01*
X060142Y021508D01*
X060219Y021661D01*
X060142Y021815D02*
X060219Y021891D01*
X060219Y022045D01*
X060142Y022122D01*
X060066Y022122D01*
X059989Y022045D01*
X059912Y022122D01*
X059835Y022122D01*
X059759Y022045D01*
X059759Y021891D01*
X059835Y021815D01*
X059989Y021968D02*
X059989Y022045D01*
X060142Y022275D02*
X060219Y022352D01*
X060219Y022505D01*
X060142Y022582D01*
X060066Y022582D01*
X059759Y022275D01*
X059759Y022582D01*
X059835Y022736D02*
X059759Y022812D01*
X059759Y022966D01*
X059835Y023042D01*
X059835Y022736D02*
X060142Y022736D01*
X060219Y022812D01*
X060219Y022966D01*
X060142Y023042D01*
X038607Y020664D02*
X038607Y020510D01*
X038530Y020434D01*
X038607Y020280D02*
X038223Y020280D01*
X038146Y020203D01*
X038146Y020050D01*
X038223Y019973D01*
X038607Y019973D01*
X037857Y019973D02*
X037396Y019973D01*
X037627Y019973D02*
X037627Y020280D01*
X037857Y020280D02*
X037396Y020280D01*
X037396Y020587D02*
X037857Y020587D01*
X037857Y020434D02*
X037857Y020740D01*
X037703Y020894D02*
X037857Y021047D01*
X037396Y021047D01*
X037396Y020894D02*
X037396Y021201D01*
X037473Y021354D02*
X037396Y021431D01*
X037396Y021585D01*
X037473Y021661D01*
X037550Y021661D01*
X037627Y021585D01*
X037627Y021354D01*
X037473Y021354D01*
X037627Y021354D02*
X037780Y021508D01*
X037857Y021661D01*
X037780Y021815D02*
X037857Y021891D01*
X037857Y022045D01*
X037780Y022122D01*
X037703Y022122D01*
X037627Y022045D01*
X037550Y022122D01*
X037473Y022122D01*
X037396Y022045D01*
X037396Y021891D01*
X037473Y021815D01*
X037627Y021968D02*
X037627Y022045D01*
X037780Y022275D02*
X037857Y022352D01*
X037857Y022505D01*
X037780Y022582D01*
X037703Y022582D01*
X037396Y022275D01*
X037396Y022582D01*
X037473Y022736D02*
X037396Y022812D01*
X037396Y022966D01*
X037473Y023042D01*
X037473Y022736D02*
X037780Y022736D01*
X037857Y022812D01*
X037857Y022966D01*
X037780Y023042D01*
X038146Y020740D02*
X038146Y020434D01*
X038453Y020740D01*
X038530Y020740D01*
X038607Y020664D01*
X010575Y020664D02*
X010499Y020740D01*
X010422Y020740D01*
X010345Y020664D01*
X010268Y020740D01*
X010192Y020740D01*
X010115Y020664D01*
X010115Y020510D01*
X010192Y020434D01*
X010192Y020280D02*
X010575Y020280D01*
X010499Y020434D02*
X010575Y020510D01*
X010575Y020664D01*
X010345Y020664D02*
X010345Y020587D01*
X010192Y020280D02*
X010115Y020203D01*
X010115Y020050D01*
X010192Y019973D01*
X010575Y019973D01*
X009825Y019973D02*
X009365Y019973D01*
X009595Y019973D02*
X009595Y020280D01*
X009825Y020280D02*
X009365Y020280D01*
X009365Y020587D02*
X009825Y020587D01*
X009825Y020434D02*
X009825Y020740D01*
X009672Y020894D02*
X009825Y021047D01*
X009365Y021047D01*
X009365Y020894D02*
X009365Y021201D01*
X009442Y021354D02*
X009365Y021431D01*
X009365Y021585D01*
X009442Y021661D01*
X009518Y021661D01*
X009595Y021585D01*
X009595Y021354D01*
X009442Y021354D01*
X009595Y021354D02*
X009749Y021508D01*
X009825Y021661D01*
X009749Y021815D02*
X009825Y021891D01*
X009825Y022045D01*
X009749Y022122D01*
X009672Y022122D01*
X009595Y022045D01*
X009518Y022122D01*
X009442Y022122D01*
X009365Y022045D01*
X009365Y021891D01*
X009442Y021815D01*
X009595Y021968D02*
X009595Y022045D01*
X009749Y022275D02*
X009825Y022352D01*
X009825Y022505D01*
X009749Y022582D01*
X009672Y022582D01*
X009365Y022275D01*
X009365Y022582D01*
X009442Y022736D02*
X009365Y022812D01*
X009365Y022966D01*
X009442Y023042D01*
X009442Y022736D02*
X009749Y022736D01*
X009825Y022812D01*
X009825Y022966D01*
X009749Y023042D01*
D13*
X007467Y022768D02*
X007467Y022532D01*
X006994Y022532D02*
X006994Y022768D01*
X019010Y023918D02*
X019246Y023918D01*
X019246Y024390D02*
X019010Y024390D01*
X021429Y024053D02*
X021429Y020853D01*
X021431Y020830D01*
X021436Y020807D01*
X021445Y020785D01*
X021458Y020765D01*
X021473Y020747D01*
X021491Y020732D01*
X021511Y020719D01*
X021533Y020710D01*
X021556Y020705D01*
X021579Y020703D01*
X022819Y020703D01*
X022842Y020705D01*
X022865Y020710D01*
X022887Y020719D01*
X022907Y020732D01*
X022925Y020747D01*
X022940Y020765D01*
X022953Y020785D01*
X022962Y020807D01*
X022967Y020830D01*
X022969Y020853D01*
X022969Y024053D01*
X022967Y024076D01*
X022962Y024099D01*
X022953Y024121D01*
X022940Y024141D01*
X022925Y024159D01*
X022907Y024174D01*
X022887Y024187D01*
X022865Y024196D01*
X022842Y024201D01*
X022819Y024203D01*
X022399Y024203D01*
X021999Y024203D01*
X021579Y024203D01*
X021556Y024201D01*
X021533Y024196D01*
X021511Y024187D01*
X021491Y024174D01*
X021473Y024159D01*
X021458Y024141D01*
X021445Y024121D01*
X021436Y024099D01*
X021431Y024076D01*
X021429Y024053D01*
X021999Y024203D02*
X022001Y024176D01*
X022006Y024149D01*
X022016Y024123D01*
X022028Y024099D01*
X022044Y024077D01*
X022062Y024057D01*
X022084Y024040D01*
X022107Y024025D01*
X022132Y024015D01*
X022158Y024007D01*
X022185Y024003D01*
X022213Y024003D01*
X022240Y024007D01*
X022266Y024015D01*
X022291Y024025D01*
X022314Y024040D01*
X022336Y024057D01*
X022354Y024077D01*
X022370Y024099D01*
X022382Y024123D01*
X022392Y024149D01*
X022397Y024176D01*
X022399Y024203D01*
X024691Y024390D02*
X024928Y024390D01*
X024928Y023918D02*
X024691Y023918D01*
X026691Y023918D02*
X026928Y023918D01*
X026928Y024390D02*
X026691Y024390D01*
X029571Y024203D02*
X029991Y024203D01*
X030391Y024203D01*
X030811Y024203D01*
X030834Y024201D01*
X030857Y024196D01*
X030879Y024187D01*
X030899Y024174D01*
X030917Y024159D01*
X030932Y024141D01*
X030945Y024121D01*
X030954Y024099D01*
X030959Y024076D01*
X030961Y024053D01*
X030391Y024203D02*
X030389Y024176D01*
X030384Y024149D01*
X030374Y024123D01*
X030362Y024099D01*
X030346Y024077D01*
X030328Y024057D01*
X030306Y024040D01*
X030283Y024025D01*
X030258Y024015D01*
X030232Y024007D01*
X030205Y024003D01*
X030177Y024003D01*
X030150Y024007D01*
X030124Y024015D01*
X030099Y024025D01*
X030076Y024040D01*
X030054Y024057D01*
X030036Y024077D01*
X030020Y024099D01*
X030008Y024123D01*
X029998Y024149D01*
X029993Y024176D01*
X029991Y024203D01*
X029571Y024203D02*
X029548Y024201D01*
X029525Y024196D01*
X029503Y024187D01*
X029483Y024174D01*
X029465Y024159D01*
X029450Y024141D01*
X029437Y024121D01*
X029428Y024099D01*
X029423Y024076D01*
X029421Y024053D01*
X035065Y022583D02*
X035065Y022347D01*
X035538Y022347D02*
X035538Y022583D01*
X030961Y020853D02*
X030959Y020830D01*
X030954Y020807D01*
X030945Y020785D01*
X030932Y020765D01*
X030917Y020747D01*
X030899Y020732D01*
X030879Y020719D01*
X030857Y020710D01*
X030834Y020705D01*
X030811Y020703D01*
X029571Y020703D01*
X029548Y020705D01*
X029525Y020710D01*
X029503Y020719D01*
X029483Y020732D01*
X029465Y020747D01*
X029450Y020765D01*
X029437Y020785D01*
X029428Y020807D01*
X029423Y020830D01*
X029421Y020853D01*
X019246Y020918D02*
X019010Y020918D01*
X019010Y021390D02*
X019246Y021390D01*
X057573Y022040D02*
X057573Y022276D01*
X058046Y022276D02*
X058046Y022040D01*
X069191Y021390D02*
X069428Y021390D01*
X069428Y020918D02*
X069191Y020918D01*
X071429Y020853D02*
X071429Y024053D01*
X071431Y024076D01*
X071436Y024099D01*
X071445Y024121D01*
X071458Y024141D01*
X071473Y024159D01*
X071491Y024174D01*
X071511Y024187D01*
X071533Y024196D01*
X071556Y024201D01*
X071579Y024203D01*
X071999Y024203D01*
X072399Y024203D01*
X072819Y024203D01*
X072842Y024201D01*
X072865Y024196D01*
X072887Y024187D01*
X072907Y024174D01*
X072925Y024159D01*
X072940Y024141D01*
X072953Y024121D01*
X072962Y024099D01*
X072967Y024076D01*
X072969Y024053D01*
X072969Y020853D01*
X072967Y020830D01*
X072962Y020807D01*
X072953Y020785D01*
X072940Y020765D01*
X072925Y020747D01*
X072907Y020732D01*
X072887Y020719D01*
X072865Y020710D01*
X072842Y020705D01*
X072819Y020703D01*
X071579Y020703D01*
X071556Y020705D01*
X071533Y020710D01*
X071511Y020719D01*
X071491Y020732D01*
X071473Y020747D01*
X071458Y020765D01*
X071445Y020785D01*
X071436Y020807D01*
X071431Y020830D01*
X071429Y020853D01*
X079461Y020853D02*
X079463Y020830D01*
X079468Y020807D01*
X079477Y020785D01*
X079490Y020765D01*
X079505Y020747D01*
X079523Y020732D01*
X079543Y020719D01*
X079565Y020710D01*
X079588Y020705D01*
X079611Y020703D01*
X080851Y020703D01*
X080874Y020705D01*
X080897Y020710D01*
X080919Y020719D01*
X080939Y020732D01*
X080957Y020747D01*
X080972Y020765D01*
X080985Y020785D01*
X080994Y020807D01*
X080999Y020830D01*
X081001Y020853D01*
X085518Y022359D02*
X085518Y022595D01*
X085991Y022595D02*
X085991Y022359D01*
X081001Y024053D02*
X080999Y024076D01*
X080994Y024099D01*
X080985Y024121D01*
X080972Y024141D01*
X080957Y024159D01*
X080939Y024174D01*
X080919Y024187D01*
X080897Y024196D01*
X080874Y024201D01*
X080851Y024203D01*
X080431Y024203D01*
X080031Y024203D01*
X079611Y024203D01*
X079588Y024201D01*
X079565Y024196D01*
X079543Y024187D01*
X079523Y024174D01*
X079505Y024159D01*
X079490Y024141D01*
X079477Y024121D01*
X079468Y024099D01*
X079463Y024076D01*
X079461Y024053D01*
X080031Y024203D02*
X080033Y024176D01*
X080038Y024149D01*
X080048Y024123D01*
X080060Y024099D01*
X080076Y024077D01*
X080094Y024057D01*
X080116Y024040D01*
X080139Y024025D01*
X080164Y024015D01*
X080190Y024007D01*
X080217Y024003D01*
X080245Y024003D01*
X080272Y024007D01*
X080298Y024015D01*
X080323Y024025D01*
X080346Y024040D01*
X080368Y024057D01*
X080386Y024077D01*
X080402Y024099D01*
X080414Y024123D01*
X080424Y024149D01*
X080429Y024176D01*
X080431Y024203D01*
X077428Y024390D02*
X077191Y024390D01*
X077191Y023918D02*
X077428Y023918D01*
X075428Y023918D02*
X075191Y023918D01*
X075191Y024390D02*
X075428Y024390D01*
X072399Y024203D02*
X072397Y024176D01*
X072392Y024149D01*
X072382Y024123D01*
X072370Y024099D01*
X072354Y024077D01*
X072336Y024057D01*
X072314Y024040D01*
X072291Y024025D01*
X072266Y024015D01*
X072240Y024007D01*
X072213Y024003D01*
X072185Y024003D01*
X072158Y024007D01*
X072132Y024015D01*
X072107Y024025D01*
X072084Y024040D01*
X072062Y024057D01*
X072044Y024077D01*
X072028Y024099D01*
X072016Y024123D01*
X072006Y024149D01*
X072001Y024176D01*
X071999Y024203D01*
X069428Y024390D02*
X069191Y024390D01*
X069191Y023918D02*
X069428Y023918D01*
X107573Y023272D02*
X107573Y023036D01*
X108046Y023036D02*
X108046Y023272D01*
X119191Y023918D02*
X119428Y023918D01*
X119428Y024390D02*
X119191Y024390D01*
X121823Y024053D02*
X121823Y020853D01*
X121825Y020830D01*
X121830Y020807D01*
X121839Y020785D01*
X121852Y020765D01*
X121867Y020747D01*
X121885Y020732D01*
X121905Y020719D01*
X121927Y020710D01*
X121950Y020705D01*
X121973Y020703D01*
X123213Y020703D01*
X123236Y020705D01*
X123259Y020710D01*
X123281Y020719D01*
X123301Y020732D01*
X123319Y020747D01*
X123334Y020765D01*
X123347Y020785D01*
X123356Y020807D01*
X123361Y020830D01*
X123363Y020853D01*
X123363Y024053D01*
X123361Y024076D01*
X123356Y024099D01*
X123347Y024121D01*
X123334Y024141D01*
X123319Y024159D01*
X123301Y024174D01*
X123281Y024187D01*
X123259Y024196D01*
X123236Y024201D01*
X123213Y024203D01*
X122793Y024203D01*
X122393Y024203D01*
X121973Y024203D01*
X121950Y024201D01*
X121927Y024196D01*
X121905Y024187D01*
X121885Y024174D01*
X121867Y024159D01*
X121852Y024141D01*
X121839Y024121D01*
X121830Y024099D01*
X121825Y024076D01*
X121823Y024053D01*
X122393Y024203D02*
X122395Y024176D01*
X122400Y024149D01*
X122410Y024123D01*
X122422Y024099D01*
X122438Y024077D01*
X122456Y024057D01*
X122478Y024040D01*
X122501Y024025D01*
X122526Y024015D01*
X122552Y024007D01*
X122579Y024003D01*
X122607Y024003D01*
X122634Y024007D01*
X122660Y024015D01*
X122685Y024025D01*
X122708Y024040D01*
X122730Y024057D01*
X122748Y024077D01*
X122764Y024099D01*
X122776Y024123D01*
X122786Y024149D01*
X122791Y024176D01*
X122793Y024203D01*
X125191Y023890D02*
X125428Y023890D01*
X125428Y023418D02*
X125191Y023418D01*
X129854Y024053D02*
X129856Y024076D01*
X129861Y024099D01*
X129870Y024121D01*
X129883Y024141D01*
X129898Y024159D01*
X129916Y024174D01*
X129936Y024187D01*
X129958Y024196D01*
X129981Y024201D01*
X130004Y024203D01*
X130424Y024203D01*
X130824Y024203D01*
X131244Y024203D01*
X131267Y024201D01*
X131290Y024196D01*
X131312Y024187D01*
X131332Y024174D01*
X131350Y024159D01*
X131365Y024141D01*
X131378Y024121D01*
X131387Y024099D01*
X131392Y024076D01*
X131394Y024053D01*
X130824Y024203D02*
X130822Y024176D01*
X130817Y024149D01*
X130807Y024123D01*
X130795Y024099D01*
X130779Y024077D01*
X130761Y024057D01*
X130739Y024040D01*
X130716Y024025D01*
X130691Y024015D01*
X130665Y024007D01*
X130638Y024003D01*
X130610Y024003D01*
X130583Y024007D01*
X130557Y024015D01*
X130532Y024025D01*
X130509Y024040D01*
X130487Y024057D01*
X130469Y024077D01*
X130453Y024099D01*
X130441Y024123D01*
X130431Y024149D01*
X130426Y024176D01*
X130424Y024203D01*
X133691Y023890D02*
X133928Y023890D01*
X133928Y023418D02*
X133691Y023418D01*
X135573Y023272D02*
X135573Y023036D01*
X136046Y023036D02*
X136046Y023272D01*
X131394Y020853D02*
X131392Y020830D01*
X131387Y020807D01*
X131378Y020785D01*
X131365Y020765D01*
X131350Y020747D01*
X131332Y020732D01*
X131312Y020719D01*
X131290Y020710D01*
X131267Y020705D01*
X131244Y020703D01*
X130004Y020703D01*
X129981Y020705D01*
X129958Y020710D01*
X129936Y020719D01*
X129916Y020732D01*
X129898Y020747D01*
X129883Y020765D01*
X129870Y020785D01*
X129861Y020807D01*
X129856Y020830D01*
X129854Y020853D01*
X119428Y020890D02*
X119191Y020890D01*
X119191Y020418D02*
X119428Y020418D01*
X114046Y010772D02*
X114046Y010536D01*
X113573Y010536D02*
X113573Y010772D01*
X129073Y010772D02*
X129073Y010536D01*
X129546Y010536D02*
X129546Y010772D01*
X078983Y010536D02*
X078983Y010772D01*
X078510Y010772D02*
X078510Y010536D01*
X063546Y010536D02*
X063546Y010772D01*
X063073Y010772D02*
X063073Y010536D01*
X028884Y010536D02*
X028884Y010772D01*
X028412Y010772D02*
X028412Y010536D01*
X017935Y010536D02*
X017935Y010772D01*
X017463Y010772D02*
X017463Y010536D01*
X015002Y011132D02*
X014752Y011382D01*
X014252Y011382D01*
X014002Y011132D01*
X014002Y009632D01*
X013752Y009382D01*
X013252Y009382D01*
X013002Y009632D01*
X013002Y011132D01*
X012752Y011382D01*
X012252Y011382D01*
X012002Y011132D01*
X012002Y009632D01*
X011752Y009382D01*
X011252Y009382D01*
X011002Y009632D01*
X011002Y011132D01*
X010752Y011382D01*
X010252Y011382D01*
X010002Y011132D01*
X010002Y009632D01*
X009752Y009382D01*
X009252Y009382D01*
X009002Y009632D01*
X009002Y011132D01*
X008752Y011382D01*
X008252Y011382D01*
X008002Y011132D01*
X007752Y011382D01*
X007252Y011382D01*
X007002Y011132D01*
X007002Y009632D01*
X007252Y009382D01*
X007752Y009382D01*
X008002Y009632D01*
X008002Y011132D01*
X009002Y011132D02*
X009252Y011382D01*
X009752Y011382D01*
X010002Y011132D01*
X011002Y011132D02*
X011252Y011382D01*
X011752Y011382D01*
X012002Y011132D01*
X013002Y011132D02*
X013252Y011382D01*
X013752Y011382D01*
X014002Y011132D01*
X015002Y011132D02*
X015002Y009632D01*
X014752Y009382D01*
X014252Y009382D01*
X014002Y009632D01*
X013002Y009632D02*
X012752Y009382D01*
X012252Y009382D01*
X012002Y009632D01*
X011002Y009632D02*
X010752Y009382D01*
X010252Y009382D01*
X010002Y009632D01*
X009002Y009632D02*
X008752Y009382D01*
X008252Y009382D01*
X008002Y009632D01*
X003613Y011113D02*
X003613Y011349D01*
X003140Y011349D02*
X003140Y011113D01*
D14*
X022829Y020703D02*
X022829Y024203D01*
X030821Y024203D02*
X030821Y020703D01*
X072829Y020703D02*
X072829Y024203D01*
X080861Y024203D02*
X080861Y020703D01*
X123223Y020703D02*
X123223Y024203D01*
X131254Y024203D02*
X131254Y020703D01*
M02*
