G75*
G70*
%OFA0B0*%
%FSLAX24Y24*%
%IPPOS*%
%LPD*%
%AMOC8*
5,1,8,0,0,1.08239X$1,22.5*
%
%ADD10C,0.0050*%
%ADD11C,0.0060*%
%ADD12C,0.0080*%
%ADD13C,0.0070*%
%ADD14C,0.0220*%
%ADD15R,0.0180X0.0300*%
%ADD16C,0.0030*%
%ADD17C,0.0040*%
%ADD18R,0.0300X0.0180*%
D10*
X000365Y000930D02*
X000715Y000930D01*
X000540Y001105D01*
X000540Y000872D01*
X000599Y001240D02*
X000657Y001240D01*
X000715Y001298D01*
X000715Y001415D01*
X000657Y001473D01*
X000599Y001240D02*
X000365Y001473D01*
X000365Y001240D01*
X000365Y001608D02*
X000365Y001842D01*
X000365Y001725D02*
X000715Y001725D01*
X000599Y001842D01*
X000423Y002336D02*
X000365Y002336D01*
X000365Y002394D01*
X000423Y002394D01*
X000423Y002336D01*
X000599Y002529D02*
X000365Y002646D01*
X000599Y002763D01*
X000540Y002897D02*
X000482Y002897D01*
X000482Y003131D01*
X000540Y003131D02*
X000599Y003072D01*
X000599Y002956D01*
X000540Y002897D01*
X000365Y002956D02*
X000365Y003072D01*
X000423Y003131D01*
X000540Y003131D01*
X000540Y003266D02*
X000482Y003324D01*
X000482Y003499D01*
X000482Y003382D02*
X000365Y003266D01*
X000540Y003266D02*
X000657Y003266D01*
X000715Y003324D01*
X000715Y003499D01*
X000365Y003499D01*
X001725Y007849D02*
X001725Y008007D01*
X001725Y007849D02*
X001882Y007849D01*
X003536Y007849D02*
X003693Y007849D01*
X003693Y008007D01*
X003379Y009542D02*
X003381Y009554D01*
X003386Y009565D01*
X003395Y009574D01*
X003406Y009579D01*
X003418Y009581D01*
X003430Y009579D01*
X003441Y009574D01*
X003450Y009565D01*
X003455Y009554D01*
X003457Y009542D01*
X003455Y009530D01*
X003450Y009519D01*
X003441Y009510D01*
X003430Y009505D01*
X003418Y009503D01*
X003406Y009505D01*
X003395Y009510D01*
X003386Y009519D01*
X003381Y009530D01*
X003379Y009542D01*
X003536Y009818D02*
X003693Y009660D01*
X001882Y009818D02*
X001725Y009818D01*
X001725Y009660D01*
X005977Y009828D02*
X005977Y008568D01*
X007945Y008568D01*
X007945Y009828D01*
X005977Y009828D01*
X003073Y013184D02*
X003054Y013184D01*
X008977Y014524D02*
X009428Y014524D01*
X009428Y014374D02*
X009428Y014674D01*
X009128Y014374D02*
X008977Y014524D01*
X012477Y013691D02*
X012477Y013341D01*
X012477Y013458D02*
X012652Y013458D01*
X012710Y013516D01*
X012710Y013633D01*
X012652Y013691D01*
X012477Y013691D01*
X012561Y013863D02*
X012561Y015044D01*
X014136Y015044D01*
X014136Y013863D01*
X012561Y013863D01*
X012845Y013691D02*
X012845Y013341D01*
X013078Y013341D01*
X013213Y013399D02*
X013272Y013341D01*
X013388Y013341D01*
X013447Y013399D01*
X013447Y013458D01*
X013388Y013516D01*
X013272Y013516D01*
X013213Y013575D01*
X013213Y013633D01*
X013272Y013691D01*
X013388Y013691D01*
X013447Y013633D01*
X013582Y013691D02*
X013582Y013341D01*
X013815Y013341D01*
X013698Y013516D02*
X013582Y013516D01*
X013582Y013691D02*
X013815Y013691D01*
X013950Y013691D02*
X014183Y013691D01*
X014067Y013691D02*
X014067Y013341D01*
X013861Y014217D02*
X012837Y014217D01*
X012837Y014690D01*
X013861Y014690D01*
X013861Y014217D01*
X013078Y013691D02*
X012845Y013691D01*
X012845Y013516D02*
X012962Y013516D01*
X012710Y013341D02*
X012593Y013458D01*
X012153Y007974D02*
X012078Y007974D01*
X012003Y007899D01*
X012003Y007674D01*
X012153Y007674D01*
X012228Y007749D01*
X012228Y007899D01*
X012153Y007974D01*
X012003Y007674D02*
X011852Y007824D01*
X011777Y007974D01*
X012228Y007514D02*
X012228Y007213D01*
X012228Y007363D02*
X011777Y007363D01*
X011928Y007213D01*
X007485Y004726D02*
X007485Y003926D01*
D11*
X005954Y005369D02*
X005660Y005810D01*
X005493Y005736D02*
X005493Y005590D01*
X005420Y005516D01*
X005200Y005516D01*
X005346Y005516D02*
X005493Y005369D01*
X005660Y005369D02*
X005954Y005810D01*
X005954Y006068D02*
X005660Y006509D01*
X005493Y006509D02*
X005200Y006509D01*
X005346Y006509D02*
X005346Y006068D01*
X005660Y006068D02*
X005954Y006509D01*
X005954Y006747D02*
X005954Y007188D01*
X005954Y006968D02*
X005660Y006968D01*
X005660Y007188D02*
X005660Y006747D01*
X005493Y006821D02*
X005420Y006747D01*
X005273Y006747D01*
X005200Y006821D01*
X005200Y007114D01*
X005273Y007188D01*
X005420Y007188D01*
X005493Y007114D01*
X006120Y007041D02*
X006120Y006747D01*
X006120Y006968D02*
X006414Y006968D01*
X006414Y007041D02*
X006414Y006747D01*
X006581Y006747D02*
X006581Y007188D01*
X006801Y007188D01*
X006874Y007114D01*
X006874Y006968D01*
X006801Y006894D01*
X006581Y006894D01*
X006728Y006894D02*
X006874Y006747D01*
X007041Y006821D02*
X007115Y006747D01*
X007261Y006747D01*
X007335Y006821D01*
X007335Y006968D01*
X007188Y006968D01*
X007041Y007114D02*
X007041Y006821D01*
X007041Y007114D02*
X007115Y007188D01*
X007261Y007188D01*
X007335Y007114D01*
X007502Y007188D02*
X007502Y006747D01*
X007795Y006747D01*
X007648Y006968D02*
X007502Y006968D01*
X007502Y007188D02*
X007795Y007188D01*
X008559Y006411D02*
X008559Y006175D01*
X009032Y006175D02*
X009032Y006411D01*
X009417Y006553D02*
X009417Y006233D01*
X009417Y006553D02*
X009637Y006553D01*
X010317Y006553D02*
X010537Y006553D01*
X010537Y006233D01*
X010971Y006175D02*
X010971Y006411D01*
X011443Y006411D02*
X011443Y006175D01*
X011353Y007109D02*
X009853Y007109D01*
X009603Y007359D01*
X009603Y007859D01*
X009853Y008109D01*
X009603Y008359D01*
X009603Y008859D01*
X009853Y009109D01*
X009603Y009359D01*
X009603Y009859D01*
X009853Y010109D01*
X009603Y010359D01*
X009603Y010859D01*
X009853Y011109D01*
X009603Y011359D01*
X009603Y011859D01*
X009853Y012109D01*
X009603Y012359D01*
X009603Y012859D01*
X009853Y013109D01*
X009603Y013359D01*
X009603Y013859D01*
X009853Y014109D01*
X009603Y014359D01*
X009603Y014859D01*
X009853Y015109D01*
X011353Y015109D01*
X011603Y014859D01*
X011603Y014359D01*
X011353Y014109D01*
X011603Y013859D01*
X011603Y013359D01*
X011353Y013109D01*
X011603Y012859D01*
X011603Y012359D01*
X011353Y012109D01*
X011603Y011859D01*
X011603Y011359D01*
X011353Y011109D01*
X011603Y010859D01*
X011603Y010359D01*
X011353Y010109D01*
X011603Y009859D01*
X011603Y009359D01*
X011353Y009109D01*
X011603Y008859D01*
X011603Y008359D01*
X011353Y008109D01*
X011603Y007859D01*
X011603Y007359D01*
X011353Y007109D01*
X014185Y008885D02*
X014185Y009121D01*
X014658Y009121D02*
X014658Y008885D01*
X007903Y011414D02*
X007503Y011414D01*
X007243Y011034D02*
X007243Y010914D01*
X007123Y010914D01*
X005363Y010914D02*
X005243Y010914D01*
X005243Y011034D01*
X004983Y011614D02*
X004583Y011614D01*
X005243Y012794D02*
X005243Y012914D01*
X005363Y012914D01*
X006343Y013164D02*
X006343Y013564D01*
X006154Y014129D02*
X006154Y014365D01*
X005681Y014365D02*
X005681Y014129D01*
X007123Y012914D02*
X007243Y012914D01*
X007243Y012794D01*
X011756Y014345D02*
X011756Y014581D01*
X012229Y014581D02*
X012229Y014345D01*
X006267Y007188D02*
X006414Y007041D01*
X006267Y007188D02*
X006120Y007041D01*
X005420Y005810D02*
X005200Y005810D01*
X005200Y005369D01*
X005493Y005736D02*
X005420Y005810D01*
X018429Y001530D02*
X018576Y001383D01*
X018503Y001383D02*
X018723Y001383D01*
X018723Y001530D02*
X018723Y001089D01*
X018503Y001089D01*
X018429Y001163D01*
X018429Y001310D01*
X018503Y001383D01*
X018890Y001530D02*
X018890Y001089D01*
X019183Y001089D02*
X019183Y001530D01*
X019036Y001383D01*
X018890Y001530D01*
X019350Y001310D02*
X019423Y001383D01*
X019644Y001383D01*
X019644Y001530D02*
X019644Y001089D01*
X019423Y001089D01*
X019350Y001163D01*
X019350Y001310D01*
D12*
X019851Y000782D02*
X017725Y000782D01*
X017469Y001176D02*
X017469Y001412D01*
X018197Y001806D02*
X018788Y001806D01*
X018114Y002457D02*
X017533Y002457D01*
X018114Y002844D01*
X017533Y002844D01*
X017630Y003064D02*
X017533Y003161D01*
X017533Y003355D01*
X017630Y003451D01*
X018017Y003451D01*
X018114Y003355D01*
X018114Y003161D01*
X018017Y003064D01*
X017630Y003064D01*
X016205Y002936D02*
X016205Y001833D01*
X015103Y001833D01*
X015103Y002936D01*
X016205Y002936D01*
X015378Y002227D02*
X015378Y001952D01*
X015378Y001951D02*
X015355Y001953D01*
X015333Y001958D01*
X015312Y001968D01*
X015293Y001980D01*
X015276Y001996D01*
X015262Y002014D01*
X015252Y002034D01*
X015244Y002055D01*
X015240Y002078D01*
X015240Y002100D01*
X015244Y002123D01*
X015252Y002144D01*
X015262Y002164D01*
X015276Y002182D01*
X015293Y002198D01*
X015312Y002210D01*
X015333Y002220D01*
X015355Y002225D01*
X015378Y002227D01*
X014926Y001956D02*
X014926Y001471D01*
X013201Y001471D01*
X013201Y001956D01*
X013201Y002711D02*
X013201Y003196D01*
X014926Y003196D01*
X014926Y002711D01*
X015455Y005369D02*
X015770Y005369D01*
X015455Y005369D02*
X015455Y005822D01*
X013527Y008723D02*
X013316Y008723D01*
X012862Y008873D02*
X012862Y009211D01*
X013982Y009211D02*
X013982Y008873D01*
X008319Y004641D02*
X008162Y004798D01*
X007729Y004798D01*
X008319Y004641D02*
X008319Y004011D01*
X008162Y003853D01*
X007729Y003853D01*
X007567Y003237D02*
X007567Y002737D01*
X007054Y002672D02*
X007054Y002042D01*
X007054Y002672D02*
X006581Y002672D01*
X006561Y002660D01*
X004829Y002660D01*
X004849Y002672D01*
X004376Y002672D01*
X004376Y002042D01*
X004376Y000704D02*
X007054Y000704D01*
X008167Y002737D02*
X008167Y003237D01*
X006941Y003853D02*
X006351Y003853D01*
X006351Y004798D01*
X006941Y004798D01*
X004634Y005499D02*
X004518Y005575D01*
X004512Y005585D02*
X004634Y005677D01*
X004512Y005767D02*
X004512Y005585D01*
X004512Y005404D01*
X004512Y006093D02*
X004512Y006274D01*
X004634Y006366D01*
X004512Y006456D02*
X004512Y006274D01*
X004518Y006264D02*
X004634Y006188D01*
X004646Y006782D02*
X004646Y006963D01*
X004524Y006871D01*
X004646Y006963D02*
X004646Y007144D01*
X004524Y007049D02*
X004640Y006973D01*
X004235Y012357D02*
X003054Y012357D01*
X002447Y012595D02*
X002197Y012345D01*
X000697Y012345D01*
X000447Y012595D01*
X000447Y013095D01*
X000697Y013345D01*
X002197Y013345D01*
X002447Y013095D01*
X002447Y012595D01*
X003073Y013184D02*
X004235Y013184D01*
X003073Y013185D02*
X003090Y013189D01*
X003106Y013197D01*
X003119Y013208D01*
X003130Y013222D01*
X003138Y013237D01*
X003142Y013255D01*
X003141Y013272D01*
X003137Y013289D01*
X003130Y013305D01*
X003119Y013319D01*
X003105Y013330D01*
X003089Y013338D01*
X003072Y013342D01*
X003054Y013342D01*
X003037Y013338D01*
X003021Y013330D01*
X003007Y013319D01*
X002996Y013305D01*
X002989Y013289D01*
X002985Y013272D01*
X002984Y013255D01*
X002988Y013237D01*
X002996Y013222D01*
X003007Y013208D01*
X003020Y013197D01*
X003036Y013189D01*
X003053Y013185D01*
X002447Y013595D02*
X002197Y013345D01*
X002447Y013595D02*
X002447Y014095D01*
X002197Y014345D01*
X000697Y014345D01*
X000447Y014095D01*
X000447Y013595D01*
X000697Y013345D01*
X000697Y014345D02*
X000447Y014595D01*
X000447Y015095D01*
X000697Y015345D01*
X002197Y015345D01*
X002447Y015095D01*
X002447Y014595D01*
X002197Y014345D01*
X000315Y014595D02*
X000315Y015095D01*
X015455Y013709D02*
X015455Y013499D01*
X015455Y013709D02*
X020573Y013709D01*
X020573Y013499D01*
X020573Y005822D02*
X020573Y005369D01*
X020258Y005369D01*
X019861Y003981D02*
X019474Y003981D01*
X019377Y003885D01*
X019377Y003691D01*
X019474Y003594D01*
X019861Y003594D01*
X019958Y003691D01*
X019958Y003885D01*
X019861Y003981D01*
X019958Y003374D02*
X019377Y003374D01*
X019668Y003374D02*
X019668Y003180D01*
X019958Y003374D02*
X019958Y002987D01*
X019958Y002766D02*
X019958Y002379D01*
X019668Y002573D02*
X019668Y002766D01*
X019958Y002766D02*
X019377Y002766D01*
X020107Y001412D02*
X020107Y001176D01*
D13*
X015060Y015246D02*
X015060Y015567D01*
X015060Y015406D02*
X015221Y015567D01*
X015301Y015567D01*
X014874Y015487D02*
X014874Y015406D01*
X014553Y015406D01*
X014553Y015326D02*
X014553Y015487D01*
X014633Y015567D01*
X014794Y015567D01*
X014874Y015487D01*
X014794Y015246D02*
X014633Y015246D01*
X014553Y015326D01*
X014375Y015246D02*
X014214Y015246D01*
X014295Y015246D02*
X014295Y015727D01*
X014214Y015727D01*
X013956Y015727D02*
X013956Y015246D01*
X013876Y015246D02*
X014037Y015246D01*
X013690Y015326D02*
X013690Y015487D01*
X013609Y015567D01*
X013449Y015567D01*
X013369Y015487D01*
X013369Y015326D01*
X013449Y015246D01*
X013609Y015246D01*
X013690Y015326D01*
X013876Y015727D02*
X013956Y015727D01*
X013186Y015567D02*
X013106Y015567D01*
X012946Y015406D01*
X012946Y015246D02*
X012946Y015567D01*
X012768Y015567D02*
X012607Y015567D01*
X012688Y015647D02*
X012688Y015326D01*
X012768Y015246D01*
X012421Y015246D02*
X012421Y015487D01*
X012341Y015567D01*
X012100Y015567D01*
X012100Y015246D01*
X011913Y015326D02*
X011913Y015487D01*
X011833Y015567D01*
X011672Y015567D01*
X011592Y015487D01*
X011592Y015326D01*
X011672Y015246D01*
X011833Y015246D01*
X011913Y015326D01*
X011406Y015326D02*
X011325Y015246D01*
X011165Y015246D01*
X011085Y015326D01*
X011085Y015647D01*
X011165Y015727D01*
X011325Y015727D01*
X011406Y015647D01*
X010391Y015487D02*
X010391Y015246D01*
X010391Y015487D02*
X010310Y015567D01*
X010150Y015567D01*
X010070Y015487D01*
X009892Y015567D02*
X009731Y015567D01*
X009812Y015647D02*
X009812Y015326D01*
X009892Y015246D01*
X010070Y015246D02*
X010070Y015727D01*
X009545Y015487D02*
X009545Y015326D01*
X009465Y015246D01*
X009304Y015246D01*
X009224Y015326D01*
X009224Y015487D01*
X009304Y015567D01*
X009465Y015567D01*
X009545Y015487D01*
X009037Y015487D02*
X009037Y015326D01*
X008957Y015246D01*
X008797Y015246D01*
X008716Y015326D01*
X008716Y015487D01*
X008797Y015567D01*
X008957Y015567D01*
X009037Y015487D01*
X008538Y015567D02*
X008378Y015567D01*
X008458Y015647D02*
X008458Y015326D01*
X008538Y015246D01*
X008191Y015406D02*
X008191Y015487D01*
X008111Y015567D01*
X007951Y015567D01*
X007870Y015487D01*
X007870Y015326D01*
X007951Y015246D01*
X008111Y015246D01*
X008191Y015406D02*
X007870Y015406D01*
X007684Y015246D02*
X007684Y015567D01*
X007363Y015567D02*
X007363Y015326D01*
X007443Y015246D01*
X007684Y015246D01*
X007185Y015246D02*
X007025Y015246D01*
X007105Y015246D02*
X007105Y015727D01*
X007025Y015727D01*
X006838Y015647D02*
X006838Y015567D01*
X006758Y015487D01*
X006517Y015487D01*
X006517Y015727D02*
X006758Y015727D01*
X006838Y015647D01*
X006758Y015487D02*
X006838Y015406D01*
X006838Y015326D01*
X006758Y015246D01*
X006517Y015246D01*
X006517Y015727D01*
X005823Y015727D02*
X005662Y015647D01*
X005502Y015487D01*
X005743Y015487D01*
X005823Y015406D01*
X005823Y015326D01*
X005743Y015246D01*
X005582Y015246D01*
X005502Y015326D01*
X005502Y015487D01*
X005316Y015246D02*
X004994Y015246D01*
X005155Y015246D02*
X005155Y015727D01*
X004994Y015567D01*
X004808Y015567D02*
X004808Y015647D01*
X004728Y015727D01*
X004567Y015727D01*
X004487Y015647D01*
X004300Y015647D02*
X004300Y015567D01*
X004220Y015487D01*
X004300Y015406D01*
X004300Y015326D01*
X004220Y015246D01*
X004060Y015246D01*
X003979Y015326D01*
X004140Y015487D02*
X004220Y015487D01*
X004300Y015647D02*
X004220Y015727D01*
X004060Y015727D01*
X003979Y015647D01*
X004487Y015246D02*
X004808Y015567D01*
X004808Y015246D02*
X004487Y015246D01*
D14*
X003300Y015337D02*
X003300Y015361D01*
X007070Y013576D02*
X007070Y013552D01*
X005262Y010125D02*
X005262Y010101D01*
X006252Y008196D02*
X006252Y008172D01*
X007630Y008172D02*
X007630Y008196D01*
X007561Y005243D02*
X007561Y005219D01*
X012410Y009042D02*
X012434Y009042D01*
X012473Y010278D02*
X012473Y010302D01*
X001457Y011855D02*
X001457Y011879D01*
X001343Y007160D02*
X001319Y007160D01*
D15*
X008506Y007337D03*
X003300Y013696D03*
X003300Y014522D03*
D16*
X005146Y010643D02*
X005459Y010329D01*
X005302Y010329D02*
X005302Y010643D01*
X005459Y010643D02*
X005146Y010329D01*
X005146Y010486D02*
X005459Y010486D01*
D17*
X003703Y010664D02*
X003585Y010664D01*
X003585Y011885D02*
X003703Y011885D01*
X008556Y011963D02*
X008674Y011963D01*
X008674Y010743D02*
X008556Y010743D01*
X003457Y006491D02*
X003339Y006491D01*
X003339Y005270D02*
X003457Y005270D01*
D18*
X014456Y006924D03*
X005111Y014247D03*
X004304Y014247D03*
M02*
