G75*
G70*
%OFA0B0*%
%FSLAX24Y24*%
%IPPOS*%
%LPD*%
%AMOC8*
5,1,8,0,0,1.08239X$1,22.5*
%
%ADD10OC8,0.0640*%
%ADD11R,0.0394X0.1811*%
%ADD12R,0.0630X0.1339*%
%ADD13OC8,0.0740*%
%ADD14C,0.0240*%
%ADD15C,0.0160*%
%ADD16C,0.0120*%
%ADD17C,0.0330*%
%ADD18C,0.0436*%
%ADD19C,0.0100*%
%ADD20C,0.0397*%
%ADD21C,0.0181*%
%ADD22R,0.0330X0.0330*%
D10*
X010103Y007609D03*
X011103Y007609D03*
X011103Y008609D03*
X010103Y008609D03*
X010103Y009609D03*
X011103Y009609D03*
X011103Y010609D03*
X010103Y010609D03*
X010103Y011609D03*
X011103Y011609D03*
X011103Y012609D03*
X011103Y013609D03*
X010103Y013609D03*
X010103Y012609D03*
X010103Y014609D03*
X011103Y014609D03*
D11*
X018727Y012597D03*
X019514Y012597D03*
D12*
X020459Y014644D03*
X017782Y014644D03*
D13*
X001947Y014845D03*
X000947Y014845D03*
X000847Y013845D03*
X001847Y013845D03*
X001947Y012845D03*
X000947Y012845D03*
D14*
X011103Y009609D02*
X011103Y008609D01*
X011103Y007609D01*
X011152Y009648D02*
X011988Y010485D01*
X013937Y010485D01*
X015327Y009095D01*
X015327Y004916D01*
X015518Y004497D02*
X014959Y004497D01*
X014540Y004916D01*
X015518Y004497D02*
X018727Y007705D01*
X018727Y011233D01*
X018727Y012597D01*
X018727Y011233D02*
X018650Y011156D01*
X018713Y011156D01*
X018650Y011156D02*
X012158Y011156D01*
D15*
X011152Y009648D02*
X011142Y009648D01*
X011103Y009609D01*
X013134Y007664D02*
X013150Y007664D01*
X013134Y007664D02*
X012355Y006885D01*
X012355Y006570D01*
X011961Y006176D01*
X007876Y006176D01*
X002512Y006176D01*
X002119Y006570D01*
X002119Y006963D01*
D16*
X005520Y009424D02*
X007138Y009424D01*
X007138Y009436D01*
X007550Y009436D01*
X007550Y011964D01*
X007550Y012064D01*
X008640Y013154D01*
X009370Y012424D01*
X009650Y012164D01*
X009710Y012104D01*
X010340Y012104D01*
X010420Y012104D01*
X010580Y012264D01*
X010603Y012287D01*
X010603Y014109D01*
X012109Y013115D02*
X012109Y011206D01*
X012158Y011156D01*
X009353Y010461D02*
X007900Y011914D01*
X008640Y013154D02*
X008378Y013416D01*
X007658Y014136D01*
X007550Y014136D01*
X007658Y014136D02*
X006738Y014136D01*
X009353Y010461D02*
X009353Y008637D01*
X008910Y009424D02*
X007150Y009424D01*
X007040Y009424D01*
X007138Y009436D02*
X007150Y009424D01*
D17*
X005520Y009424D03*
X004107Y009562D03*
X003693Y010113D03*
X002505Y010421D03*
X001823Y010999D03*
X004610Y012475D03*
X004610Y013410D03*
X004141Y013410D03*
X006738Y014136D03*
X006690Y014784D03*
X009140Y013119D03*
X008811Y012456D03*
X007900Y011914D03*
X010603Y014109D03*
X012109Y013115D03*
X013339Y014440D03*
X010726Y015625D03*
X012158Y011156D03*
X013792Y010113D03*
X014630Y010444D03*
X009353Y008637D03*
X008843Y007930D03*
X008910Y009424D03*
X002119Y006963D03*
X006010Y003446D03*
D18*
X014540Y004916D03*
X015327Y004916D03*
D19*
X000320Y000834D02*
X000320Y013161D01*
X000410Y013072D01*
X000407Y013069D01*
X000407Y012622D01*
X000724Y012305D01*
X001171Y012305D01*
X001461Y012596D01*
X001732Y012325D01*
X001897Y012325D01*
X001897Y012795D01*
X001997Y012795D01*
X001997Y012325D01*
X002163Y012325D01*
X002467Y012630D01*
X002467Y012795D01*
X001997Y012795D01*
X001997Y012895D01*
X002467Y012895D01*
X002467Y013061D01*
X002163Y013365D01*
X002131Y013365D01*
X002387Y013622D01*
X002387Y013625D01*
X002438Y013625D01*
X003478Y014665D01*
X003478Y014665D01*
X003717Y014904D01*
X007464Y014904D01*
X007694Y014674D01*
X005256Y014674D01*
X005177Y014682D01*
X005167Y014674D01*
X005154Y014674D01*
X005098Y014618D01*
X004847Y014414D01*
X004834Y014414D01*
X004778Y014358D01*
X004716Y014307D01*
X004714Y014295D01*
X004481Y014061D01*
X004165Y013745D01*
X004075Y013745D01*
X003951Y013694D01*
X003857Y013600D01*
X003806Y013477D01*
X003806Y013344D01*
X003857Y013220D01*
X003951Y013126D01*
X004075Y013075D01*
X004208Y013075D01*
X004331Y013126D01*
X004376Y013171D01*
X004390Y013156D01*
X004390Y012729D01*
X004326Y012665D01*
X004275Y012542D01*
X004275Y012409D01*
X004326Y012285D01*
X004420Y012191D01*
X004543Y012140D01*
X004677Y012140D01*
X004800Y012191D01*
X004894Y012285D01*
X004945Y012409D01*
X004945Y012542D01*
X004894Y012665D01*
X004830Y012729D01*
X004830Y013156D01*
X004894Y013220D01*
X004945Y013344D01*
X004945Y013477D01*
X004894Y013600D01*
X004800Y013694D01*
X004755Y013713D01*
X004792Y013750D01*
X004792Y013750D01*
X005073Y014031D01*
X005323Y014234D01*
X006416Y014234D01*
X006403Y014203D01*
X006403Y014070D01*
X006454Y013947D01*
X006548Y013852D01*
X006672Y013801D01*
X006805Y013801D01*
X006928Y013852D01*
X006982Y013906D01*
X007563Y013906D01*
X008283Y013186D01*
X008315Y013154D01*
X007320Y012159D01*
X007320Y009666D01*
X007043Y009666D01*
X007031Y009654D01*
X005764Y009654D01*
X005710Y009708D01*
X005587Y009759D01*
X005453Y009759D01*
X005330Y009708D01*
X005236Y009614D01*
X005185Y009491D01*
X005185Y009358D01*
X005236Y009234D01*
X005330Y009140D01*
X005453Y009089D01*
X005587Y009089D01*
X005710Y009140D01*
X005764Y009194D01*
X006944Y009194D01*
X006944Y009194D01*
X008666Y009194D01*
X008720Y009140D01*
X008843Y009089D01*
X008976Y009089D01*
X009100Y009140D01*
X009123Y009163D01*
X009123Y008880D01*
X009069Y008826D01*
X009018Y008703D01*
X009018Y008570D01*
X009069Y008447D01*
X009163Y008353D01*
X009286Y008302D01*
X009419Y008302D01*
X009543Y008353D01*
X009633Y008443D01*
X009633Y008414D01*
X009908Y008139D01*
X010053Y008139D01*
X010053Y008559D01*
X010153Y008559D01*
X010153Y008659D01*
X010573Y008659D01*
X010573Y008804D01*
X010297Y009079D01*
X010153Y009079D01*
X010153Y008659D01*
X010053Y008659D01*
X010053Y009079D01*
X009908Y009079D01*
X009642Y008813D01*
X009637Y008826D01*
X009583Y008880D01*
X009583Y010557D01*
X008235Y011904D01*
X008235Y011981D01*
X008184Y012104D01*
X008090Y012198D01*
X008033Y012222D01*
X008640Y012829D01*
X008697Y012772D01*
X008622Y012740D01*
X008527Y012646D01*
X008476Y012523D01*
X008476Y012390D01*
X008527Y012267D01*
X008622Y012172D01*
X008745Y012121D01*
X008835Y012121D01*
X009433Y011524D01*
X009433Y011518D01*
X009562Y011389D01*
X009630Y011389D01*
X009900Y011119D01*
X010306Y011119D01*
X010593Y011406D01*
X010593Y011812D01*
X010523Y011882D01*
X010675Y012034D01*
X010830Y012189D01*
X010900Y012119D01*
X011306Y012119D01*
X011593Y012406D01*
X011593Y012812D01*
X011306Y013099D01*
X010900Y013099D01*
X010833Y013032D01*
X010833Y013186D01*
X010900Y013119D01*
X011306Y013119D01*
X011593Y013406D01*
X011593Y013812D01*
X011306Y014099D01*
X010938Y014099D01*
X010938Y014119D01*
X011306Y014119D01*
X011593Y014406D01*
X011593Y014812D01*
X011306Y015099D01*
X010900Y015099D01*
X010613Y014812D01*
X010613Y014444D01*
X010593Y014444D01*
X010593Y014812D01*
X010306Y015099D01*
X009900Y015099D01*
X009687Y014886D01*
X009168Y015405D01*
X010472Y015405D01*
X010536Y015341D01*
X010659Y015290D01*
X010792Y015290D01*
X010916Y015341D01*
X011010Y015435D01*
X011061Y015558D01*
X011061Y015691D01*
X011010Y015815D01*
X010976Y015849D01*
X020821Y015849D01*
X020821Y015484D01*
X020074Y015484D01*
X019974Y015384D01*
X019974Y013905D01*
X020074Y013805D01*
X020821Y013805D01*
X020821Y000834D01*
X012840Y000834D01*
X012840Y005065D01*
X012740Y005165D01*
X008465Y005165D01*
X008366Y005065D01*
X008366Y000834D01*
X000320Y000834D01*
X000320Y000861D02*
X008366Y000861D01*
X008366Y000960D02*
X000320Y000960D01*
X000320Y001058D02*
X008366Y001058D01*
X008366Y001157D02*
X000320Y001157D01*
X000320Y001255D02*
X001851Y001255D01*
X001967Y001207D02*
X001616Y001353D01*
X001346Y001622D01*
X001200Y001974D01*
X001200Y002355D01*
X001346Y002706D01*
X001616Y002976D01*
X001967Y003122D01*
X002348Y003122D01*
X002700Y002976D01*
X002970Y002706D01*
X003115Y002355D01*
X003115Y001974D01*
X002970Y001622D01*
X002700Y001353D01*
X002348Y001207D01*
X001967Y001207D01*
X001614Y001354D02*
X000320Y001354D01*
X000320Y001452D02*
X001516Y001452D01*
X001417Y001551D02*
X000320Y001551D01*
X000320Y001649D02*
X001335Y001649D01*
X001294Y001748D02*
X000320Y001748D01*
X000320Y001846D02*
X001253Y001846D01*
X001213Y001945D02*
X000320Y001945D01*
X000320Y002043D02*
X001200Y002043D01*
X001200Y002142D02*
X000320Y002142D01*
X000320Y002240D02*
X001200Y002240D01*
X001200Y002339D02*
X000320Y002339D01*
X000320Y002437D02*
X001235Y002437D01*
X001275Y002536D02*
X000320Y002536D01*
X000320Y002634D02*
X001316Y002634D01*
X001372Y002733D02*
X000320Y002733D01*
X000320Y002831D02*
X001471Y002831D01*
X001569Y002930D02*
X000320Y002930D01*
X000320Y003028D02*
X001742Y003028D01*
X002574Y003028D02*
X008366Y003028D01*
X008366Y002930D02*
X002746Y002930D01*
X002845Y002831D02*
X008366Y002831D01*
X008366Y002733D02*
X002943Y002733D01*
X002999Y002634D02*
X008366Y002634D01*
X008366Y002536D02*
X003040Y002536D01*
X003081Y002437D02*
X008366Y002437D01*
X008366Y002339D02*
X003115Y002339D01*
X003115Y002240D02*
X008366Y002240D01*
X008366Y002142D02*
X003115Y002142D01*
X003115Y002043D02*
X008366Y002043D01*
X008366Y001945D02*
X003103Y001945D01*
X003062Y001846D02*
X008366Y001846D01*
X008366Y001748D02*
X003022Y001748D01*
X002981Y001649D02*
X008366Y001649D01*
X008366Y001551D02*
X002898Y001551D01*
X002800Y001452D02*
X008366Y001452D01*
X008366Y001354D02*
X002701Y001354D01*
X002465Y001255D02*
X008366Y001255D01*
X008366Y003127D02*
X000320Y003127D01*
X000320Y003225D02*
X008366Y003225D01*
X008366Y003324D02*
X000320Y003324D01*
X000320Y003422D02*
X008366Y003422D01*
X008366Y003521D02*
X000320Y003521D01*
X000320Y003619D02*
X008366Y003619D01*
X008366Y003718D02*
X000320Y003718D01*
X000320Y003816D02*
X008366Y003816D01*
X008366Y003915D02*
X000320Y003915D01*
X000320Y004013D02*
X008366Y004013D01*
X008366Y004112D02*
X000320Y004112D01*
X000320Y004210D02*
X008366Y004210D01*
X008366Y004309D02*
X000320Y004309D01*
X000320Y004407D02*
X008366Y004407D01*
X008366Y004506D02*
X000320Y004506D01*
X000320Y004604D02*
X008366Y004604D01*
X008366Y004703D02*
X000320Y004703D01*
X000320Y004801D02*
X008366Y004801D01*
X008366Y004900D02*
X000320Y004900D01*
X000320Y004998D02*
X008366Y004998D01*
X008397Y005097D02*
X000320Y005097D01*
X000320Y005195D02*
X014270Y005195D01*
X014320Y005245D02*
X014211Y005136D01*
X014152Y004993D01*
X014152Y004839D01*
X014211Y004696D01*
X014320Y004587D01*
X014463Y004528D01*
X014518Y004528D01*
X014713Y004333D01*
X014795Y004251D01*
X014901Y004207D01*
X015576Y004207D01*
X015683Y004251D01*
X018891Y007459D01*
X018973Y007541D01*
X019017Y007648D01*
X019017Y011544D01*
X019094Y011621D01*
X019094Y013573D01*
X018994Y013673D01*
X018460Y013673D01*
X018360Y013573D01*
X018360Y011621D01*
X018437Y011544D01*
X018437Y011446D01*
X012339Y011446D01*
X012339Y012871D01*
X012393Y012925D01*
X012444Y013048D01*
X012444Y013182D01*
X012393Y013305D01*
X012298Y013399D01*
X012175Y013450D01*
X012042Y013450D01*
X011919Y013399D01*
X011825Y013305D01*
X011774Y013182D01*
X011774Y013048D01*
X011825Y012925D01*
X011879Y012871D01*
X011879Y011351D01*
X011874Y011346D01*
X011823Y011223D01*
X011823Y011090D01*
X011874Y010967D01*
X011968Y010872D01*
X012091Y010821D01*
X012225Y010821D01*
X012333Y010866D01*
X018437Y010866D01*
X018437Y007825D01*
X015683Y005071D01*
X015656Y005136D01*
X015617Y005175D01*
X015617Y009153D01*
X015573Y009259D01*
X014183Y010649D01*
X014102Y010731D01*
X013995Y010775D01*
X011931Y010775D01*
X011824Y010731D01*
X011593Y010499D01*
X011593Y010812D01*
X011306Y011099D01*
X010900Y011099D01*
X010613Y010812D01*
X010613Y010406D01*
X010900Y010119D01*
X011212Y010119D01*
X011192Y010099D01*
X010900Y010099D01*
X010613Y009812D01*
X010613Y009406D01*
X010813Y009206D01*
X010813Y009012D01*
X010613Y008812D01*
X010613Y008406D01*
X010813Y008206D01*
X010813Y008012D01*
X010613Y007812D01*
X010613Y007406D01*
X010835Y007183D01*
X010342Y007183D01*
X010573Y007414D01*
X010573Y007559D01*
X010153Y007559D01*
X010153Y007659D01*
X010573Y007659D01*
X010573Y007804D01*
X010297Y008079D01*
X010153Y008079D01*
X010153Y007659D01*
X010053Y007659D01*
X010053Y008079D01*
X009908Y008079D01*
X009633Y007804D01*
X009633Y007659D01*
X010053Y007659D01*
X010053Y007559D01*
X009633Y007559D01*
X009633Y007414D01*
X009864Y007183D01*
X009741Y007183D01*
X009144Y007781D01*
X009178Y007864D01*
X009178Y007997D01*
X009127Y008120D01*
X009033Y008214D01*
X008909Y008265D01*
X008776Y008265D01*
X008653Y008214D01*
X008559Y008120D01*
X008508Y007997D01*
X008508Y007864D01*
X008559Y007740D01*
X008653Y007646D01*
X008658Y007644D01*
X009559Y006743D01*
X011658Y006743D01*
X011787Y006872D01*
X012181Y007266D01*
X012181Y007708D01*
X012782Y007708D01*
X012782Y007665D01*
X012143Y007026D01*
X012105Y006934D01*
X012105Y006673D01*
X011857Y006426D01*
X008147Y006426D01*
X008085Y006488D01*
X007950Y006544D01*
X007803Y006544D01*
X007668Y006488D01*
X007605Y006426D01*
X002616Y006426D01*
X002369Y006673D01*
X012104Y006673D01*
X012105Y006771D02*
X011686Y006771D01*
X011785Y006870D02*
X012105Y006870D01*
X012119Y006968D02*
X011883Y006968D01*
X011982Y007067D02*
X012183Y007067D01*
X012282Y007165D02*
X012080Y007165D01*
X012179Y007264D02*
X012380Y007264D01*
X012479Y007362D02*
X012181Y007362D01*
X012181Y007461D02*
X012577Y007461D01*
X012676Y007559D02*
X012181Y007559D01*
X012181Y007658D02*
X012774Y007658D01*
X012926Y007928D02*
X012020Y007928D01*
X011961Y007869D01*
X011961Y007357D01*
X011567Y006963D01*
X009650Y006963D01*
X008843Y007771D01*
X008843Y007930D01*
X008530Y008052D02*
X002339Y008052D01*
X002339Y008150D02*
X008589Y008150D01*
X008736Y008249D02*
X002339Y008249D01*
X002339Y008347D02*
X009176Y008347D01*
X009070Y008446D02*
X002339Y008446D01*
X002339Y008544D02*
X009028Y008544D01*
X009018Y008643D02*
X002339Y008643D01*
X002339Y008741D02*
X009033Y008741D01*
X009082Y008840D02*
X002339Y008840D01*
X002339Y008938D02*
X009123Y008938D01*
X009123Y009037D02*
X002339Y009037D01*
X002339Y009135D02*
X005342Y009135D01*
X005237Y009234D02*
X004190Y009234D01*
X004173Y009227D02*
X004296Y009278D01*
X004391Y009372D01*
X004442Y009495D01*
X004442Y009628D01*
X005250Y009628D01*
X005201Y009529D02*
X004442Y009529D01*
X004442Y009628D02*
X004391Y009752D01*
X004327Y009816D01*
X004327Y010677D01*
X004198Y010805D01*
X003784Y011219D01*
X002077Y011219D01*
X002013Y011283D01*
X001890Y011334D01*
X001757Y011334D01*
X001633Y011283D01*
X001539Y011189D01*
X001488Y011065D01*
X001488Y010932D01*
X001539Y010809D01*
X001633Y010715D01*
X001757Y010664D01*
X001890Y010664D01*
X001899Y010667D01*
X001899Y007217D01*
X001835Y007153D01*
X001784Y007030D01*
X001784Y006897D01*
X001835Y006774D01*
X001869Y006740D01*
X001869Y006520D01*
X001907Y006428D01*
X001977Y006358D01*
X002371Y005964D01*
X002462Y005926D01*
X007605Y005926D01*
X007668Y005864D01*
X007803Y005808D01*
X007950Y005808D01*
X008085Y005864D01*
X008147Y005926D01*
X012011Y005926D01*
X012103Y005964D01*
X012496Y006358D01*
X012567Y006428D01*
X012605Y006520D01*
X012605Y006781D01*
X013119Y007296D01*
X013223Y007296D01*
X013359Y007352D01*
X013462Y007455D01*
X013518Y007591D01*
X013518Y007737D01*
X013462Y007873D01*
X013359Y007977D01*
X013307Y007998D01*
X014012Y008703D01*
X014012Y009859D01*
X014076Y009923D01*
X014080Y009933D01*
X015037Y008975D01*
X015037Y005175D01*
X014998Y005136D01*
X014939Y004993D01*
X014939Y004927D01*
X014928Y004938D01*
X014928Y004993D01*
X014869Y005136D01*
X014760Y005245D01*
X014617Y005304D01*
X014463Y005304D01*
X014320Y005245D01*
X014437Y005294D02*
X000320Y005294D01*
X000320Y005392D02*
X015037Y005392D01*
X015037Y005294D02*
X014642Y005294D01*
X014810Y005195D02*
X015037Y005195D01*
X014982Y005097D02*
X014885Y005097D01*
X014926Y004998D02*
X014941Y004998D01*
X015037Y005491D02*
X000320Y005491D01*
X000320Y005589D02*
X015037Y005589D01*
X015037Y005688D02*
X000320Y005688D01*
X000320Y005786D02*
X015037Y005786D01*
X015037Y005885D02*
X008106Y005885D01*
X007647Y005885D02*
X000320Y005885D01*
X000320Y005983D02*
X002351Y005983D01*
X002253Y006082D02*
X000320Y006082D01*
X000320Y006180D02*
X002154Y006180D01*
X002056Y006279D02*
X000320Y006279D01*
X000320Y006377D02*
X001957Y006377D01*
X001887Y006476D02*
X000320Y006476D01*
X000320Y006574D02*
X001869Y006574D01*
X001869Y006673D02*
X000320Y006673D01*
X000320Y006771D02*
X001837Y006771D01*
X001795Y006870D02*
X000320Y006870D01*
X000320Y006968D02*
X001784Y006968D01*
X001799Y007067D02*
X000320Y007067D01*
X000320Y007165D02*
X001847Y007165D01*
X001899Y007264D02*
X000320Y007264D01*
X000320Y007362D02*
X001899Y007362D01*
X001899Y007461D02*
X000320Y007461D01*
X000320Y007559D02*
X001899Y007559D01*
X001899Y007658D02*
X000320Y007658D01*
X000320Y007756D02*
X001899Y007756D01*
X001899Y007855D02*
X000320Y007855D01*
X000320Y007953D02*
X001899Y007953D01*
X001899Y008052D02*
X000320Y008052D01*
X000320Y008150D02*
X001899Y008150D01*
X001899Y008249D02*
X000320Y008249D01*
X000320Y008347D02*
X001899Y008347D01*
X001899Y008446D02*
X000320Y008446D01*
X000320Y008544D02*
X001899Y008544D01*
X001899Y008643D02*
X000320Y008643D01*
X000320Y008741D02*
X001899Y008741D01*
X001899Y008840D02*
X000320Y008840D01*
X000320Y008938D02*
X001899Y008938D01*
X001899Y009037D02*
X000320Y009037D01*
X000320Y009135D02*
X001899Y009135D01*
X001899Y009234D02*
X000320Y009234D01*
X000320Y009332D02*
X001899Y009332D01*
X001899Y009431D02*
X000320Y009431D01*
X000320Y009529D02*
X001899Y009529D01*
X001899Y009628D02*
X000320Y009628D01*
X000320Y009726D02*
X001899Y009726D01*
X001899Y009825D02*
X000320Y009825D01*
X000320Y009923D02*
X001899Y009923D01*
X001899Y010022D02*
X000320Y010022D01*
X000320Y010120D02*
X001899Y010120D01*
X001899Y010219D02*
X000320Y010219D01*
X000320Y010317D02*
X001899Y010317D01*
X001899Y010416D02*
X000320Y010416D01*
X000320Y010514D02*
X001899Y010514D01*
X001899Y010613D02*
X000320Y010613D01*
X000320Y010711D02*
X001642Y010711D01*
X001539Y010810D02*
X000320Y010810D01*
X000320Y010908D02*
X001498Y010908D01*
X001488Y011007D02*
X000320Y011007D01*
X000320Y011105D02*
X001505Y011105D01*
X001554Y011204D02*
X000320Y011204D01*
X000320Y011302D02*
X001680Y011302D01*
X001966Y011302D02*
X007320Y011302D01*
X007320Y011204D02*
X003800Y011204D01*
X003898Y011105D02*
X007320Y011105D01*
X007320Y011007D02*
X003997Y011007D01*
X004095Y010908D02*
X007320Y010908D01*
X007320Y010810D02*
X004194Y010810D01*
X004292Y010711D02*
X007320Y010711D01*
X007320Y010613D02*
X004327Y010613D01*
X004327Y010514D02*
X007320Y010514D01*
X007320Y010416D02*
X004327Y010416D01*
X004327Y010317D02*
X007320Y010317D01*
X007320Y010219D02*
X004327Y010219D01*
X004327Y010120D02*
X007320Y010120D01*
X007320Y010022D02*
X004327Y010022D01*
X004327Y009923D02*
X007320Y009923D01*
X007320Y009825D02*
X004327Y009825D01*
X004401Y009726D02*
X005374Y009726D01*
X005666Y009726D02*
X007320Y009726D01*
X008732Y009135D02*
X005698Y009135D01*
X005195Y009332D02*
X004351Y009332D01*
X004415Y009431D02*
X005185Y009431D01*
X004173Y009227D02*
X004040Y009227D01*
X003917Y009278D01*
X003823Y009372D01*
X003772Y009495D01*
X003772Y009628D01*
X002339Y009628D01*
X002339Y009726D02*
X003812Y009726D01*
X003823Y009752D02*
X003772Y009628D01*
X003772Y009529D02*
X002339Y009529D01*
X002339Y009431D02*
X003798Y009431D01*
X003863Y009332D02*
X002339Y009332D01*
X002339Y009234D02*
X004023Y009234D01*
X004107Y009562D02*
X004107Y010585D01*
X003693Y010999D01*
X001823Y010999D01*
X002119Y010633D02*
X002288Y010802D01*
X003595Y010802D01*
X003693Y010704D01*
X003693Y010113D01*
X003473Y010367D02*
X003409Y010303D01*
X003358Y010180D01*
X003358Y010046D01*
X003409Y009923D01*
X003504Y009829D01*
X003627Y009778D01*
X003760Y009778D01*
X003883Y009829D01*
X003887Y009833D01*
X003887Y009816D01*
X003823Y009752D01*
X003873Y009825D02*
X003887Y009825D01*
X003514Y009825D02*
X002339Y009825D01*
X002339Y009923D02*
X003409Y009923D01*
X003369Y010022D02*
X002339Y010022D01*
X002339Y010120D02*
X003358Y010120D01*
X003374Y010219D02*
X002339Y010219D01*
X002339Y010317D02*
X003424Y010317D01*
X003473Y010367D02*
X003473Y010582D01*
X002379Y010582D01*
X002339Y010542D01*
X002339Y007217D01*
X002403Y007153D01*
X002454Y007030D01*
X002454Y006897D01*
X002403Y006774D01*
X002369Y006740D01*
X002369Y006673D01*
X002400Y006771D02*
X009531Y006771D01*
X009433Y006870D02*
X002442Y006870D01*
X002454Y006968D02*
X009334Y006968D01*
X009236Y007067D02*
X002438Y007067D01*
X002390Y007165D02*
X009137Y007165D01*
X009039Y007264D02*
X002339Y007264D01*
X002339Y007362D02*
X008940Y007362D01*
X008842Y007461D02*
X002339Y007461D01*
X002339Y007559D02*
X008743Y007559D01*
X008642Y007658D02*
X002339Y007658D01*
X002339Y007756D02*
X008552Y007756D01*
X008511Y007855D02*
X002339Y007855D01*
X002339Y007953D02*
X008508Y007953D01*
X008949Y008249D02*
X009798Y008249D01*
X009700Y008347D02*
X009529Y008347D01*
X009897Y008150D02*
X009097Y008150D01*
X009155Y008052D02*
X009881Y008052D01*
X009782Y007953D02*
X009178Y007953D01*
X009174Y007855D02*
X009684Y007855D01*
X009633Y007756D02*
X009168Y007756D01*
X009267Y007658D02*
X010053Y007658D01*
X010053Y007756D02*
X010153Y007756D01*
X010153Y007658D02*
X010613Y007658D01*
X010613Y007756D02*
X010573Y007756D01*
X010522Y007855D02*
X010655Y007855D01*
X010754Y007953D02*
X010423Y007953D01*
X010325Y008052D02*
X010813Y008052D01*
X010813Y008150D02*
X010309Y008150D01*
X010297Y008139D02*
X010573Y008414D01*
X010573Y008559D01*
X010153Y008559D01*
X010153Y008139D01*
X010297Y008139D01*
X010153Y008150D02*
X010053Y008150D01*
X010053Y008052D02*
X010153Y008052D01*
X010153Y007953D02*
X010053Y007953D01*
X010053Y007855D02*
X010153Y007855D01*
X010153Y007559D02*
X010613Y007559D01*
X010613Y007461D02*
X010573Y007461D01*
X010521Y007362D02*
X010657Y007362D01*
X010755Y007264D02*
X010422Y007264D01*
X010053Y007559D02*
X009365Y007559D01*
X009464Y007461D02*
X009633Y007461D01*
X009685Y007362D02*
X009562Y007362D01*
X009661Y007264D02*
X009783Y007264D01*
X010053Y008249D02*
X010153Y008249D01*
X010153Y008347D02*
X010053Y008347D01*
X010053Y008446D02*
X010153Y008446D01*
X010153Y008544D02*
X010053Y008544D01*
X010153Y008643D02*
X010613Y008643D01*
X010613Y008741D02*
X010573Y008741D01*
X010537Y008840D02*
X010640Y008840D01*
X010739Y008938D02*
X010438Y008938D01*
X010340Y009037D02*
X010813Y009037D01*
X010813Y009135D02*
X009583Y009135D01*
X009583Y009037D02*
X009866Y009037D01*
X009908Y009139D02*
X009633Y009414D01*
X009633Y009559D01*
X010053Y009559D01*
X010153Y009559D01*
X010153Y009659D01*
X010573Y009659D01*
X010573Y009804D01*
X010297Y010079D01*
X010153Y010079D01*
X010153Y009659D01*
X010053Y009659D01*
X010053Y010079D01*
X009908Y010079D01*
X009633Y009804D01*
X009633Y009659D01*
X010053Y009659D01*
X010053Y009559D01*
X010053Y009139D01*
X009908Y009139D01*
X009813Y009234D02*
X009583Y009234D01*
X009583Y009332D02*
X009715Y009332D01*
X009633Y009431D02*
X009583Y009431D01*
X009583Y009529D02*
X009633Y009529D01*
X009583Y009628D02*
X010053Y009628D01*
X010053Y009726D02*
X010153Y009726D01*
X010153Y009628D02*
X010613Y009628D01*
X010573Y009559D02*
X010153Y009559D01*
X010153Y009139D01*
X010297Y009139D01*
X010573Y009414D01*
X010573Y009559D01*
X010573Y009529D02*
X010613Y009529D01*
X010613Y009431D02*
X010573Y009431D01*
X010491Y009332D02*
X010687Y009332D01*
X010785Y009234D02*
X010392Y009234D01*
X010153Y009234D02*
X010053Y009234D01*
X010053Y009332D02*
X010153Y009332D01*
X010153Y009431D02*
X010053Y009431D01*
X010053Y009529D02*
X010153Y009529D01*
X010153Y009825D02*
X010053Y009825D01*
X010053Y009923D02*
X010153Y009923D01*
X010153Y010022D02*
X010053Y010022D01*
X009900Y010119D02*
X010306Y010119D01*
X010593Y010406D01*
X010593Y010812D01*
X010306Y011099D01*
X009900Y011099D01*
X009613Y010812D01*
X009613Y010406D01*
X009900Y010119D01*
X009899Y010120D02*
X009583Y010120D01*
X009583Y010022D02*
X009851Y010022D01*
X009752Y009923D02*
X009583Y009923D01*
X009583Y009825D02*
X009654Y009825D01*
X009633Y009726D02*
X009583Y009726D01*
X009583Y010219D02*
X009800Y010219D01*
X009702Y010317D02*
X009583Y010317D01*
X009583Y010416D02*
X009613Y010416D01*
X009613Y010514D02*
X009583Y010514D01*
X009613Y010613D02*
X009527Y010613D01*
X009613Y010711D02*
X009428Y010711D01*
X009330Y010810D02*
X009613Y010810D01*
X009709Y010908D02*
X009231Y010908D01*
X009133Y011007D02*
X009807Y011007D01*
X009815Y011204D02*
X008936Y011204D01*
X008837Y011302D02*
X009717Y011302D01*
X009550Y011401D02*
X008739Y011401D01*
X008640Y011499D02*
X009451Y011499D01*
X009359Y011598D02*
X008542Y011598D01*
X008443Y011696D02*
X009261Y011696D01*
X009162Y011795D02*
X008345Y011795D01*
X008246Y011893D02*
X009064Y011893D01*
X008965Y011992D02*
X008230Y011992D01*
X008190Y012090D02*
X008867Y012090D01*
X008605Y012189D02*
X008099Y012189D01*
X008098Y012287D02*
X008519Y012287D01*
X008478Y012386D02*
X008197Y012386D01*
X008295Y012484D02*
X008476Y012484D01*
X008501Y012583D02*
X008394Y012583D01*
X008492Y012681D02*
X008562Y012681D01*
X008591Y012780D02*
X008689Y012780D01*
X008811Y012456D02*
X009653Y011615D01*
X009653Y011609D01*
X010103Y011609D01*
X010489Y011302D02*
X010745Y011302D01*
X010843Y011204D02*
X010390Y011204D01*
X010398Y011007D02*
X010807Y011007D01*
X010709Y010908D02*
X010497Y010908D01*
X010593Y010810D02*
X010613Y010810D01*
X010613Y010711D02*
X010593Y010711D01*
X010593Y010613D02*
X010613Y010613D01*
X010613Y010514D02*
X010593Y010514D01*
X010593Y010416D02*
X010613Y010416D01*
X010702Y010317D02*
X010504Y010317D01*
X010405Y010219D02*
X010800Y010219D01*
X010899Y010120D02*
X010307Y010120D01*
X010355Y010022D02*
X010822Y010022D01*
X010724Y009923D02*
X010453Y009923D01*
X010552Y009825D02*
X010625Y009825D01*
X010613Y009726D02*
X010573Y009726D01*
X011393Y009206D02*
X011593Y009406D01*
X011593Y009679D01*
X012108Y010195D01*
X013463Y010195D01*
X013457Y010180D01*
X013457Y010046D01*
X013508Y009923D01*
X011837Y009923D01*
X011738Y009825D02*
X013572Y009825D01*
X013572Y009859D02*
X013572Y008885D01*
X012834Y008148D01*
X011929Y008148D01*
X011870Y008089D01*
X011741Y007960D01*
X011741Y007448D01*
X011476Y007183D01*
X011370Y007183D01*
X011593Y007406D01*
X011593Y007812D01*
X011393Y008012D01*
X011393Y008206D01*
X011593Y008406D01*
X011593Y008812D01*
X011393Y009012D01*
X011393Y009206D01*
X011420Y009234D02*
X013572Y009234D01*
X013572Y009332D02*
X011519Y009332D01*
X011593Y009431D02*
X013572Y009431D01*
X013572Y009529D02*
X011593Y009529D01*
X011593Y009628D02*
X013572Y009628D01*
X013572Y009726D02*
X011640Y009726D01*
X011935Y010022D02*
X013467Y010022D01*
X013457Y010120D02*
X012034Y010120D01*
X011608Y010514D02*
X011593Y010514D01*
X011593Y010613D02*
X011706Y010613D01*
X011805Y010711D02*
X011593Y010711D01*
X011593Y010810D02*
X018437Y010810D01*
X018437Y010711D02*
X014121Y010711D01*
X014220Y010613D02*
X018437Y010613D01*
X018437Y010514D02*
X014318Y010514D01*
X014417Y010416D02*
X018437Y010416D01*
X018437Y010317D02*
X014515Y010317D01*
X014614Y010219D02*
X018437Y010219D01*
X018437Y010120D02*
X014712Y010120D01*
X014811Y010022D02*
X018437Y010022D01*
X018437Y009923D02*
X014909Y009923D01*
X015008Y009825D02*
X018437Y009825D01*
X018437Y009726D02*
X015106Y009726D01*
X015205Y009628D02*
X018437Y009628D01*
X018437Y009529D02*
X015303Y009529D01*
X015402Y009431D02*
X018437Y009431D01*
X018437Y009332D02*
X015500Y009332D01*
X015584Y009234D02*
X018437Y009234D01*
X018437Y009135D02*
X015617Y009135D01*
X015617Y009037D02*
X018437Y009037D01*
X018437Y008938D02*
X015617Y008938D01*
X015617Y008840D02*
X018437Y008840D01*
X018437Y008741D02*
X015617Y008741D01*
X015617Y008643D02*
X018437Y008643D01*
X018437Y008544D02*
X015617Y008544D01*
X015617Y008446D02*
X018437Y008446D01*
X018437Y008347D02*
X015617Y008347D01*
X015617Y008249D02*
X018437Y008249D01*
X018437Y008150D02*
X015617Y008150D01*
X015617Y008052D02*
X018437Y008052D01*
X018437Y007953D02*
X015617Y007953D01*
X015617Y007855D02*
X018437Y007855D01*
X018368Y007756D02*
X015617Y007756D01*
X015617Y007658D02*
X018269Y007658D01*
X018171Y007559D02*
X015617Y007559D01*
X015617Y007461D02*
X018072Y007461D01*
X017974Y007362D02*
X015617Y007362D01*
X015617Y007264D02*
X017875Y007264D01*
X017777Y007165D02*
X015617Y007165D01*
X015617Y007067D02*
X017678Y007067D01*
X017580Y006968D02*
X015617Y006968D01*
X015617Y006870D02*
X017481Y006870D01*
X017383Y006771D02*
X015617Y006771D01*
X015617Y006673D02*
X017284Y006673D01*
X017186Y006574D02*
X015617Y006574D01*
X015617Y006476D02*
X017087Y006476D01*
X016989Y006377D02*
X015617Y006377D01*
X015617Y006279D02*
X016890Y006279D01*
X016792Y006180D02*
X015617Y006180D01*
X015617Y006082D02*
X016693Y006082D01*
X016595Y005983D02*
X015617Y005983D01*
X015617Y005885D02*
X016496Y005885D01*
X016398Y005786D02*
X015617Y005786D01*
X015617Y005688D02*
X016299Y005688D01*
X016201Y005589D02*
X015617Y005589D01*
X015617Y005491D02*
X016102Y005491D01*
X016004Y005392D02*
X015617Y005392D01*
X015617Y005294D02*
X015905Y005294D01*
X015807Y005195D02*
X015617Y005195D01*
X015672Y005097D02*
X015708Y005097D01*
X016233Y004801D02*
X020821Y004801D01*
X020821Y004703D02*
X016134Y004703D01*
X016036Y004604D02*
X020821Y004604D01*
X020821Y004506D02*
X015937Y004506D01*
X015839Y004407D02*
X020821Y004407D01*
X020821Y004309D02*
X015740Y004309D01*
X015584Y004210D02*
X020821Y004210D01*
X020821Y004112D02*
X012840Y004112D01*
X012840Y004210D02*
X014893Y004210D01*
X014737Y004309D02*
X012840Y004309D01*
X012840Y004407D02*
X014639Y004407D01*
X014540Y004506D02*
X012840Y004506D01*
X012840Y004604D02*
X014303Y004604D01*
X014208Y004703D02*
X012840Y004703D01*
X012840Y004801D02*
X014167Y004801D01*
X014152Y004900D02*
X012840Y004900D01*
X012840Y004998D02*
X014154Y004998D01*
X014194Y005097D02*
X012808Y005097D01*
X012122Y005983D02*
X015037Y005983D01*
X015037Y006082D02*
X012220Y006082D01*
X012319Y006180D02*
X015037Y006180D01*
X015037Y006279D02*
X012417Y006279D01*
X012516Y006377D02*
X015037Y006377D01*
X015037Y006476D02*
X012586Y006476D01*
X012605Y006574D02*
X015037Y006574D01*
X015037Y006673D02*
X012605Y006673D01*
X012605Y006771D02*
X015037Y006771D01*
X015037Y006870D02*
X012693Y006870D01*
X012792Y006968D02*
X015037Y006968D01*
X015037Y007067D02*
X012890Y007067D01*
X012989Y007165D02*
X015037Y007165D01*
X015037Y007264D02*
X013087Y007264D01*
X013369Y007362D02*
X015037Y007362D01*
X015037Y007461D02*
X013464Y007461D01*
X013505Y007559D02*
X015037Y007559D01*
X015037Y007658D02*
X013518Y007658D01*
X013511Y007756D02*
X015037Y007756D01*
X015037Y007855D02*
X013470Y007855D01*
X013382Y007953D02*
X015037Y007953D01*
X015037Y008052D02*
X013360Y008052D01*
X013459Y008150D02*
X015037Y008150D01*
X015037Y008249D02*
X013557Y008249D01*
X013656Y008347D02*
X015037Y008347D01*
X015037Y008446D02*
X013754Y008446D01*
X013853Y008544D02*
X015037Y008544D01*
X015037Y008643D02*
X013951Y008643D01*
X014012Y008741D02*
X015037Y008741D01*
X015037Y008840D02*
X014012Y008840D01*
X014012Y008938D02*
X015037Y008938D01*
X014975Y009037D02*
X014012Y009037D01*
X014012Y009135D02*
X014877Y009135D01*
X014778Y009234D02*
X014012Y009234D01*
X014012Y009332D02*
X014680Y009332D01*
X014581Y009431D02*
X014012Y009431D01*
X014012Y009529D02*
X014483Y009529D01*
X014384Y009628D02*
X014012Y009628D01*
X014012Y009726D02*
X014286Y009726D01*
X014187Y009825D02*
X014012Y009825D01*
X014076Y009923D02*
X014089Y009923D01*
X013792Y010113D02*
X013792Y008794D01*
X012926Y007928D01*
X012837Y008150D02*
X011393Y008150D01*
X011393Y008052D02*
X011833Y008052D01*
X011741Y007953D02*
X011452Y007953D01*
X011550Y007855D02*
X011741Y007855D01*
X011741Y007756D02*
X011593Y007756D01*
X011593Y007658D02*
X011741Y007658D01*
X011741Y007559D02*
X011593Y007559D01*
X011593Y007461D02*
X011741Y007461D01*
X011655Y007362D02*
X011549Y007362D01*
X011556Y007264D02*
X011450Y007264D01*
X012006Y006574D02*
X002468Y006574D01*
X002566Y006476D02*
X007655Y006476D01*
X008098Y006476D02*
X011907Y006476D01*
X011435Y008249D02*
X012935Y008249D01*
X013034Y008347D02*
X011534Y008347D01*
X011593Y008446D02*
X013132Y008446D01*
X013231Y008544D02*
X011593Y008544D01*
X011593Y008643D02*
X013329Y008643D01*
X013428Y008741D02*
X011593Y008741D01*
X011565Y008840D02*
X013526Y008840D01*
X013572Y008938D02*
X011467Y008938D01*
X011393Y009037D02*
X013572Y009037D01*
X013572Y009135D02*
X011393Y009135D01*
X010613Y008544D02*
X010573Y008544D01*
X010573Y008446D02*
X010613Y008446D01*
X010672Y008347D02*
X010506Y008347D01*
X010407Y008249D02*
X010770Y008249D01*
X010153Y008741D02*
X010053Y008741D01*
X010053Y008840D02*
X010153Y008840D01*
X010153Y008938D02*
X010053Y008938D01*
X010053Y009037D02*
X010153Y009037D01*
X009767Y008938D02*
X009583Y008938D01*
X009623Y008840D02*
X009669Y008840D01*
X009123Y009135D02*
X009088Y009135D01*
X011398Y011007D02*
X011857Y011007D01*
X011823Y011105D02*
X009034Y011105D01*
X010534Y011893D02*
X010722Y011893D01*
X010633Y011804D02*
X010633Y011659D01*
X011053Y011659D01*
X011053Y012079D01*
X010908Y012079D01*
X010633Y011804D01*
X010633Y011795D02*
X010593Y011795D01*
X010593Y011696D02*
X010633Y011696D01*
X010593Y011598D02*
X011053Y011598D01*
X011053Y011559D02*
X011053Y011659D01*
X011153Y011659D01*
X011573Y011659D01*
X011573Y011804D01*
X011297Y012079D01*
X011153Y012079D01*
X011153Y011659D01*
X011153Y011559D01*
X011573Y011559D01*
X011573Y011414D01*
X011297Y011139D01*
X011153Y011139D01*
X011153Y011559D01*
X011053Y011559D01*
X011053Y011139D01*
X010908Y011139D01*
X010633Y011414D01*
X010633Y011559D01*
X011053Y011559D01*
X011053Y011499D02*
X011153Y011499D01*
X011153Y011401D02*
X011053Y011401D01*
X011053Y011302D02*
X011153Y011302D01*
X011153Y011204D02*
X011053Y011204D01*
X011362Y011204D02*
X011823Y011204D01*
X011856Y011302D02*
X011461Y011302D01*
X011559Y011401D02*
X011879Y011401D01*
X011879Y011499D02*
X011573Y011499D01*
X011573Y011696D02*
X011879Y011696D01*
X011879Y011598D02*
X011153Y011598D01*
X011153Y011696D02*
X011053Y011696D01*
X011053Y011795D02*
X011153Y011795D01*
X011153Y011893D02*
X011053Y011893D01*
X011053Y011992D02*
X011153Y011992D01*
X011385Y011992D02*
X011879Y011992D01*
X011879Y012090D02*
X010731Y012090D01*
X010821Y011992D02*
X010633Y011992D01*
X010830Y012189D02*
X010830Y012189D01*
X011375Y012189D02*
X011879Y012189D01*
X011879Y012287D02*
X011474Y012287D01*
X011572Y012386D02*
X011879Y012386D01*
X011879Y012484D02*
X011593Y012484D01*
X011593Y012583D02*
X011879Y012583D01*
X011879Y012681D02*
X011593Y012681D01*
X011593Y012780D02*
X011879Y012780D01*
X011872Y012878D02*
X011527Y012878D01*
X011428Y012977D02*
X011803Y012977D01*
X011774Y013075D02*
X011330Y013075D01*
X011360Y013174D02*
X011774Y013174D01*
X011811Y013272D02*
X011459Y013272D01*
X011557Y013371D02*
X011891Y013371D01*
X011593Y013469D02*
X018360Y013469D01*
X018360Y013371D02*
X012327Y013371D01*
X012406Y013272D02*
X018360Y013272D01*
X018360Y013174D02*
X012444Y013174D01*
X012444Y013075D02*
X018360Y013075D01*
X018360Y012977D02*
X012414Y012977D01*
X012346Y012878D02*
X018360Y012878D01*
X018360Y012780D02*
X012339Y012780D01*
X012339Y012681D02*
X018360Y012681D01*
X018360Y012583D02*
X012339Y012583D01*
X012339Y012484D02*
X018360Y012484D01*
X018360Y012386D02*
X012339Y012386D01*
X012339Y012287D02*
X018360Y012287D01*
X018360Y012189D02*
X012339Y012189D01*
X012339Y012090D02*
X018360Y012090D01*
X018360Y011992D02*
X012339Y011992D01*
X012339Y011893D02*
X018360Y011893D01*
X018360Y011795D02*
X012339Y011795D01*
X012339Y011696D02*
X018360Y011696D01*
X018384Y011598D02*
X012339Y011598D01*
X012339Y011499D02*
X018437Y011499D01*
X019017Y011499D02*
X020821Y011499D01*
X020821Y011401D02*
X019017Y011401D01*
X019017Y011302D02*
X020821Y011302D01*
X020821Y011204D02*
X019017Y011204D01*
X019017Y011105D02*
X020821Y011105D01*
X020821Y011007D02*
X019017Y011007D01*
X019017Y010908D02*
X020821Y010908D01*
X020821Y010810D02*
X019017Y010810D01*
X019017Y010711D02*
X020821Y010711D01*
X020821Y010613D02*
X019017Y010613D01*
X019017Y010514D02*
X020821Y010514D01*
X020821Y010416D02*
X019017Y010416D01*
X019017Y010317D02*
X020821Y010317D01*
X020821Y010219D02*
X019017Y010219D01*
X019017Y010120D02*
X020821Y010120D01*
X020821Y010022D02*
X019017Y010022D01*
X019017Y009923D02*
X020821Y009923D01*
X020821Y009825D02*
X019017Y009825D01*
X019017Y009726D02*
X020821Y009726D01*
X020821Y009628D02*
X019017Y009628D01*
X019017Y009529D02*
X020821Y009529D01*
X020821Y009431D02*
X019017Y009431D01*
X019017Y009332D02*
X020821Y009332D01*
X020821Y009234D02*
X019017Y009234D01*
X019017Y009135D02*
X020821Y009135D01*
X020821Y009037D02*
X019017Y009037D01*
X019017Y008938D02*
X020821Y008938D01*
X020821Y008840D02*
X019017Y008840D01*
X019017Y008741D02*
X020821Y008741D01*
X020821Y008643D02*
X019017Y008643D01*
X019017Y008544D02*
X020821Y008544D01*
X020821Y008446D02*
X019017Y008446D01*
X019017Y008347D02*
X020821Y008347D01*
X020821Y008249D02*
X019017Y008249D01*
X019017Y008150D02*
X020821Y008150D01*
X020821Y008052D02*
X019017Y008052D01*
X019017Y007953D02*
X020821Y007953D01*
X020821Y007855D02*
X019017Y007855D01*
X019017Y007756D02*
X020821Y007756D01*
X020821Y007658D02*
X019017Y007658D01*
X018980Y007559D02*
X020821Y007559D01*
X020821Y007461D02*
X018892Y007461D01*
X018794Y007362D02*
X020821Y007362D01*
X020821Y007264D02*
X018695Y007264D01*
X018597Y007165D02*
X020821Y007165D01*
X020821Y007067D02*
X018498Y007067D01*
X018400Y006968D02*
X020821Y006968D01*
X020821Y006870D02*
X018301Y006870D01*
X018203Y006771D02*
X020821Y006771D01*
X020821Y006673D02*
X018104Y006673D01*
X018006Y006574D02*
X020821Y006574D01*
X020821Y006476D02*
X017907Y006476D01*
X017809Y006377D02*
X020821Y006377D01*
X020821Y006279D02*
X017710Y006279D01*
X017612Y006180D02*
X020821Y006180D01*
X020821Y006082D02*
X017513Y006082D01*
X017415Y005983D02*
X020821Y005983D01*
X020821Y005885D02*
X017316Y005885D01*
X017218Y005786D02*
X020821Y005786D01*
X020821Y005688D02*
X017119Y005688D01*
X017021Y005589D02*
X020821Y005589D01*
X020821Y005491D02*
X016922Y005491D01*
X016824Y005392D02*
X020821Y005392D01*
X020821Y005294D02*
X016725Y005294D01*
X016627Y005195D02*
X020821Y005195D01*
X020821Y005097D02*
X016528Y005097D01*
X016430Y004998D02*
X020821Y004998D01*
X020821Y004900D02*
X016331Y004900D01*
X015853Y003040D02*
X015707Y003040D01*
X015571Y002984D01*
X015519Y002933D01*
X014291Y002933D01*
X014195Y002893D01*
X014008Y002706D01*
X013935Y002706D01*
X013800Y002650D01*
X013696Y002546D01*
X013640Y002411D01*
X013640Y002264D01*
X013696Y002129D01*
X013800Y002025D01*
X013935Y001969D01*
X014082Y001969D01*
X014217Y002025D01*
X014321Y002129D01*
X014377Y002264D01*
X014377Y002337D01*
X014451Y002411D01*
X015519Y002411D01*
X015571Y002360D01*
X015707Y002304D01*
X015853Y002304D01*
X015989Y002360D01*
X016092Y002463D01*
X016148Y002599D01*
X016148Y002745D01*
X016092Y002881D01*
X015989Y002984D01*
X015853Y003040D01*
X015883Y003028D02*
X020821Y003028D01*
X020821Y002930D02*
X016043Y002930D01*
X016113Y002831D02*
X020821Y002831D01*
X020821Y002733D02*
X016148Y002733D01*
X016148Y002634D02*
X020821Y002634D01*
X020821Y002536D02*
X016122Y002536D01*
X016066Y002437D02*
X020821Y002437D01*
X020821Y002339D02*
X015938Y002339D01*
X015622Y002339D02*
X014378Y002339D01*
X014367Y002240D02*
X020821Y002240D01*
X020821Y002142D02*
X014326Y002142D01*
X014235Y002043D02*
X020821Y002043D01*
X020821Y001945D02*
X012840Y001945D01*
X012840Y002043D02*
X013781Y002043D01*
X013691Y002142D02*
X012840Y002142D01*
X012840Y002240D02*
X013650Y002240D01*
X013640Y002339D02*
X012840Y002339D01*
X012840Y002437D02*
X013651Y002437D01*
X013692Y002536D02*
X012840Y002536D01*
X012840Y002634D02*
X013784Y002634D01*
X014035Y002733D02*
X012840Y002733D01*
X012840Y002831D02*
X014134Y002831D01*
X014284Y002930D02*
X012840Y002930D01*
X012840Y003028D02*
X015677Y003028D01*
X017903Y001491D02*
X017850Y001363D01*
X017850Y001225D01*
X017903Y001097D01*
X018001Y001000D01*
X018128Y000947D01*
X018266Y000947D01*
X018394Y001000D01*
X018492Y001097D01*
X018544Y001225D01*
X018544Y001363D01*
X018492Y001491D01*
X018394Y001588D01*
X018266Y001641D01*
X018128Y001641D01*
X018001Y001588D01*
X017903Y001491D01*
X017887Y001452D02*
X012840Y001452D01*
X012840Y001354D02*
X017850Y001354D01*
X017850Y001255D02*
X012840Y001255D01*
X012840Y001157D02*
X017878Y001157D01*
X017942Y001058D02*
X012840Y001058D01*
X012840Y000960D02*
X018097Y000960D01*
X018297Y000960D02*
X019279Y000960D01*
X019309Y000947D02*
X019447Y000947D01*
X019575Y001000D01*
X019673Y001097D01*
X019726Y001225D01*
X019726Y001363D01*
X019673Y001491D01*
X019575Y001588D01*
X019447Y001641D01*
X019309Y001641D01*
X019182Y001588D01*
X019084Y001491D01*
X019031Y001363D01*
X019031Y001225D01*
X019084Y001097D01*
X019182Y001000D01*
X019309Y000947D01*
X019478Y000960D02*
X020821Y000960D01*
X020821Y001058D02*
X019633Y001058D01*
X019697Y001157D02*
X020821Y001157D01*
X020821Y001255D02*
X019726Y001255D01*
X019726Y001354D02*
X020821Y001354D01*
X020821Y001452D02*
X019689Y001452D01*
X019613Y001551D02*
X020821Y001551D01*
X020821Y001649D02*
X012840Y001649D01*
X012840Y001551D02*
X017963Y001551D01*
X018432Y001551D02*
X019144Y001551D01*
X019068Y001452D02*
X018508Y001452D01*
X018544Y001354D02*
X019031Y001354D01*
X019031Y001255D02*
X018544Y001255D01*
X018516Y001157D02*
X019059Y001157D01*
X019123Y001058D02*
X018452Y001058D01*
X020821Y000861D02*
X012840Y000861D01*
X012840Y001748D02*
X020821Y001748D01*
X020821Y001846D02*
X012840Y001846D01*
X012840Y003127D02*
X020821Y003127D01*
X020821Y003225D02*
X012840Y003225D01*
X012840Y003324D02*
X020821Y003324D01*
X020821Y003422D02*
X012840Y003422D01*
X012840Y003521D02*
X020821Y003521D01*
X020821Y003619D02*
X012840Y003619D01*
X012840Y003718D02*
X020821Y003718D01*
X020821Y003816D02*
X012840Y003816D01*
X012840Y003915D02*
X020821Y003915D01*
X020821Y004013D02*
X012840Y004013D01*
X013572Y009859D02*
X013508Y009923D01*
X011932Y010908D02*
X011497Y010908D01*
X010646Y011401D02*
X010587Y011401D01*
X010593Y011499D02*
X010633Y011499D01*
X011483Y011893D02*
X011879Y011893D01*
X011879Y011795D02*
X011573Y011795D01*
X010876Y013075D02*
X010833Y013075D01*
X010833Y013174D02*
X010845Y013174D01*
X011593Y013568D02*
X018360Y013568D01*
X018453Y013666D02*
X011593Y013666D01*
X011593Y013765D02*
X020821Y013765D01*
X020821Y013666D02*
X019001Y013666D01*
X019094Y013568D02*
X019182Y013568D01*
X019178Y013561D02*
X019167Y013523D01*
X019167Y012646D01*
X019466Y012646D01*
X019466Y013653D01*
X019298Y013653D01*
X019259Y013643D01*
X019225Y013623D01*
X019197Y013595D01*
X019178Y013561D01*
X019167Y013469D02*
X019094Y013469D01*
X019094Y013371D02*
X019167Y013371D01*
X019167Y013272D02*
X019094Y013272D01*
X019094Y013174D02*
X019167Y013174D01*
X019167Y013075D02*
X019094Y013075D01*
X019094Y012977D02*
X019167Y012977D01*
X019167Y012878D02*
X019094Y012878D01*
X019094Y012780D02*
X019167Y012780D01*
X019167Y012681D02*
X019094Y012681D01*
X019094Y012583D02*
X019466Y012583D01*
X019466Y012549D02*
X019167Y012549D01*
X019167Y011672D01*
X019178Y011634D01*
X019197Y011600D01*
X019225Y011572D01*
X019259Y011552D01*
X019298Y011542D01*
X019466Y011542D01*
X019466Y012549D01*
X019563Y012549D01*
X019563Y012646D01*
X019466Y012646D01*
X019466Y012549D01*
X019466Y012484D02*
X019563Y012484D01*
X019563Y012549D02*
X019563Y011542D01*
X019731Y011542D01*
X019769Y011552D01*
X019803Y011572D01*
X019831Y011600D01*
X019851Y011634D01*
X019861Y011672D01*
X019861Y012549D01*
X019563Y012549D01*
X019563Y012583D02*
X020821Y012583D01*
X020821Y012681D02*
X019861Y012681D01*
X019861Y012646D02*
X019861Y013523D01*
X019851Y013561D01*
X019831Y013595D01*
X019803Y013623D01*
X019769Y013643D01*
X019731Y013653D01*
X019563Y013653D01*
X019563Y012646D01*
X019861Y012646D01*
X019861Y012780D02*
X020821Y012780D01*
X020821Y012878D02*
X019861Y012878D01*
X019861Y012977D02*
X020821Y012977D01*
X020821Y013075D02*
X019861Y013075D01*
X019861Y013174D02*
X020821Y013174D01*
X020821Y013272D02*
X019861Y013272D01*
X019861Y013371D02*
X020821Y013371D01*
X020821Y013469D02*
X019861Y013469D01*
X019847Y013568D02*
X020821Y013568D01*
X020016Y013863D02*
X018225Y013863D01*
X018267Y013905D02*
X018267Y015384D01*
X018167Y015484D01*
X017397Y015484D01*
X017297Y015384D01*
X017297Y013905D01*
X017397Y013805D01*
X018167Y013805D01*
X018267Y013905D01*
X018267Y013962D02*
X019974Y013962D01*
X019974Y014060D02*
X018267Y014060D01*
X018267Y014159D02*
X019974Y014159D01*
X019974Y014257D02*
X018267Y014257D01*
X018267Y014356D02*
X019974Y014356D01*
X019974Y014454D02*
X018267Y014454D01*
X018267Y014553D02*
X019974Y014553D01*
X019974Y014651D02*
X018267Y014651D01*
X018267Y014750D02*
X019974Y014750D01*
X019974Y014848D02*
X018267Y014848D01*
X018267Y014947D02*
X019974Y014947D01*
X019974Y015045D02*
X018267Y015045D01*
X018267Y015144D02*
X019974Y015144D01*
X019974Y015242D02*
X018267Y015242D01*
X018267Y015341D02*
X019974Y015341D01*
X020029Y015439D02*
X018212Y015439D01*
X017352Y015439D02*
X011012Y015439D01*
X011052Y015538D02*
X020821Y015538D01*
X020821Y015636D02*
X011061Y015636D01*
X011043Y015735D02*
X020821Y015735D01*
X020821Y015833D02*
X010991Y015833D01*
X010726Y015625D02*
X000987Y015625D01*
X000347Y014985D01*
X000347Y013446D01*
X000947Y012845D01*
X000545Y012484D02*
X000320Y012484D01*
X000320Y012386D02*
X000643Y012386D01*
X000446Y012583D02*
X000320Y012583D01*
X000320Y012681D02*
X000407Y012681D01*
X000407Y012780D02*
X000320Y012780D01*
X000320Y012878D02*
X000407Y012878D01*
X000407Y012977D02*
X000320Y012977D01*
X000320Y013075D02*
X000406Y013075D01*
X000320Y012287D02*
X004325Y012287D01*
X004284Y012386D02*
X002223Y012386D01*
X002322Y012484D02*
X004275Y012484D01*
X004292Y012583D02*
X002420Y012583D01*
X002467Y012681D02*
X004342Y012681D01*
X004390Y012780D02*
X002467Y012780D01*
X002467Y012977D02*
X004390Y012977D01*
X004390Y013075D02*
X002453Y013075D01*
X002354Y013174D02*
X003904Y013174D01*
X003836Y013272D02*
X002256Y013272D01*
X002136Y013371D02*
X003806Y013371D01*
X003806Y013469D02*
X002235Y013469D01*
X002333Y013568D02*
X003844Y013568D01*
X003923Y013666D02*
X002479Y013666D01*
X002578Y013765D02*
X004184Y013765D01*
X004283Y013863D02*
X002676Y013863D01*
X002775Y013962D02*
X004381Y013962D01*
X004480Y014060D02*
X002873Y014060D01*
X002972Y014159D02*
X004578Y014159D01*
X004481Y014061D02*
X004481Y014061D01*
X004701Y013970D02*
X004925Y014194D01*
X005245Y014454D01*
X007805Y014454D01*
X008065Y014194D01*
X008289Y013970D01*
X009140Y013119D01*
X009653Y013026D02*
X009653Y012609D01*
X010103Y012609D01*
X009653Y013026D02*
X007923Y014756D01*
X007555Y015124D01*
X004000Y015124D01*
X003626Y015124D01*
X003258Y014756D01*
X002347Y013845D01*
X001847Y013845D01*
X001997Y012878D02*
X004390Y012878D01*
X004830Y012878D02*
X008039Y012878D01*
X008137Y012977D02*
X004830Y012977D01*
X004830Y013075D02*
X008236Y013075D01*
X008295Y013174D02*
X004847Y013174D01*
X004915Y013272D02*
X008197Y013272D01*
X008283Y013186D02*
X008283Y013186D01*
X008098Y013371D02*
X004945Y013371D01*
X004945Y013469D02*
X008000Y013469D01*
X007901Y013568D02*
X004907Y013568D01*
X004828Y013666D02*
X007803Y013666D01*
X007704Y013765D02*
X004807Y013765D01*
X004905Y013863D02*
X006538Y013863D01*
X006448Y013962D02*
X005004Y013962D01*
X005109Y014060D02*
X006407Y014060D01*
X006403Y014159D02*
X005230Y014159D01*
X004896Y014454D02*
X003267Y014454D01*
X003169Y014356D02*
X004775Y014356D01*
X004677Y014257D02*
X003070Y014257D01*
X003366Y014553D02*
X005017Y014553D01*
X005131Y014651D02*
X003464Y014651D01*
X003563Y014750D02*
X007618Y014750D01*
X007520Y014848D02*
X003661Y014848D01*
X004701Y013970D02*
X004141Y013410D01*
X004610Y013410D02*
X004610Y012475D01*
X004945Y012484D02*
X007645Y012484D01*
X007743Y012583D02*
X004928Y012583D01*
X004878Y012681D02*
X007842Y012681D01*
X007940Y012780D02*
X004830Y012780D01*
X004936Y012386D02*
X007546Y012386D01*
X007448Y012287D02*
X004895Y012287D01*
X004794Y012189D02*
X007349Y012189D01*
X007320Y012090D02*
X000320Y012090D01*
X000320Y011992D02*
X007320Y011992D01*
X007320Y011893D02*
X000320Y011893D01*
X000320Y011795D02*
X007320Y011795D01*
X007320Y011696D02*
X000320Y011696D01*
X000320Y011598D02*
X007320Y011598D01*
X007320Y011499D02*
X000320Y011499D01*
X000320Y011401D02*
X007320Y011401D01*
X004426Y012189D02*
X000320Y012189D01*
X001251Y012386D02*
X001671Y012386D01*
X001573Y012484D02*
X001350Y012484D01*
X001448Y012583D02*
X001474Y012583D01*
X001897Y012583D02*
X001997Y012583D01*
X001997Y012681D02*
X001897Y012681D01*
X001897Y012780D02*
X001997Y012780D01*
X001997Y012484D02*
X001897Y012484D01*
X001897Y012386D02*
X001997Y012386D01*
X002119Y010633D02*
X002119Y006963D01*
X002339Y010416D02*
X003473Y010416D01*
X003473Y010514D02*
X002339Y010514D01*
X006939Y013863D02*
X007606Y013863D01*
X008885Y015377D02*
X001479Y015377D01*
X000947Y014845D01*
X008885Y015377D02*
X009653Y014609D01*
X010103Y014609D01*
X010458Y014947D02*
X010747Y014947D01*
X010649Y014848D02*
X010557Y014848D01*
X010593Y014750D02*
X010613Y014750D01*
X010613Y014651D02*
X010593Y014651D01*
X010593Y014553D02*
X010613Y014553D01*
X010613Y014454D02*
X010593Y014454D01*
X010360Y015045D02*
X010846Y015045D01*
X010915Y015341D02*
X017297Y015341D01*
X017297Y015242D02*
X009331Y015242D01*
X009429Y015144D02*
X017297Y015144D01*
X017297Y015045D02*
X011360Y015045D01*
X011458Y014947D02*
X017297Y014947D01*
X017297Y014848D02*
X011557Y014848D01*
X011593Y014750D02*
X017297Y014750D01*
X017297Y014651D02*
X011593Y014651D01*
X011593Y014553D02*
X017297Y014553D01*
X017297Y014454D02*
X011593Y014454D01*
X011542Y014356D02*
X017297Y014356D01*
X017297Y014257D02*
X011444Y014257D01*
X011345Y014159D02*
X017297Y014159D01*
X017297Y014060D02*
X011345Y014060D01*
X011443Y013962D02*
X017297Y013962D01*
X017339Y013863D02*
X011542Y013863D01*
X009846Y015045D02*
X009528Y015045D01*
X009626Y014947D02*
X009747Y014947D01*
X009232Y015341D02*
X010536Y015341D01*
X019094Y012484D02*
X019167Y012484D01*
X019167Y012386D02*
X019094Y012386D01*
X019094Y012287D02*
X019167Y012287D01*
X019167Y012189D02*
X019094Y012189D01*
X019094Y012090D02*
X019167Y012090D01*
X019167Y011992D02*
X019094Y011992D01*
X019094Y011893D02*
X019167Y011893D01*
X019167Y011795D02*
X019094Y011795D01*
X019094Y011696D02*
X019167Y011696D01*
X019199Y011598D02*
X019070Y011598D01*
X019466Y011598D02*
X019563Y011598D01*
X019563Y011696D02*
X019466Y011696D01*
X019466Y011795D02*
X019563Y011795D01*
X019563Y011893D02*
X019466Y011893D01*
X019466Y011992D02*
X019563Y011992D01*
X019563Y012090D02*
X019466Y012090D01*
X019466Y012189D02*
X019563Y012189D01*
X019563Y012287D02*
X019466Y012287D01*
X019466Y012386D02*
X019563Y012386D01*
X019861Y012386D02*
X020821Y012386D01*
X020821Y012484D02*
X019861Y012484D01*
X019861Y012287D02*
X020821Y012287D01*
X020821Y012189D02*
X019861Y012189D01*
X019861Y012090D02*
X020821Y012090D01*
X020821Y011992D02*
X019861Y011992D01*
X019861Y011893D02*
X020821Y011893D01*
X020821Y011795D02*
X019861Y011795D01*
X019861Y011696D02*
X020821Y011696D01*
X020821Y011598D02*
X019829Y011598D01*
X019563Y012681D02*
X019466Y012681D01*
X019466Y012780D02*
X019563Y012780D01*
X019563Y012878D02*
X019466Y012878D01*
X019466Y012977D02*
X019563Y012977D01*
X019563Y013075D02*
X019466Y013075D01*
X019466Y013174D02*
X019563Y013174D01*
X019563Y013272D02*
X019466Y013272D01*
X019466Y013371D02*
X019563Y013371D01*
X019563Y013469D02*
X019466Y013469D01*
X019466Y013568D02*
X019563Y013568D01*
D20*
X013150Y007664D03*
X007876Y006176D03*
X014008Y002337D03*
X015780Y002672D03*
D21*
X014343Y002672D01*
X014008Y002337D01*
D22*
X013422Y009042D03*
X006666Y011491D03*
X005819Y011491D03*
X005819Y012337D03*
X006666Y012337D03*
X003654Y012770D03*
M02*
