G75*
G70*
%OFA0B0*%
%FSLAX24Y24*%
%IPPOS*%
%LPD*%
%AMOC8*
5,1,8,0,0,1.08239X$1,22.5*
%
%ADD10R,0.0472X0.0315*%
%ADD11R,0.0433X0.0394*%
%ADD12R,0.0217X0.0472*%
%ADD13R,0.0394X0.0433*%
%ADD14R,0.0177X0.0472*%
%ADD15R,0.0315X0.0315*%
%ADD16R,0.0630X0.0709*%
%ADD17R,0.0709X0.0394*%
%ADD18R,0.0669X0.0945*%
%ADD19R,0.0120X0.0320*%
%ADD20R,0.0320X0.0120*%
%ADD21R,0.1280X0.1280*%
%ADD22R,0.0630X0.0394*%
%ADD23R,0.0394X0.0630*%
%ADD24R,0.0394X0.0551*%
%ADD25R,0.0315X0.0236*%
%ADD26R,0.0315X0.0197*%
%ADD27R,0.0551X0.0630*%
%ADD28R,0.0112X0.0315*%
%ADD29R,0.0315X0.0112*%
%ADD30R,0.0512X0.0512*%
%ADD31R,0.0157X0.0551*%
%ADD32R,0.0906X0.0748*%
%ADD33R,0.0709X0.0748*%
%ADD34R,0.0413X0.0591*%
%ADD35R,0.0315X0.0118*%
%ADD36R,0.0260X0.0260*%
%ADD37R,0.0276X0.0591*%
%ADD38R,0.0394X0.0236*%
%ADD39R,0.0394X0.0315*%
%ADD40R,0.0394X0.1496*%
D10*
X008796Y005939D03*
X008796Y006647D03*
X011207Y006647D03*
X011207Y005939D03*
X014422Y008648D03*
X014422Y009357D03*
X011993Y014109D03*
X011993Y014818D03*
X005918Y014601D03*
X005918Y013893D03*
D11*
X006735Y013564D03*
X007405Y013564D03*
X003634Y013696D03*
X002965Y013696D03*
X002965Y014522D03*
X003634Y014522D03*
X003634Y015349D03*
X002965Y015349D03*
X001792Y011867D03*
X001122Y011867D03*
X004928Y010113D03*
X005597Y010113D03*
X005918Y008184D03*
X006587Y008184D03*
X007296Y008184D03*
X007965Y008184D03*
X008172Y007337D03*
X008841Y007337D03*
X007896Y005231D03*
X007227Y005231D03*
X012138Y010290D03*
X012807Y010290D03*
D12*
X013048Y009554D03*
X013422Y009554D03*
X013796Y009554D03*
X013796Y008530D03*
X013048Y008530D03*
D13*
X012422Y008707D03*
X012422Y009377D03*
X014456Y007259D03*
X014456Y006590D03*
X005111Y013912D03*
X005111Y014581D03*
X004304Y014581D03*
X004304Y013912D03*
X001331Y007495D03*
X001331Y006826D03*
D14*
X015270Y003241D03*
X015526Y003241D03*
X015782Y003241D03*
X016038Y003241D03*
X016038Y001528D03*
X015782Y001528D03*
X015526Y001528D03*
X015270Y001528D03*
D15*
X004874Y005585D03*
X004284Y005585D03*
X004284Y006274D03*
X004874Y006274D03*
X004874Y006963D03*
X004284Y006963D03*
D16*
X013489Y004034D03*
X014591Y004034D03*
X015520Y004034D03*
X016622Y004034D03*
D17*
X007867Y003538D03*
X007867Y002436D03*
D18*
X007681Y009183D03*
X006225Y009183D03*
D19*
X006143Y010944D03*
X006343Y010944D03*
X006543Y010944D03*
X006733Y010944D03*
X006933Y010944D03*
X005943Y010944D03*
X005753Y010944D03*
X005553Y010944D03*
X005553Y012884D03*
X005753Y012884D03*
X005943Y012884D03*
X006143Y012884D03*
X006343Y012884D03*
X006543Y012884D03*
X006733Y012884D03*
X006933Y012884D03*
D20*
X007213Y012604D03*
X007213Y012404D03*
X007213Y012214D03*
X007213Y012014D03*
X007213Y011814D03*
X007213Y011614D03*
X007213Y011424D03*
X007213Y011224D03*
X005273Y011224D03*
X005273Y011424D03*
X005273Y011614D03*
X005273Y011814D03*
X005273Y012014D03*
X005273Y012214D03*
X005273Y012404D03*
X005273Y012604D03*
D21*
X006243Y011914D03*
D22*
X015514Y011983D03*
X015514Y012574D03*
X015514Y013164D03*
X015514Y011393D03*
X015514Y010802D03*
X015514Y010211D03*
X015514Y009621D03*
X015514Y009030D03*
X015514Y008440D03*
X015514Y007849D03*
X015514Y007259D03*
X015514Y006668D03*
X015514Y006074D03*
X020514Y006074D03*
X020514Y006668D03*
X020514Y007259D03*
X020514Y007849D03*
X020514Y008440D03*
X020514Y009030D03*
X020514Y009621D03*
X020514Y010211D03*
X020514Y010802D03*
X020514Y011393D03*
X020514Y011983D03*
X020514Y012574D03*
X020514Y013164D03*
D23*
X020061Y005369D03*
X019475Y005369D03*
X018888Y005369D03*
X018302Y005369D03*
X017715Y005369D03*
X017128Y005369D03*
X016542Y005369D03*
X015955Y005369D03*
D24*
X012762Y005860D03*
X012014Y005860D03*
X012388Y006726D03*
X010351Y005860D03*
X009603Y005860D03*
X009977Y006726D03*
D25*
X008910Y010851D03*
X008319Y010851D03*
X008319Y011855D03*
X008910Y011855D03*
X003939Y011776D03*
X003349Y011776D03*
X003349Y010772D03*
X003939Y010772D03*
X003693Y006383D03*
X003103Y006383D03*
X003103Y005379D03*
X003693Y005379D03*
D26*
X003693Y005723D03*
X003693Y006038D03*
X003103Y006038D03*
X003103Y005723D03*
X003349Y011117D03*
X003349Y011432D03*
X003939Y011432D03*
X003939Y011117D03*
X008319Y011196D03*
X008319Y011511D03*
X008910Y011511D03*
X008910Y011196D03*
D27*
X007886Y004326D03*
X006784Y004326D03*
D28*
X003398Y007849D03*
X003201Y007849D03*
X003004Y007849D03*
X002807Y007849D03*
X002611Y007849D03*
X002414Y007849D03*
X002217Y007849D03*
X002020Y007849D03*
X002020Y009818D03*
X002217Y009818D03*
X002414Y009818D03*
X002611Y009818D03*
X002807Y009818D03*
X003004Y009818D03*
X003201Y009818D03*
X003398Y009818D03*
D29*
X003693Y009522D03*
X003693Y009326D03*
X003693Y009129D03*
X003693Y008932D03*
X003693Y008735D03*
X003693Y008538D03*
X003693Y008341D03*
X003693Y008144D03*
X001725Y008144D03*
X001725Y008341D03*
X001725Y008538D03*
X001725Y008735D03*
X001725Y008932D03*
X001725Y009129D03*
X001725Y009326D03*
X001725Y009522D03*
D30*
X002394Y009148D03*
X003024Y009148D03*
X003024Y008519D03*
X002394Y008519D03*
D31*
X005203Y002672D03*
X005459Y002672D03*
X005715Y002672D03*
X005971Y002672D03*
X006227Y002672D03*
D32*
X004239Y001550D03*
X007191Y001550D03*
D33*
X006168Y001550D03*
X005262Y001550D03*
D34*
X012552Y014454D03*
X014146Y014454D03*
D35*
X004195Y013066D03*
X004195Y012869D03*
X004195Y012672D03*
X004195Y012475D03*
X003093Y012475D03*
X003093Y012672D03*
X003093Y012869D03*
X003093Y013066D03*
D36*
X003644Y012770D03*
D37*
X017902Y001983D03*
X019083Y001983D03*
X019674Y001983D03*
D38*
X020225Y000900D03*
X017351Y000900D03*
D39*
X017351Y001727D03*
X020225Y001727D03*
D40*
X014615Y002333D03*
X013512Y002333D03*
M02*
