G75*
G70*
%OFA0B0*%
%FSLAX24Y24*%
%IPPOS*%
%LPD*%
%AMOC8*
5,1,8,0,0,1.08239X$1,22.5*
%
%ADD10C,0.0000*%
D10*
X000150Y000664D02*
X000150Y016019D01*
X020991Y016019D01*
X020991Y004995D01*
X020991Y000664D01*
X012670Y000664D01*
X012670Y004995D01*
X008536Y004995D01*
X008536Y000664D01*
X008534Y000664D02*
X000150Y000664D01*
X001371Y002164D02*
X001373Y002220D01*
X001379Y002275D01*
X001389Y002329D01*
X001402Y002383D01*
X001420Y002436D01*
X001441Y002487D01*
X001465Y002537D01*
X001493Y002585D01*
X001525Y002631D01*
X001559Y002675D01*
X001597Y002716D01*
X001637Y002754D01*
X001680Y002789D01*
X001725Y002821D01*
X001773Y002850D01*
X001822Y002876D01*
X001873Y002898D01*
X001925Y002916D01*
X001979Y002930D01*
X002034Y002941D01*
X002089Y002948D01*
X002144Y002951D01*
X002200Y002950D01*
X002255Y002945D01*
X002310Y002936D01*
X002364Y002924D01*
X002417Y002907D01*
X002469Y002887D01*
X002519Y002863D01*
X002567Y002836D01*
X002614Y002806D01*
X002658Y002772D01*
X002700Y002735D01*
X002738Y002695D01*
X002775Y002653D01*
X002808Y002608D01*
X002837Y002562D01*
X002864Y002513D01*
X002886Y002462D01*
X002906Y002410D01*
X002921Y002356D01*
X002933Y002302D01*
X002941Y002247D01*
X002945Y002192D01*
X002945Y002136D01*
X002941Y002081D01*
X002933Y002026D01*
X002921Y001972D01*
X002906Y001918D01*
X002886Y001866D01*
X002864Y001815D01*
X002837Y001766D01*
X002808Y001720D01*
X002775Y001675D01*
X002738Y001633D01*
X002700Y001593D01*
X002658Y001556D01*
X002614Y001522D01*
X002567Y001492D01*
X002519Y001465D01*
X002469Y001441D01*
X002417Y001421D01*
X002364Y001404D01*
X002310Y001392D01*
X002255Y001383D01*
X002200Y001378D01*
X002144Y001377D01*
X002089Y001380D01*
X002034Y001387D01*
X001979Y001398D01*
X001925Y001412D01*
X001873Y001430D01*
X001822Y001452D01*
X001773Y001478D01*
X001725Y001507D01*
X001680Y001539D01*
X001637Y001574D01*
X001597Y001612D01*
X001559Y001653D01*
X001525Y001697D01*
X001493Y001743D01*
X001465Y001791D01*
X001441Y001841D01*
X001420Y001892D01*
X001402Y001945D01*
X001389Y001999D01*
X001379Y002053D01*
X001373Y002108D01*
X001371Y002164D01*
X018020Y001294D02*
X018022Y001320D01*
X018028Y001346D01*
X018038Y001371D01*
X018051Y001394D01*
X018067Y001414D01*
X018087Y001432D01*
X018109Y001447D01*
X018132Y001459D01*
X018158Y001467D01*
X018184Y001471D01*
X018210Y001471D01*
X018236Y001467D01*
X018262Y001459D01*
X018286Y001447D01*
X018307Y001432D01*
X018327Y001414D01*
X018343Y001394D01*
X018356Y001371D01*
X018366Y001346D01*
X018372Y001320D01*
X018374Y001294D01*
X018372Y001268D01*
X018366Y001242D01*
X018356Y001217D01*
X018343Y001194D01*
X018327Y001174D01*
X018307Y001156D01*
X018285Y001141D01*
X018262Y001129D01*
X018236Y001121D01*
X018210Y001117D01*
X018184Y001117D01*
X018158Y001121D01*
X018132Y001129D01*
X018108Y001141D01*
X018087Y001156D01*
X018067Y001174D01*
X018051Y001194D01*
X018038Y001217D01*
X018028Y001242D01*
X018022Y001268D01*
X018020Y001294D01*
X019201Y001294D02*
X019203Y001320D01*
X019209Y001346D01*
X019219Y001371D01*
X019232Y001394D01*
X019248Y001414D01*
X019268Y001432D01*
X019290Y001447D01*
X019313Y001459D01*
X019339Y001467D01*
X019365Y001471D01*
X019391Y001471D01*
X019417Y001467D01*
X019443Y001459D01*
X019467Y001447D01*
X019488Y001432D01*
X019508Y001414D01*
X019524Y001394D01*
X019537Y001371D01*
X019547Y001346D01*
X019553Y001320D01*
X019555Y001294D01*
X019553Y001268D01*
X019547Y001242D01*
X019537Y001217D01*
X019524Y001194D01*
X019508Y001174D01*
X019488Y001156D01*
X019466Y001141D01*
X019443Y001129D01*
X019417Y001121D01*
X019391Y001117D01*
X019365Y001117D01*
X019339Y001121D01*
X019313Y001129D01*
X019289Y001141D01*
X019268Y001156D01*
X019248Y001174D01*
X019232Y001194D01*
X019219Y001217D01*
X019209Y001242D01*
X019203Y001268D01*
X019201Y001294D01*
M02*
