%
M48
M72
T01C0.0130
T02C0.0197
T03C0.0236
T04C0.0354
T05C0.0400
T06C0.1575
%
T01
X6010Y3446
X2119Y6963
X4107Y9562
X3693Y10113
X2505Y10421
X1823Y10999
X3654Y12770
X4141Y13410
X4610Y13410
X4610Y12475
X5819Y12337
X6666Y12337
X6666Y11491
X5819Y11491
X7900Y11914
X8811Y12456
X9140Y13119
X10603Y14109
X12109Y13115
X13339Y14440
X10726Y15625
X6690Y14784
X6738Y14136
X12158Y11156
X13792Y10113
X14630Y10444
X13422Y9042
X9353Y8637
X8843Y7930
X8910Y9424
X5520Y9424
T02
X7876Y6176
X13150Y7664
X15780Y2672
X14008Y2337
T03
X14540Y4916
X15327Y4916
T04
X18197Y1294
X19378Y1294
T05
X11103Y7609
X10103Y7609
X10103Y8609
X11103Y8609
X11103Y9609
X10103Y9609
X10103Y10609
X11103Y10609
X11103Y11609
X10103Y11609
X10103Y12609
X11103Y12609
X11103Y13609
X10103Y13609
X10103Y14609
X11103Y14609
X1947Y14845
X947Y14845
X847Y13845
X1847Y13845
X1947Y12845
X947Y12845
T06
X2158Y2164
M30
